<?xml version="1.0" encoding="UTF-8" ?>
<!DOCTYPE svg PUBLIC "-//W3C//DTD SVG 1.1//EN" "http://www.w3.org/Graphics/SVG/1.1/DTD/svg11.dtd">
<svg width="1024pt" height="1024pt" viewBox="0 0 1024 1024" version="1.1" xmlns="http://www.w3.org/2000/svg">
<g id="#000000ff">
</g>
<g id="#f80372ff">
<path fill="#f80372" opacity="1.00" d=" M 543.21 230.14 C 546.97 228.32 551.47 233.87 547.31 236.30 C 543.55 239.66 538.77 233.07 543.21 230.14 Z" />
<path fill="#f80372" opacity="1.00" d=" M 669.01 265.96 C 682.57 263.73 696.44 266.36 710.00 264.01 C 728.62 265.40 747.32 264.86 766.00 265.10 C 781.87 267.04 800.55 264.31 813.98 275.00 C 818.11 275.76 814.76 279.99 815.35 282.67 C 818.47 285.63 815.55 290.14 814.56 293.63 C 811.04 297.73 812.59 304.04 809.19 308.20 C 804.29 313.18 804.36 320.90 800.53 326.50 C 797.79 328.35 797.83 331.77 797.81 334.80 C 795.64 336.60 791.77 337.33 793.51 341.65 C 790.76 349.24 786.82 356.19 783.51 363.51 C 780.02 366.23 782.15 371.47 780.03 375.02 C 775.09 384.53 773.55 395.41 767.42 404.37 C 765.59 406.72 766.20 409.98 764.53 412.40 C 763.66 414.79 761.74 417.12 762.55 419.79 C 761.84 420.65 761.07 421.44 760.37 422.31 C 757.04 435.62 750.60 447.78 746.93 460.98 C 745.94 464.91 743.65 468.34 742.13 472.07 C 738.88 477.12 739.41 483.84 736.02 489.01 C 732.54 499.05 728.07 508.62 724.66 518.69 C 723.44 525.97 718.54 532.03 717.36 539.31 C 716.85 542.77 713.78 545.12 713.57 548.69 C 710.83 555.99 707.61 563.04 705.52 570.64 C 701.42 577.16 700.91 585.28 696.69 591.68 C 694.15 598.55 693.16 605.82 689.14 612.10 C 687.63 619.86 684.20 626.99 681.16 634.19 C 678.25 638.15 678.86 643.43 676.74 647.72 C 670.23 661.78 665.78 676.62 660.12 691.08 C 658.19 697.35 655.31 703.32 653.53 709.64 C 650.20 714.32 651.46 720.96 647.44 725.35 C 646.46 730.59 643.97 735.29 642.17 740.21 C 638.53 745.93 639.25 753.32 636.18 759.21 C 632.40 762.19 633.49 769.06 628.70 770.69 C 611.22 771.21 593.68 771.15 576.22 770.81 C 571.62 766.16 568.80 759.70 567.57 753.34 C 562.40 745.38 560.92 735.86 557.91 727.03 C 555.07 720.84 554.36 713.96 551.28 707.87 C 550.85 704.53 549.93 701.05 547.32 698.71 C 544.71 697.37 547.76 695.35 546.33 693.70 C 542.42 685.68 541.81 676.39 537.36 668.70 C 536.76 664.63 536.85 660.27 535.58 656.35 C 532.07 651.41 532.14 645.07 529.42 639.77 C 527.90 634.83 525.51 629.94 525.34 624.70 C 529.45 633.31 531.62 642.84 535.28 651.70 C 548.47 687.89 561.23 724.22 574.59 760.35 C 575.27 762.22 575.78 764.27 577.17 765.78 C 592.73 764.42 608.40 764.93 624.00 765.25 C 627.51 765.87 632.55 765.78 632.61 760.74 C 663.05 675.92 694.83 591.59 726.16 507.11 C 747.77 448.44 769.78 389.93 791.42 331.27 C 797.05 314.06 804.44 297.42 809.95 280.19 C 809.65 279.94 809.03 279.44 808.72 279.19 C 751.48 278.73 694.23 279.14 636.99 278.99 C 633.52 278.31 633.77 283.57 632.41 285.26 C 630.54 292.07 626.81 298.19 625.11 305.04 C 623.14 313.26 619.27 320.84 616.92 328.93 C 652.28 329.06 687.64 329.03 723.00 328.95 C 724.27 324.49 720.31 322.61 716.02 323.97 L 715.99 322.98 C 720.04 321.64 724.46 323.04 725.62 327.20 C 725.22 329.64 725.02 332.33 722.77 333.83 C 694.81 334.07 666.93 334.35 639.00 334.01 C 630.73 333.71 622.05 335.24 614.22 331.79 C 614.42 325.89 610.16 321.38 612.21 315.15 C 617.18 303.98 617.84 290.74 626.16 281.18 C 628.39 278.12 629.51 273.88 633.19 272.18 C 643.46 264.29 657.05 267.50 669.01 265.96 Z" />
<path fill="#f80372" opacity="1.00" d=" M 506.77 277.03 C 513.45 277.24 520.38 281.21 521.79 288.15 C 531.52 305.22 537.51 324.06 544.61 342.31 C 547.67 352.50 553.30 361.98 554.41 372.70 C 556.94 377.74 558.18 383.19 559.46 388.64 C 563.31 394.99 564.27 402.57 567.91 409.03 C 570.80 414.82 571.30 421.64 574.92 427.03 C 577.12 436.68 581.34 445.71 583.76 455.27 C 585.18 458.26 585.40 461.80 584.26 464.92 C 586.24 467.02 591.18 464.82 588.18 470.95 C 589.57 473.96 590.34 477.31 591.79 480.25 C 593.64 483.87 597.58 481.70 600.75 482.95 C 602.38 477.25 603.94 471.53 605.83 465.90 C 606.64 462.84 609.23 460.60 609.37 457.30 C 614.07 453.20 612.87 446.21 614.58 440.67 C 615.75 435.70 620.29 432.30 621.38 427.31 C 622.53 422.65 622.70 417.67 625.62 413.69 C 625.69 407.75 630.83 403.38 630.46 397.34 C 634.67 388.04 637.87 378.33 641.74 368.88 C 642.77 360.64 646.44 352.95 651.21 346.22 C 656.17 341.52 664.31 341.67 670.05 344.93 C 674.98 343.25 679.96 346.16 684.99 345.95 C 706.64 346.04 728.29 346.03 749.94 345.96 C 751.14 345.61 751.85 344.41 753.06 344.02 C 754.65 344.06 756.79 345.86 757.81 343.83 C 758.05 340.55 751.67 343.72 753.01 339.95 C 756.95 342.03 759.79 338.45 761.01 335.00 C 760.21 332.00 756.95 330.47 756.58 327.31 C 755.95 324.19 758.72 321.37 761.60 320.60 C 762.14 318.93 763.07 317.46 763.98 315.98 C 762.81 312.79 758.11 311.29 755.01 312.02 C 742.27 311.08 729.72 313.70 717.00 313.02 C 705.61 313.68 694.39 311.15 682.99 312.01 C 679.15 311.15 672.96 313.87 670.68 309.42 C 667.98 310.62 665.57 308.82 663.18 307.74 C 662.80 306.42 663.37 305.75 664.90 305.72 C 665.42 302.39 662.07 300.05 660.83 297.27 C 658.56 296.94 656.37 295.98 654.07 296.06 C 651.88 297.10 649.67 298.02 647.25 298.32 C 642.04 302.57 640.19 309.36 638.79 315.62 C 636.98 315.80 636.89 317.35 636.91 318.83 C 639.83 317.15 642.40 320.29 645.33 320.54 C 651.01 320.60 656.30 323.05 661.99 322.96 C 674.98 323.18 687.98 322.80 700.98 323.05 L 701.00 324.00 C 675.31 323.95 649.61 324.10 623.92 323.94 C 624.02 321.48 625.16 319.25 626.04 317.02 C 630.28 307.41 633.25 297.23 637.80 287.78 C 639.57 285.74 641.44 283.10 644.99 285.05 C 694.27 283.00 743.68 284.39 793.02 284.02 C 795.29 284.74 803.53 282.93 801.96 287.97 C 799.26 297.22 794.09 305.59 792.05 315.08 C 790.11 321.21 786.56 326.74 785.10 333.04 C 779.14 350.47 772.30 367.58 766.39 385.04 C 765.66 383.64 764.90 381.26 763.14 381.16 C 761.02 382.36 762.95 383.98 763.94 385.16 C 763.03 388.81 761.11 392.16 760.21 395.84 C 760.65 395.93 761.52 396.13 761.96 396.23 C 759.69 402.96 758.14 410.17 754.35 416.27 C 755.64 412.72 754.34 409.65 751.12 407.81 C 751.43 411.61 751.69 415.41 751.92 419.23 C 751.00 418.06 751.20 415.48 749.12 416.07 C 747.21 415.97 748.49 419.22 746.93 419.94 C 742.43 421.98 744.85 432.29 750.12 429.16 C 748.11 434.15 746.23 439.18 744.42 444.25 C 739.86 440.24 750.31 435.53 745.79 431.12 C 741.84 430.81 741.67 436.60 740.02 439.01 C 739.56 441.73 736.90 442.45 735.20 444.13 C 736.59 447.28 737.85 451.50 735.08 454.17 C 736.41 450.09 735.44 448.35 732.16 448.95 C 733.69 451.74 732.39 454.76 731.59 457.56 C 729.72 458.77 728.76 461.56 729.42 463.69 C 731.41 467.99 722.23 468.56 726.05 473.99 C 731.35 483.66 716.84 474.35 721.85 483.93 C 721.21 486.07 718.57 487.24 718.69 489.84 C 713.01 496.82 710.77 505.88 709.64 514.69 C 704.53 519.46 704.02 526.32 701.47 532.34 C 703.48 538.73 695.30 540.50 696.63 546.67 C 692.89 549.55 693.77 554.69 692.77 558.79 C 691.57 561.96 686.35 554.53 689.49 563.60 C 687.53 566.72 686.70 570.36 685.78 573.89 C 679.60 585.17 677.28 598.17 671.84 609.85 C 667.20 615.65 667.95 624.25 663.32 630.28 C 658.90 645.60 652.29 660.20 647.17 675.21 C 643.80 681.21 641.84 687.66 640.39 694.33 C 636.91 702.06 633.47 709.82 630.88 717.92 C 629.28 727.49 624.19 736.00 620.83 744.91 C 610.29 744.96 599.72 745.26 589.20 744.83 C 586.73 742.78 585.73 739.45 585.49 736.35 C 579.74 721.83 574.90 706.99 569.57 692.33 C 568.84 690.05 567.50 685.21 573.80 689.12 C 576.46 691.34 576.60 695.64 579.67 697.41 C 580.98 700.90 581.56 704.70 582.47 708.35 C 581.85 713.21 586.88 715.87 586.49 720.65 C 588.29 724.54 589.98 728.50 591.43 732.54 C 593.80 733.39 592.26 736.56 594.22 737.84 C 599.08 738.48 604.14 739.75 609.00 738.37 C 611.42 739.36 613.59 737.78 615.66 736.69 C 616.34 733.85 618.09 731.15 617.88 728.20 C 616.71 726.12 614.12 729.20 613.13 726.79 C 612.59 723.08 615.42 717.80 619.78 719.67 C 621.02 716.15 622.21 712.52 624.44 709.50 C 626.46 708.73 625.44 706.04 626.98 704.98 C 628.78 703.93 627.93 700.28 630.19 700.06 C 625.43 714.53 620.18 728.93 614.13 742.92 C 615.93 745.00 618.92 743.97 619.31 741.32 C 634.69 701.23 649.03 660.75 664.57 620.72 C 671.53 599.17 680.10 578.20 687.95 556.97 C 715.49 482.66 743.54 408.54 771.42 334.36 C 772.59 330.99 775.82 326.13 772.78 323.08 C 767.85 323.69 763.08 325.79 758.00 324.05 C 757.30 327.37 759.24 331.60 763.99 328.81 C 765.59 328.91 767.62 327.46 768.81 329.10 C 766.55 335.48 764.10 341.86 760.82 347.80 C 726.34 346.09 691.71 347.30 657.18 347.13 C 655.94 353.25 653.56 358.99 650.51 364.42 C 642.43 386.28 635.26 408.53 625.86 429.90 C 616.81 455.37 608.03 480.95 598.09 506.11 C 597.52 508.13 596.31 505.77 596.13 504.91 C 582.29 469.32 569.38 433.38 555.00 398.00 C 540.91 360.63 525.59 323.76 511.54 286.37 C 509.87 283.62 510.15 279.37 507.22 277.68 L 506.77 277.03 M 666.03 302.03 C 665.95 303.34 665.95 304.65 666.03 305.97 C 704.34 306.02 742.66 306.02 780.97 305.97 C 781.04 304.65 781.04 303.34 780.97 302.03 C 742.66 301.98 704.34 301.98 666.03 302.03 M 789.30 312.37 C 787.28 313.24 785.20 313.79 783.05 313.11 C 781.04 313.64 778.81 314.91 778.02 316.89 C 779.36 318.03 781.49 317.69 782.55 319.20 C 782.68 320.77 782.92 322.34 782.96 323.93 C 782.59 325.44 779.86 326.81 781.66 328.34 C 782.33 329.66 783.77 327.85 784.73 327.73 C 786.15 325.26 785.56 321.83 788.76 320.78 C 788.59 318.68 791.63 312.14 789.30 312.37 M 781.29 330.38 C 779.89 330.96 778.52 331.61 777.16 332.26 C 776.49 335.79 778.13 339.35 777.36 342.88 C 777.69 343.17 778.37 343.75 778.70 344.04 C 780.18 339.36 783.50 335.17 783.01 329.92 C 782.58 330.03 781.72 330.26 781.29 330.38 M 771.23 347.29 C 770.21 349.00 768.40 353.92 771.95 352.99 C 771.65 351.45 772.92 346.77 771.23 347.29 M 773.18 353.82 C 775.08 358.42 770.40 359.84 769.35 363.29 C 768.54 366.08 766.23 370.63 769.84 372.14 C 771.76 371.54 768.90 362.40 772.86 364.77 C 773.23 361.15 776.35 356.74 773.18 353.82 M 752.98 400.02 C 752.33 402.42 753.90 403.49 756.00 403.98 C 756.37 401.41 756.23 398.95 752.98 400.02 Z" />
<path fill="#f80372" opacity="1.00" d=" M 505.39 287.89 C 507.72 290.15 508.23 293.52 509.56 296.36 C 525.50 334.74 540.04 373.67 555.83 412.11 C 564.76 437.19 575.14 461.74 584.35 486.71 C 584.20 488.16 584.07 489.62 583.97 491.09 C 582.72 490.70 582.04 489.46 581.65 488.32 C 577.40 475.67 571.33 463.70 566.87 451.18 C 566.52 448.90 563.66 448.11 564.42 445.79 C 561.29 436.91 556.29 428.46 553.67 419.27 C 552.54 417.70 550.69 416.96 549.26 415.74 C 546.99 411.25 546.65 406.10 545.78 401.23 C 544.11 399.81 541.19 399.26 542.08 395.95 C 542.11 387.77 539.83 393.64 538.31 395.35 C 537.84 398.96 537.95 402.79 540.35 405.68 C 547.00 426.21 555.69 446.22 562.51 466.65 C 563.84 474.19 568.71 480.43 570.23 487.89 C 571.67 491.41 574.74 494.68 574.42 498.70 C 577.83 505.70 579.87 513.27 583.47 520.22 C 582.85 522.35 583.91 524.14 585.18 525.78 C 589.51 538.28 594.11 550.83 598.74 563.28 C 600.16 566.44 602.37 573.67 595.05 570.01 C 588.68 555.37 583.55 540.17 577.71 525.29 C 576.15 519.40 572.12 513.89 572.35 507.72 C 579.69 526.46 586.69 545.35 593.72 564.22 C 594.15 566.43 595.83 567.55 598.06 567.01 C 597.63 561.39 594.42 556.56 592.62 551.34 C 571.88 493.60 548.90 436.72 527.82 379.11 C 526.55 375.35 524.34 371.84 524.02 367.82 C 525.41 368.47 526.75 369.23 528.14 369.92 C 527.96 365.82 524.92 362.23 526.86 358.07 C 521.09 350.70 520.83 340.77 516.18 332.80 C 512.39 327.18 512.26 319.98 508.08 314.56 C 507.97 307.08 505.00 300.16 503.77 292.90 C 504.67 291.36 504.97 289.59 505.39 287.89 M 532.23 376.90 C 532.37 379.55 528.76 385.49 533.84 383.88 C 535.16 381.62 534.46 378.30 532.23 376.90 M 535.20 385.03 C 534.35 388.35 533.76 392.05 536.12 394.94 C 539.27 394.01 538.14 389.65 538.80 386.97 C 539.13 385.02 536.58 384.81 535.20 385.03 Z" />
<path fill="#f80372" opacity="1.00" d=" M 228.74 307.42 C 235.21 304.96 242.25 306.29 249.00 305.98 C 267.70 306.30 286.43 305.34 305.10 306.61 C 317.74 305.37 330.36 306.68 343.00 307.09 L 343.01 308.00 C 305.92 308.20 268.82 307.61 231.76 308.25 C 230.74 308.01 229.73 307.73 228.74 307.42 Z" />
<path fill="#f80372" opacity="1.00" d=" M 343.94 329.13 C 345.71 329.11 349.26 329.05 351.04 329.02 C 349.63 331.49 345.77 330.81 343.94 329.13 Z" />
<path fill="#f80372" opacity="1.00" d=" M 511.59 349.23 C 511.59 346.51 512.56 342.62 515.81 345.12 C 517.18 349.68 520.81 352.94 523.06 357.01 C 522.59 358.07 521.98 359.10 521.16 359.93 C 519.06 356.93 518.73 350.44 513.98 350.95 C 514.79 354.31 515.90 357.61 517.23 360.81 C 518.34 360.76 519.45 360.67 520.56 360.53 C 519.60 362.08 517.90 362.34 516.25 361.86 C 514.65 357.67 513.21 353.41 511.59 349.23 Z" />
<path fill="#f80372" opacity="1.00" d=" M 491.95 350.39 L 492.86 349.84 C 494.58 350.55 495.36 351.99 494.96 353.85 C 492.75 351.99 491.50 354.77 490.09 356.16 C 490.03 354.04 491.10 352.23 491.95 350.39 Z" />
<path fill="#f80372" opacity="1.00" d=" M 662.09 351.08 C 694.75 350.91 727.42 350.97 760.09 351.07 C 757.54 358.07 755.39 365.37 751.84 371.93 C 732.64 369.96 713.26 371.39 694.00 371.06 L 694.01 375.94 C 713.06 376.22 732.13 375.76 751.19 376.10 C 745.71 384.94 744.13 395.37 739.58 404.64 C 730.15 430.98 720.22 457.14 710.33 483.29 C 710.18 479.30 711.10 475.31 710.38 471.32 C 710.73 466.07 717.64 465.22 717.67 460.00 C 716.61 451.67 721.07 444.08 723.31 436.27 C 724.41 434.73 726.54 434.99 727.98 433.92 C 726.50 432.24 725.04 429.96 727.02 428.01 C 729.67 425.39 728.00 420.40 731.59 418.69 C 730.22 414.67 733.43 411.09 734.44 407.33 C 736.13 400.73 743.32 397.44 743.55 390.25 C 741.78 387.50 742.73 383.05 738.70 382.29 C 732.11 382.89 723.85 379.34 718.41 384.37 C 714.29 395.57 710.44 406.90 705.82 417.91 C 701.83 419.25 701.15 414.44 702.83 411.90 C 705.93 405.84 706.50 398.78 709.76 392.88 C 710.24 389.76 712.80 387.38 712.95 384.17 C 708.67 381.72 703.04 382.12 698.98 379.05 C 696.67 377.17 693.02 379.19 691.11 376.81 C 691.39 374.93 691.89 373.09 692.28 371.24 C 693.91 369.50 696.76 368.96 699.00 369.74 C 701.59 369.54 702.07 365.03 706.00 368.03 C 717.32 367.23 729.39 370.06 740.11 365.22 C 744.07 364.49 743.53 359.54 745.93 357.09 C 741.87 354.40 736.57 355.21 732.01 354.98 C 715.33 355.05 698.65 354.93 681.98 355.02 C 676.13 355.41 669.79 356.21 665.24 360.22 C 663.16 367.79 658.49 374.47 657.50 382.35 C 658.02 386.74 654.38 389.40 653.00 393.05 C 653.32 395.38 654.33 397.57 655.23 399.75 C 657.72 399.72 661.10 400.55 659.92 403.82 C 656.11 407.38 649.22 403.60 646.34 408.28 C 644.06 413.66 644.32 419.96 640.86 424.81 C 637.26 431.79 634.78 439.30 632.78 446.89 C 629.59 453.06 626.29 459.67 626.04 466.77 C 628.97 467.55 632.43 467.29 634.92 469.18 C 634.51 474.41 627.06 472.46 623.14 473.14 C 619.94 477.51 617.94 482.46 616.61 487.70 C 611.72 499.30 608.86 511.80 602.68 522.82 C 599.83 523.56 597.65 520.89 595.41 519.58 C 590.12 512.16 587.59 503.32 584.89 494.75 C 585.22 494.20 585.88 493.10 586.21 492.55 C 589.65 500.95 592.86 509.44 596.26 517.86 C 596.90 517.89 598.20 517.95 598.85 517.98 C 619.93 462.43 640.06 406.28 662.09 351.08 Z" />
<path fill="#f80372" opacity="1.00" d=" M 602.31 366.20 C 603.53 365.59 605.09 366.71 604.96 368.04 C 603.90 374.60 600.41 380.43 598.58 386.78 C 595.82 393.05 594.63 400.10 590.84 405.88 C 590.38 405.92 589.47 406.00 589.01 406.05 C 588.22 399.80 591.84 394.41 593.65 388.71 C 595.73 380.96 598.32 373.20 602.31 366.20 Z" />
<path fill="#f80372" opacity="1.00" d=" M 261.75 371.27 C 265.23 371.03 268.78 370.77 272.26 371.30 C 268.75 371.99 265.24 371.98 261.75 371.27 Z" />
<path fill="#f80372" opacity="1.00" d=" M 260.99 376.02 C 271.92 376.00 282.84 375.87 293.77 376.08 L 293.93 377.01 C 282.96 376.97 271.99 377.08 261.02 376.97 L 260.99 376.02 Z" />
<path fill="#f80372" opacity="1.00" d=" M 299.53 379.13 C 297.78 375.99 300.29 375.57 303.02 375.96 L 302.94 376.87 C 301.82 377.66 300.66 378.36 299.53 379.13 Z" />
<path fill="#f80372" opacity="1.00" d=" M 300.77 383.05 C 303.64 383.60 303.68 387.66 303.97 390.03 L 303.11 389.83 C 302.24 387.60 301.29 385.39 300.77 383.05 Z" />
<path fill="#f80372" opacity="1.00" d=" M 482.99 386.05 C 484.99 383.56 489.39 384.63 492.23 384.09 C 490.21 387.17 486.11 385.58 482.99 386.05 Z" />
<path fill="#f80372" opacity="1.00" d=" M 514.74 384.74 C 518.11 384.98 525.87 381.16 526.05 387.03 C 524.72 386.23 523.59 384.84 521.89 385.08 C 520.63 385.01 519.37 384.98 518.12 385.00 C 517.27 384.93 515.58 384.80 514.74 384.74 Z" />
<path fill="#f80372" opacity="1.00" d=" M 762.19 395.32 C 762.56 391.85 763.79 388.49 766.11 385.84 C 765.50 389.21 764.38 392.63 762.19 395.32 Z" />
<path fill="#f80372" opacity="1.00" d=" M 490.24 419.33 C 491.25 416.47 496.22 415.49 499.26 416.25 C 496.20 417.14 493.25 418.32 490.24 419.33 Z" />
<path fill="#f80372" opacity="1.00" d=" M 678.54 424.24 C 680.61 421.55 682.25 417.18 685.98 416.93 C 686.31 422.61 684.81 428.34 686.16 433.97 C 688.77 433.85 691.07 433.06 693.79 433.10 C 695.25 435.82 694.97 439.05 694.36 442.00 C 696.17 446.81 692.55 454.31 687.08 454.01 C 686.78 450.95 686.34 448.00 686.89 444.98 C 684.18 444.63 682.27 446.90 680.18 448.20 C 675.17 456.23 672.08 465.31 669.50 474.34 C 670.34 477.57 667.99 479.27 666.38 481.31 C 665.21 486.58 663.31 491.77 660.51 496.39 C 659.89 502.43 656.35 507.50 654.23 512.98 C 655.36 514.80 653.87 515.63 652.34 516.37 C 651.16 519.86 651.94 524.26 648.83 526.78 C 646.82 531.51 646.14 537.39 642.39 541.31 C 638.29 554.32 634.01 567.09 628.65 579.68 C 627.51 585.04 623.95 589.70 622.95 594.95 C 637.25 594.51 651.76 596.21 665.95 593.92 C 670.02 593.17 668.73 587.22 672.12 586.00 C 670.25 589.84 670.70 596.88 665.18 597.20 C 666.19 598.23 667.63 599.22 666.85 600.88 C 663.94 610.55 660.04 619.91 656.37 629.31 C 654.98 619.32 663.63 611.77 664.90 602.21 C 664.62 601.94 664.06 601.42 663.77 601.15 C 640.18 600.82 616.58 601.03 592.99 601.05 C 595.82 616.03 603.73 629.40 607.88 644.02 C 607.29 646.32 605.86 648.89 603.07 648.01 C 597.54 636.70 594.51 624.23 589.22 612.89 C 586.28 600.51 578.87 589.37 577.38 576.68 C 580.52 580.71 579.16 587.40 584.05 590.14 C 583.82 588.23 583.16 586.42 582.70 584.57 C 582.29 575.04 576.95 566.82 574.05 557.98 C 566.41 533.65 556.03 510.23 548.09 486.03 C 547.26 482.30 554.15 490.84 550.49 490.65 C 563.62 522.74 574.66 555.60 586.99 588.00 C 587.87 590.38 588.92 592.68 590.34 594.79 C 597.80 595.02 605.30 595.28 612.77 594.87 C 613.65 592.79 613.21 589.50 615.73 588.63 C 614.31 584.33 618.78 582.21 619.47 578.34 C 621.06 575.65 620.91 571.28 624.12 570.00 C 620.47 578.91 617.42 588.08 613.83 596.98 C 605.34 596.50 596.83 596.21 588.37 595.73 C 587.24 593.76 585.88 588.96 583.19 592.10 C 584.55 596.18 586.04 600.27 588.11 604.06 C 590.33 602.14 589.85 597.11 595.01 600.06 C 613.67 599.00 632.38 601.10 651.00 599.21 C 655.05 597.80 661.46 601.35 664.26 597.12 C 650.19 596.72 636.11 597.26 622.06 596.94 C 619.65 596.92 619.65 593.97 620.37 592.33 C 634.58 555.51 648.34 518.53 662.57 481.72 C 667.93 467.94 672.33 453.75 678.31 440.23 C 681.90 438.92 691.97 443.00 690.94 436.17 C 687.18 434.47 682.84 435.44 678.91 434.89 C 681.56 433.15 684.19 427.00 679.17 427.05 C 675.57 432.74 674.27 439.52 671.56 445.64 C 664.20 462.62 658.26 480.17 651.31 497.32 C 645.62 513.10 640.09 529.02 633.25 544.34 C 628.58 545.03 630.44 538.32 633.78 539.59 C 639.03 530.33 638.74 519.14 642.25 509.19 C 645.59 505.09 646.39 500.12 647.23 495.14 C 654.45 477.77 659.64 459.69 666.12 442.08 C 667.30 438.37 670.44 435.81 672.55 432.66 C 673.36 430.38 674.38 427.30 676.83 426.55 C 678.36 427.08 678.76 425.38 678.54 424.24 M 589.98 611.98 C 595.52 622.70 599.12 634.46 603.20 645.87 C 603.91 645.91 605.33 645.97 606.05 646.00 C 603.05 634.97 598.42 624.49 594.23 613.90 C 594.41 611.28 591.68 612.11 589.98 611.98 Z" />
<path fill="#f80372" opacity="1.00" d=" M 517.58 419.36 C 521.20 419.56 523.45 422.84 526.01 424.99 C 538.67 437.89 536.03 460.98 521.70 471.60 C 519.11 471.81 518.69 475.03 515.80 473.76 C 519.16 471.15 523.12 469.27 525.67 465.73 C 526.81 464.15 524.28 464.28 523.48 463.49 C 517.86 468.29 510.79 472.92 503.01 472.02 C 496.32 472.47 490.64 468.41 485.92 464.22 C 494.76 470.76 507.26 472.56 517.00 466.99 C 521.55 464.53 523.29 459.20 527.10 455.90 C 526.43 458.15 525.23 460.16 524.09 462.20 C 524.50 462.08 525.32 461.85 525.73 461.73 C 530.43 456.20 533.60 449.37 532.29 441.93 C 532.11 432.14 524.59 425.13 517.58 419.36 Z" />
<path fill="#f80372" opacity="1.00" d=" M 481.02 425.01 C 482.43 422.11 485.22 420.37 488.45 420.42 C 483.12 423.11 480.31 428.44 477.19 433.24 C 475.99 429.63 479.87 427.91 481.02 425.01 Z" />
<path fill="#f80372" opacity="1.00" d=" M 480.28 436.29 C 482.38 429.13 489.34 424.07 496.24 422.24 C 493.58 424.29 490.52 425.75 488.03 428.03 C 477.73 435.57 476.28 452.48 485.60 461.38 C 485.68 462.09 485.84 463.51 485.92 464.22 C 478.69 457.49 475.60 445.45 480.28 436.29 Z" />
<path fill="#f80372" opacity="1.00" d=" M 516.83 424.03 C 521.80 425.78 524.61 430.71 526.86 435.17 C 530.68 440.01 528.85 446.66 528.27 452.24 C 528.14 448.26 527.92 444.30 527.61 440.36 C 525.73 433.86 521.22 428.90 516.83 424.03 Z" />
<path fill="#f80372" opacity="1.00" d=" M 282.86 425.01 C 285.96 426.79 286.74 431.91 286.62 435.31 C 285.05 432.00 283.97 428.49 282.86 425.01 Z" />
<path fill="#f80372" opacity="1.00" d=" M 545.21 436.75 C 547.28 438.59 547.22 441.54 548.05 444.00 C 545.08 443.04 545.89 439.18 545.21 436.75 Z" />
<path fill="#f80372" opacity="1.00" d=" M 288.73 441.23 L 289.74 441.15 C 292.84 446.63 293.70 453.01 296.30 458.71 C 297.33 461.08 298.42 463.57 297.79 466.23 C 294.29 458.07 291.90 449.51 288.73 441.23 Z" />
<path fill="#f80372" opacity="1.00" d=" M 548.33 444.70 C 551.81 452.14 554.56 460.09 557.12 467.95 C 553.54 466.75 554.29 460.54 552.37 457.79 C 550.68 453.56 548.24 449.43 548.33 444.70 Z" />
<path fill="#f80372" opacity="1.00" d=" M 477.31 459.62 C 480.93 463.69 484.62 467.73 488.25 471.83 C 483.37 470.37 478.77 464.80 477.31 459.62 Z" />
<path fill="#f80372" opacity="1.00" d=" M 781.22 460.12 C 783.23 460.59 790.75 458.16 789.98 462.95 C 788.85 467.15 783.29 466.61 780.12 464.80 C 779.95 463.17 779.54 461.10 781.22 460.12 Z" />
<path fill="#f80372" opacity="1.00" d=" M 733.96 468.98 C 735.88 466.62 734.88 462.11 738.12 461.00 C 736.04 467.95 733.44 474.74 730.34 481.30 C 729.78 476.90 731.27 472.46 733.96 468.98 Z" />
<path fill="#f80372" opacity="1.00" d=" M 298.05 466.91 C 301.70 469.63 301.86 475.06 303.89 479.08 C 304.74 481.04 305.25 483.13 304.77 485.27 C 302.21 479.27 299.94 473.15 298.05 466.91 Z" />
<path fill="#f80372" opacity="1.00" d=" M 355.77 468.05 L 356.73 468.20 C 358.12 472.85 361.46 477.20 360.85 482.24 C 359.01 477.57 356.88 472.97 355.77 468.05 Z" />
<path fill="#f80372" opacity="1.00" d=" M 397.83 469.03 C 399.91 470.29 401.31 473.74 400.69 476.28 C 399.46 473.98 398.16 471.66 397.83 469.03 Z" />
<path fill="#f80372" opacity="1.00" d=" M 557.38 468.68 C 560.65 473.99 562.09 480.17 564.10 486.01 C 560.65 483.73 561.02 479.09 559.31 475.70 C 558.45 473.45 556.97 471.18 557.38 468.68 Z" />
<path fill="#f80372" opacity="1.00" d=" M 507.72 475.69 C 510.11 474.96 512.53 474.32 515.00 473.92 C 513.86 476.46 510.09 476.12 507.72 475.69 Z" />
<path fill="#f80372" opacity="1.00" d=" M 400.94 477.05 C 401.40 477.05 402.33 477.06 402.80 477.06 C 403.00 480.93 405.11 484.28 406.22 487.92 C 409.19 487.28 412.11 487.48 415.08 488.09 C 417.21 493.49 414.54 499.89 411.20 504.23 C 407.59 495.24 403.82 486.29 400.94 477.05 Z" />
<path fill="#f80372" opacity="1.00" d=" M 678.15 477.09 C 679.43 476.96 680.71 476.93 682.01 477.01 C 682.36 479.28 681.42 481.35 680.46 483.35 C 671.27 507.10 662.52 530.95 653.71 554.80 C 650.66 562.41 648.42 570.37 644.74 577.73 C 643.93 579.67 641.58 578.85 639.96 578.99 C 640.31 574.44 643.45 570.62 644.25 566.12 C 648.42 557.87 650.85 548.86 654.30 540.29 C 661.94 519.13 669.63 497.88 678.15 477.09 Z" />
<path fill="#f80372" opacity="1.00" d=" M 298.11 479.82 C 300.03 482.97 301.29 486.41 302.07 490.01 C 299.17 489.41 300.59 485.84 298.79 484.22 C 297.57 483.04 298.11 481.29 298.11 479.82 Z" />
<path fill="#f80372" opacity="1.00" d=" M 361.14 482.97 C 361.56 483.01 362.39 483.09 362.81 483.13 C 364.16 490.18 367.83 496.49 368.28 503.62 C 369.28 504.00 369.96 504.70 370.33 505.70 C 376.14 521.87 381.85 538.10 387.60 554.29 C 387.59 554.65 387.58 555.39 387.57 555.75 C 387.38 558.79 388.67 562.13 390.57 564.47 C 391.37 565.47 392.01 566.59 391.92 567.94 C 392.28 571.89 393.14 576.18 395.80 579.25 C 398.17 583.45 400.77 588.31 400.74 593.21 C 399.81 592.24 399.31 588.86 397.68 590.73 C 396.22 592.21 398.14 594.88 397.99 596.84 C 383.00 595.28 367.87 596.11 352.82 596.10 C 353.19 596.52 353.93 597.36 354.30 597.78 C 365.19 598.31 376.08 599.64 387.00 598.84 C 395.66 598.25 404.32 598.08 412.99 599.03 C 417.52 598.40 427.50 601.67 426.55 593.40 C 428.46 588.21 429.54 582.40 433.04 578.01 C 432.52 583.36 428.24 587.94 429.32 593.63 C 431.22 595.37 432.32 599.28 429.77 600.85 C 420.84 601.05 411.85 601.49 403.01 600.03 C 397.20 598.90 391.76 602.05 385.99 600.12 C 373.71 601.89 361.27 600.56 348.92 601.05 C 350.18 606.09 352.19 611.05 354.27 615.85 C 389.44 616.12 424.63 616.06 459.80 615.88 C 462.49 611.24 461.39 603.81 466.13 600.97 C 464.02 606.59 463.15 612.84 459.81 617.90 C 444.81 618.26 429.77 617.37 414.85 619.17 C 417.76 623.73 424.83 619.31 429.03 620.15 C 438.99 620.80 449.17 622.13 459.05 620.00 C 457.45 632.28 449.38 642.80 447.93 655.04 C 452.89 654.02 451.26 647.60 453.15 644.08 C 459.23 633.39 461.46 621.00 467.01 610.00 C 471.86 598.80 473.80 586.52 479.67 575.73 C 479.61 581.14 477.12 586.55 474.52 591.39 C 474.80 595.66 472.72 599.34 471.23 603.16 C 466.78 614.42 463.26 625.95 459.41 637.33 C 449.26 659.32 442.95 683.01 433.41 705.31 C 430.63 714.59 427.28 723.70 423.61 732.67 C 421.82 736.64 421.61 741.41 418.83 744.91 C 408.41 746.67 396.94 740.98 387.20 746.10 C 388.91 750.65 389.71 755.69 392.17 759.91 C 403.71 760.08 415.27 760.07 426.82 759.91 C 431.28 743.81 437.75 728.33 443.62 712.69 C 448.39 698.40 453.96 684.40 459.24 670.31 L 459.92 669.88 C 459.73 671.62 459.36 673.35 459.12 675.10 C 463.29 675.87 463.89 665.56 460.05 668.98 C 461.50 662.86 464.53 657.21 466.20 651.15 L 467.11 651.04 C 466.36 655.92 463.64 660.27 462.95 665.14 C 464.91 662.03 467.78 659.33 468.53 655.62 C 470.49 645.20 476.75 636.32 479.21 626.15 C 483.58 618.30 486.27 609.73 489.32 601.32 C 493.48 588.78 499.47 576.84 502.34 563.88 C 507.69 572.99 510.61 583.51 514.60 593.32 C 517.64 603.71 522.10 613.60 525.07 624.00 C 522.20 623.11 522.76 619.39 521.78 617.11 C 516.70 606.90 514.16 595.61 510.02 584.99 C 508.95 580.91 506.05 577.53 505.65 573.26 C 505.02 570.87 501.83 573.22 501.78 574.89 C 498.60 580.66 495.88 586.67 494.10 593.04 C 491.75 600.29 488.33 607.20 486.53 614.64 C 483.87 618.61 483.36 623.52 481.89 627.97 C 476.04 641.49 472.04 655.71 466.46 669.34 C 464.00 673.95 463.67 679.40 460.66 683.68 C 451.56 709.93 442.28 736.19 432.23 762.09 C 432.14 765.50 428.93 768.97 425.01 766.99 C 411.02 766.97 397.04 767.10 383.06 766.95 C 379.31 758.18 374.64 749.72 372.66 740.29 C 361.47 712.58 353.48 683.60 342.30 655.82 C 340.85 650.46 337.21 645.53 337.16 639.88 C 337.83 640.79 338.43 641.84 339.62 642.13 C 339.91 638.70 340.11 632.31 335.15 632.87 C 335.92 634.88 336.87 636.86 337.02 639.05 C 334.21 635.91 332.77 630.95 332.35 626.71 C 333.29 628.18 334.08 629.74 334.97 631.26 C 336.23 626.48 333.39 622.50 332.66 618.04 C 328.03 618.18 332.27 623.35 332.15 625.95 L 331.24 625.79 C 328.72 618.04 324.30 610.91 323.19 602.76 C 326.50 606.48 326.11 612.14 329.07 616.18 C 333.01 614.63 329.44 611.04 328.53 608.61 C 328.81 604.87 326.03 602.63 324.25 599.88 C 325.67 594.59 321.56 590.22 320.59 585.28 L 321.61 585.12 C 330.71 609.64 340.40 634.11 349.41 658.78 C 353.20 669.34 357.01 679.96 361.75 690.12 C 365.93 703.58 373.89 715.49 377.87 729.08 C 380.58 732.90 379.92 741.15 387.01 738.97 C 396.24 738.20 406.55 740.93 415.23 737.23 C 417.01 731.60 420.18 726.05 421.07 720.08 C 418.32 718.47 412.68 722.08 410.97 718.25 C 412.88 718.33 412.94 717.40 412.12 716.00 C 414.81 715.97 420.17 715.93 422.86 715.91 C 425.98 710.58 425.90 703.66 429.62 698.64 C 431.60 696.27 424.51 693.84 424.01 696.00 C 410.98 696.06 397.95 695.83 384.94 696.07 C 385.40 699.56 387.98 702.20 388.44 705.69 C 390.09 712.54 394.48 718.71 394.02 726.00 C 391.74 726.33 389.41 726.00 388.39 723.70 C 385.50 715.81 382.03 708.09 380.01 699.94 C 379.35 697.30 384.22 692.77 376.04 695.91 C 373.32 695.86 373.24 691.31 375.22 690.13 C 394.38 689.66 413.57 690.35 432.73 689.86 C 440.48 667.07 449.70 644.96 456.92 621.98 C 423.94 622.08 390.96 621.87 357.99 622.07 C 356.67 625.44 358.77 628.21 359.84 631.09 C 364.86 643.82 369.43 656.69 374.59 669.36 C 378.83 673.12 371.32 679.52 370.00 673.98 C 363.47 658.53 357.67 642.75 352.13 626.92 C 339.10 595.04 328.15 562.38 315.61 530.32 C 312.43 520.83 308.21 511.56 306.20 501.75 C 309.20 504.40 308.90 508.93 310.57 512.36 C 316.75 529.34 322.77 546.47 329.69 563.16 C 330.08 561.47 330.79 559.83 330.83 558.09 C 321.71 535.01 313.82 511.53 305.84 488.04 C 309.44 489.21 308.71 495.43 310.63 498.21 C 315.66 512.52 320.75 526.76 326.01 541.00 C 331.77 554.14 335.53 568.23 341.62 581.31 C 343.05 585.84 343.89 590.65 346.30 594.83 C 362.86 595.20 379.43 594.95 396.01 594.97 C 396.10 593.67 396.03 592.40 395.78 591.15 C 384.80 561.63 375.03 531.74 363.69 502.30 C 363.04 500.35 361.76 498.43 362.13 496.31 C 365.88 495.65 363.67 490.74 360.99 489.88 C 361.22 492.04 361.75 494.16 362.13 496.31 C 360.13 495.00 359.82 492.27 359.97 490.07 C 360.00 489.40 360.07 488.06 360.11 487.40 C 360.96 486.02 362.06 484.59 361.14 482.97 M 331.93 569.92 C 332.31 572.06 333.44 573.94 334.25 575.94 C 337.66 574.93 333.50 571.06 331.93 569.92 M 338.93 587.98 C 340.89 592.69 341.87 597.78 345.08 602.03 C 346.47 600.15 347.42 598.44 350.01 600.00 C 351.01 596.68 347.91 595.68 345.26 595.73 C 343.38 593.18 342.99 587.70 338.93 587.98 M 348.00 612.94 C 349.57 616.32 351.48 619.53 353.26 622.82 C 359.24 617.94 367.13 621.99 374.00 621.03 C 384.99 620.50 396.21 622.15 407.06 619.83 C 404.92 615.45 398.60 619.03 394.92 618.79 C 381.41 617.64 367.80 618.21 354.25 617.82 C 351.85 616.33 351.43 612.24 348.00 612.94 M 349.20 665.34 C 346.77 666.44 348.36 671.73 351.05 671.02 C 350.63 669.42 350.65 665.12 349.20 665.34 M 350.95 672.98 C 354.60 686.95 360.03 700.41 365.13 713.92 C 370.70 731.07 376.85 748.00 383.21 764.88 C 398.39 765.10 413.60 765.08 428.79 764.88 C 431.16 762.68 430.24 758.93 430.95 755.98 C 426.24 755.23 430.47 765.61 422.99 761.00 C 411.02 760.32 399.16 761.97 387.23 761.86 C 383.70 758.80 383.53 753.69 381.43 749.77 C 372.60 726.31 364.08 702.80 355.62 679.20 C 354.17 677.48 354.48 672.21 350.95 672.98 M 444.30 714.19 C 442.89 718.40 441.20 722.61 440.98 727.11 C 445.54 724.57 446.20 718.58 445.73 713.92 C 445.37 713.99 444.66 714.12 444.30 714.19 M 394.34 740.53 C 392.77 740.67 389.62 740.94 388.05 741.08 L 388.00 741.98 C 395.74 741.19 403.49 743.76 411.14 741.89 C 407.80 736.82 399.28 741.35 394.34 740.53 M 436.13 740.06 C 434.54 742.37 434.44 745.39 433.96 748.09 C 436.06 746.78 439.95 741.27 436.13 740.06 Z" />
<path fill="#f80372" opacity="1.00" d=" M 704.65 492.68 C 704.54 489.70 705.58 483.09 710.03 484.01 C 702.80 503.44 695.78 522.95 688.32 542.29 C 685.75 533.21 694.10 527.10 695.86 518.95 C 695.15 513.90 693.82 506.19 699.66 503.60 C 701.08 499.82 701.33 495.38 704.65 492.68 Z" />
<path fill="#f80372" opacity="1.00" d=" M 564.30 486.76 C 565.61 489.82 567.28 492.74 568.08 496.00 C 565.54 494.16 563.51 490.04 564.30 486.76 Z" />
<path fill="#f80372" opacity="1.00" d=" M 302.32 490.73 C 303.52 493.05 304.58 495.49 304.90 498.11 C 302.47 496.67 302.00 493.30 302.32 490.73 Z" />
<path fill="#f80372" opacity="1.00" d=" M 723.35 500.29 C 723.00 497.11 724.04 492.45 727.15 491.01 C 726.24 494.24 724.92 497.33 723.35 500.29 Z" />
<path fill="#f80372" opacity="1.00" d=" M 545.25 491.85 L 546.14 491.84 C 549.15 501.32 554.08 510.25 555.86 520.11 C 553.26 518.79 554.18 515.45 552.73 513.29 C 550.71 505.98 546.51 499.40 545.25 491.85 Z" />
<path fill="#f80372" opacity="1.00" d=" M 751.32 495.32 C 753.93 493.69 755.72 499.86 753.92 500.95 C 752.39 504.71 753.65 510.27 749.65 512.62 C 747.33 513.97 746.54 518.04 743.20 516.90 C 742.49 515.17 741.33 513.16 742.36 511.31 C 744.52 507.61 744.94 503.25 746.23 499.24 C 747.95 497.97 749.71 496.74 751.32 495.32 Z" />
<path fill="#f80372" opacity="1.00" d=" M 568.31 496.74 C 569.62 500.13 571.11 503.47 572.09 506.99 C 569.22 505.05 567.75 500.22 568.31 496.74 Z" />
<path fill="#f80372" opacity="1.00" d=" M 433.31 501.13 L 434.37 501.27 C 433.00 505.73 431.65 510.24 429.29 514.29 C 429.09 509.72 432.08 505.53 433.31 501.13 Z" />
<path fill="#f80372" opacity="1.00" d=" M 503.15 511.84 L 503.71 511.85 C 503.03 517.06 501.35 522.94 498.05 527.09 C 498.50 521.69 501.20 516.81 503.15 511.84 Z" />
<path fill="#f80372" opacity="1.00" d=" M 345.20 516.14 C 346.44 515.94 347.68 515.90 348.94 516.01 C 351.77 521.12 353.37 526.81 355.87 532.10 C 358.86 536.44 355.28 537.02 352.99 537.96 C 350.15 536.47 347.64 534.11 345.37 531.87 C 346.43 526.79 341.46 520.48 345.20 516.14 Z" />
<path fill="#f80372" opacity="1.00" d=" M 492.33 529.30 C 491.50 526.70 492.32 522.92 495.15 522.01 C 494.24 524.45 493.21 526.85 492.33 529.30 Z" />
<path fill="#f80372" opacity="1.00" d=" M 512.97 522.96 C 516.13 522.63 516.28 527.11 515.62 529.32 C 514.67 527.22 513.85 525.07 512.97 522.96 Z" />
<path fill="#f80372" opacity="1.00" d=" M 557.33 523.61 C 557.63 523.84 558.21 524.28 558.50 524.50 C 560.32 531.63 563.55 538.27 565.80 545.26 C 567.47 550.18 570.54 554.81 570.99 560.09 C 567.45 556.18 567.11 550.15 564.49 545.63 C 562.47 538.18 558.29 531.38 557.33 523.61 Z" />
<path fill="#f80372" opacity="1.00" d=" M 300.82 532.07 L 301.76 532.21 C 303.32 536.40 306.62 540.50 305.79 545.21 C 304.03 540.87 302.21 536.53 300.82 532.07 Z" />
<path fill="#f80372" opacity="1.00" d=" M 479.92 575.00 C 484.55 560.70 490.07 546.65 495.91 532.83 C 496.44 536.91 493.79 540.48 493.57 544.50 C 491.20 545.99 491.52 549.29 490.54 551.64 C 487.00 556.94 485.75 563.33 483.16 569.09 C 482.13 571.04 482.48 574.32 479.92 575.00 Z" />
<path fill="#f80372" opacity="1.00" d=" M 444.04 548.10 C 444.88 544.54 445.80 540.88 447.86 537.80 C 447.51 541.29 446.96 545.85 444.04 548.10 Z" />
<path fill="#f80372" opacity="1.00" d=" M 484.37 551.35 C 484.71 548.83 484.15 545.03 487.05 543.94 C 486.33 546.46 486.05 549.22 484.37 551.35 Z" />
<path fill="#f80372" opacity="1.00" d=" M 683.72 550.74 C 685.31 549.46 684.71 546.31 687.14 546.01 C 685.26 551.88 681.95 557.21 680.42 563.23 C 679.85 561.52 678.01 559.39 679.78 557.78 C 681.63 555.71 681.73 552.68 683.72 550.74 Z" />
<path fill="#f80372" opacity="1.00" d=" M 629.84 551.81 C 629.93 550.21 630.19 548.30 632.11 547.99 C 630.58 553.26 628.60 558.38 626.33 563.38 C 622.85 562.57 624.64 558.10 626.98 557.01 C 629.53 555.86 626.08 549.46 629.84 551.81 Z" />
<path fill="#f80372" opacity="1.00" d=" M 523.79 551.03 C 526.35 552.80 527.50 557.10 527.71 560.30 C 525.37 557.74 524.45 554.34 523.79 551.03 Z" />
<path fill="#f80372" opacity="1.00" d=" M 308.05 551.93 L 308.93 552.03 C 311.04 553.77 311.34 558.33 311.59 561.33 C 309.69 558.51 309.38 555.00 308.05 551.93 Z" />
<path fill="#f80372" opacity="1.00" d=" M 504.73 555.22 L 505.72 555.15 C 513.64 574.05 519.55 593.53 527.54 612.34 C 530.13 625.04 538.42 635.81 540.36 648.69 C 544.18 652.50 544.39 658.37 546.98 663.00 C 549.10 672.87 555.63 681.26 556.36 691.58 C 559.13 693.01 558.25 696.89 559.82 699.21 C 564.57 706.11 563.75 715.64 568.84 722.09 C 570.39 732.14 576.98 740.56 578.39 750.66 C 581.46 753.69 583.00 759.67 588.56 758.32 C 588.78 758.69 589.20 759.43 589.41 759.80 C 600.77 760.07 612.17 760.31 623.53 759.65 C 625.59 757.63 627.65 755.49 630.13 753.99 C 629.40 756.29 628.73 758.61 627.77 760.83 C 611.94 761.25 596.06 761.01 580.22 760.87 C 576.96 756.91 576.12 751.54 574.16 746.89 C 555.49 696.51 537.94 645.71 518.58 595.59 C 515.06 581.77 508.15 569.08 504.73 555.22 Z" />
<path fill="#f80372" opacity="1.00" d=" M 307.23 560.74 C 309.25 564.67 311.38 568.65 311.91 573.11 C 309.89 572.29 310.05 570.12 309.56 568.35 C 308.09 566.12 306.71 563.48 307.23 560.74 Z" />
<path fill="#f80372" opacity="1.00" d=" M 311.86 562.06 L 312.79 562.19 C 315.40 568.70 319.03 575.24 319.65 582.34 C 316.25 575.99 314.67 568.71 311.86 562.06 Z" />
<path fill="#f80372" opacity="1.00" d=" M 528.19 563.88 C 530.18 563.29 529.52 566.16 531.04 565.89 C 537.30 561.82 545.85 564.91 552.97 564.04 C 556.62 564.05 555.59 573.07 550.00 568.02 C 544.02 567.58 537.81 568.96 531.99 567.25 C 531.61 567.48 530.86 567.94 530.48 568.17 C 528.74 567.50 528.71 565.39 528.19 563.88 Z" />
<path fill="#f80372" opacity="1.00" d=" M 572.13 563.82 C 574.51 567.53 575.37 571.96 577.09 575.99 C 573.44 573.60 572.69 567.92 572.13 563.82 Z" />
<path fill="#f80372" opacity="1.00" d=" M 474.97 565.14 C 476.33 565.28 477.72 565.47 479.10 565.25 C 478.56 566.90 478.01 568.55 477.36 570.16 C 477.13 568.84 476.38 568.03 475.11 567.74 C 475.07 567.09 475.00 565.79 474.97 565.14 Z" />
<path fill="#f80372" opacity="1.00" d=" M 262.98 568.00 C 264.24 567.93 265.51 567.97 266.77 568.15 C 270.69 578.03 274.02 588.16 277.90 598.07 C 278.90 600.87 281.21 607.40 274.27 603.87 C 271.20 596.34 269.36 588.38 266.17 580.91 C 264.91 576.62 262.27 572.70 262.98 568.00 Z" />
<path fill="#f80372" opacity="1.00" d=" M 675.16 567.87 C 676.72 567.78 677.31 569.13 678.02 570.26 C 676.92 573.30 675.72 576.31 674.42 579.27 C 672.82 577.92 671.92 574.27 674.36 573.42 C 677.07 572.75 675.76 569.67 675.16 567.87 Z" />
<path fill="#f80372" opacity="1.00" d=" M 493.43 579.36 C 493.64 576.84 493.17 573.03 496.05 571.94 C 495.35 574.46 494.99 577.17 493.43 579.36 Z" />
<path fill="#f80372" opacity="1.00" d=" M 691.36 586.30 C 690.56 584.00 691.72 580.69 694.16 580.02 C 693.43 582.20 692.37 584.24 691.36 586.30 Z" />
<path fill="#f80372" opacity="1.00" d=" M 317.20 586.75 C 320.05 590.20 321.10 594.79 321.87 599.11 C 321.48 598.78 320.69 598.11 320.29 597.77 C 320.07 593.86 317.24 590.66 317.20 586.75 Z" />
<path fill="#f80372" opacity="1.00" d=" M 487.14 594.08 C 488.23 592.07 487.27 588.64 490.10 587.99 C 487.66 598.28 482.74 607.74 479.87 617.90 C 475.33 628.56 473.08 640.17 467.35 650.31 C 467.81 641.82 474.03 634.59 475.19 626.08 C 479.79 615.65 482.74 604.60 487.14 594.08 Z" />
<path fill="#f80372" opacity="1.00" d=" M 419.00 595.01 C 421.40 595.61 421.10 592.17 423.10 591.97 C 422.72 593.27 422.30 594.56 421.79 595.83 C 415.58 596.09 409.37 596.18 403.20 596.76 C 402.10 595.78 401.38 594.49 400.74 593.21 C 406.15 596.48 412.99 594.47 419.00 595.01 Z" />
<path fill="#f80372" opacity="1.00" d=" M 546.95 595.03 C 548.51 595.03 550.19 594.68 551.68 595.32 C 553.10 596.30 554.64 597.10 556.21 597.84 C 553.42 597.61 546.73 599.88 546.95 595.03 Z" />
<path fill="#f80372" opacity="1.00" d=" M 303.02 601.92 C 305.16 601.66 305.54 603.99 306.52 605.36 C 305.30 609.36 309.28 610.70 310.31 613.70 C 313.69 621.93 316.30 630.47 320.54 638.34 C 321.73 646.17 326.56 652.80 328.67 660.31 C 332.93 671.10 337.37 681.63 340.09 692.97 C 342.54 696.84 343.93 701.28 344.81 705.78 C 343.77 706.70 342.86 708.45 341.19 707.88 C 336.84 703.16 335.78 696.58 333.00 691.00 C 330.41 685.55 328.18 679.93 326.87 674.03 C 323.87 666.55 320.97 659.02 318.60 651.31 C 314.86 642.87 311.85 634.11 309.85 625.09 C 307.44 620.38 304.84 615.45 304.99 609.98 C 305.15 606.94 300.35 605.76 303.02 601.92 Z" />
<path fill="#f80372" opacity="1.00" d=" M 415.80 610.11 C 418.60 610.08 424.18 610.03 426.98 610.01 C 427.04 611.33 427.04 612.65 426.97 613.98 C 424.55 613.80 419.71 613.44 417.29 613.25 C 417.55 611.97 416.29 611.14 415.80 610.11 Z" />
<path fill="#f80372" opacity="1.00" d=" M 546.79 613.03 C 548.61 613.37 548.69 615.93 549.62 617.30 C 551.00 624.06 555.24 630.09 556.02 636.97 C 557.09 638.58 551.84 638.59 553.20 637.20 C 553.65 637.09 554.55 636.87 555.00 636.76 C 552.27 628.85 549.08 621.08 546.79 613.03 Z" />
<path fill="#f80372" opacity="1.00" d=" M 676.35 627.30 C 675.99 624.06 677.06 619.64 680.07 617.95 C 679.04 621.14 677.74 624.25 676.35 627.30 Z" />
<path fill="#f80372" opacity="1.00" d=" M 407.35 633.32 C 414.27 630.32 420.44 637.43 419.72 643.72 C 417.49 646.73 416.36 652.42 411.00 650.03 C 405.76 652.68 400.32 646.34 402.58 641.67 C 403.84 638.54 403.60 634.58 407.35 633.32 M 408.24 638.20 C 404.30 640.26 406.64 644.72 409.21 646.86 C 413.17 648.11 415.73 642.34 413.90 639.23 C 412.14 638.42 410.19 637.48 408.24 638.20 Z" />
<path fill="#f80372" opacity="1.00" d=" M 649.69 636.68 C 651.01 634.96 652.51 636.90 653.00 638.26 C 649.48 647.61 646.39 657.12 642.30 666.25 C 641.44 662.33 643.71 658.64 644.88 655.05 C 641.20 655.44 637.75 654.50 634.24 653.71 C 630.09 647.85 642.23 650.26 644.80 648.83 C 647.22 645.34 645.98 639.71 649.69 636.68 Z" />
<path fill="#f80372" opacity="1.00" d=" M 625.15 652.09 C 626.43 651.96 627.72 651.93 629.02 652.01 C 629.23 654.06 628.66 656.04 627.87 657.92 C 621.29 673.64 616.76 690.19 609.57 705.66 C 608.91 708.43 603.99 706.82 605.05 704.06 C 612.67 687.15 617.65 669.05 625.15 652.09 Z" />
<path fill="#f80372" opacity="1.00" d=" M 640.78 667.77 C 641.10 667.58 641.74 667.18 642.06 666.99 C 639.74 675.07 636.23 682.75 633.63 690.74 C 632.36 693.50 632.22 696.78 630.41 699.31 C 630.16 697.06 630.53 694.82 631.44 692.76 C 630.92 690.54 631.42 688.37 632.37 686.33 C 637.19 681.30 637.69 673.72 640.78 667.77 Z" />
<path fill="#f80372" opacity="1.00" d=" M 520.34 685.39 C 523.99 684.10 527.03 686.46 529.94 688.13 C 528.86 692.65 521.75 688.37 519.00 690.04 C 509.48 689.91 500.31 689.59 490.82 688.83 C 492.30 685.67 496.15 687.40 499.00 686.91 C 505.95 684.56 513.83 689.61 520.34 685.39 Z" />
<path fill="#f80372" opacity="1.00" d=" M 344.32 712.45 C 347.62 712.51 354.85 712.03 353.91 716.82 C 346.94 719.73 339.23 716.15 332.01 716.99 C 322.38 717.65 312.42 715.61 303.00 717.97 C 299.92 717.70 296.75 716.83 298.00 713.04 C 313.43 712.57 328.95 713.75 344.32 712.45 Z" />
<path fill="#f80372" opacity="1.00" d=" M 638.43 731.36 C 638.64 728.84 638.17 725.03 641.05 723.94 C 640.35 726.46 639.99 729.17 638.43 731.36 Z" />
</g>
<g id="#8af6f0ff">
<path fill="#8af6f0" opacity="1.00" d=" M 238.96 263.78 C 252.23 261.90 265.74 264.19 278.99 262.06 C 307.02 261.67 335.29 261.37 362.83 267.32 C 366.91 269.45 372.94 269.15 375.47 273.55 C 382.25 276.62 385.05 284.11 387.46 290.66 C 390.44 296.38 390.34 303.11 392.90 309.02 C 393.97 315.14 395.51 321.57 393.71 327.74 C 392.41 330.59 389.73 332.87 386.68 333.64 C 376.13 334.65 365.46 333.10 354.98 334.97 C 344.37 332.91 333.66 336.35 323.01 334.08 C 298.00 333.84 272.99 334.13 247.99 333.96 C 244.85 333.69 240.34 333.64 237.98 331.21 C 242.01 330.89 237.71 330.20 237.89 328.18 C 254.83 330.03 271.98 328.52 289.00 328.97 C 307.28 330.24 325.60 328.16 343.94 329.13 C 345.77 330.81 349.63 331.49 351.04 329.02 C 364.36 328.83 377.70 329.25 391.03 328.92 C 391.09 327.69 390.96 326.49 390.64 325.31 C 384.85 309.62 378.63 294.08 372.83 278.40 C 319.25 279.80 265.60 278.58 212.00 279.03 C 208.51 280.27 204.50 277.62 201.16 279.03 C 208.05 298.36 215.75 317.38 223.55 336.36 C 232.21 360.45 242.43 383.99 250.91 408.11 C 246.14 402.94 242.31 396.45 240.19 389.78 C 237.95 387.49 238.49 383.92 236.19 381.85 C 235.45 379.37 231.94 378.94 231.79 376.10 C 230.38 372.69 230.34 368.96 229.69 365.40 C 226.87 363.91 226.73 360.25 225.14 357.81 C 222.31 354.14 220.04 350.13 217.88 346.06 C 217.14 346.05 215.67 346.02 214.94 346.01 C 216.20 352.43 220.19 358.24 220.05 365.01 C 220.23 367.69 222.65 370.32 220.83 372.91 C 218.37 373.65 218.13 370.48 216.89 369.10 C 211.13 362.95 208.93 354.50 206.33 346.70 C 203.20 340.16 200.97 333.33 198.65 326.46 C 193.41 322.95 197.96 315.80 196.42 310.71 C 193.57 300.83 190.97 290.59 193.31 280.30 C 195.51 278.49 196.21 275.83 197.32 273.34 C 209.43 264.85 224.81 264.87 238.96 263.78 M 197.00 319.03 C 196.30 321.79 197.62 324.97 200.96 324.02 C 201.06 322.35 201.06 320.69 200.96 319.03 C 199.64 318.95 198.32 318.95 197.00 319.03 Z" />
<path fill="#8af6f0" opacity="1.00" d=" M 500.59 276.68 C 501.18 274.07 505.93 274.84 506.77 277.03 L 507.22 277.68 C 505.41 278.28 501.78 279.46 499.97 280.05 C 487.66 310.91 476.55 342.26 464.18 373.11 C 459.65 384.08 455.69 395.27 451.36 406.32 C 448.48 417.14 442.93 426.99 439.66 437.67 C 438.58 442.14 435.96 445.98 434.33 450.25 C 433.02 444.79 439.27 441.06 438.35 435.71 C 436.48 432.16 438.51 427.63 441.79 425.75 C 440.43 413.97 448.68 404.49 450.48 393.35 C 451.13 388.40 454.39 384.22 454.26 379.08 C 454.94 376.43 454.92 373.06 457.62 371.56 C 460.85 355.56 467.46 340.40 473.16 325.09 C 475.12 317.78 477.62 310.65 480.82 303.79 C 485.35 297.08 486.35 288.75 491.18 282.18 C 494.00 279.84 496.04 275.59 500.59 276.68 Z" />
<path fill="#8af6f0" opacity="1.00" d=" M 208.89 284.08 C 262.20 283.95 315.52 283.95 368.83 284.07 C 373.65 295.63 378.13 307.42 383.06 318.98 C 383.82 320.51 384.12 322.21 384.04 323.92 C 377.68 324.24 371.31 323.93 364.96 323.99 C 368.30 320.99 366.14 316.05 365.65 312.34 C 363.70 309.28 361.05 306.71 359.65 303.32 C 356.84 302.30 353.75 302.06 351.27 300.32 C 350.13 301.77 348.51 302.17 346.94 301.15 C 347.24 303.42 347.57 305.68 347.94 307.95 C 346.29 308.05 344.65 308.06 343.01 308.00 L 343.00 307.09 C 346.32 307.57 347.31 305.90 346.00 302.07 C 315.67 301.06 285.34 300.76 254.99 301.00 C 256.93 298.31 255.61 297.62 251.03 298.94 C 244.50 299.63 236.78 298.18 230.68 300.84 C 234.18 300.94 237.71 301.08 241.22 301.20 C 236.25 302.18 231.14 302.33 226.20 301.21 C 223.40 303.34 225.24 307.59 228.74 307.42 C 229.73 307.73 230.74 308.01 231.76 308.25 C 237.86 309.73 244.21 308.34 250.36 309.42 C 253.33 311.37 256.06 309.23 258.93 309.25 C 271.97 310.61 285.22 311.73 298.24 309.58 C 310.92 312.24 323.99 309.22 336.80 309.13 C 337.67 311.14 341.73 313.94 338.76 315.76 C 328.42 316.37 317.84 318.11 307.65 315.49 C 298.73 314.20 289.90 315.64 281.01 315.91 C 269.53 314.16 257.87 315.52 246.33 314.49 C 240.00 315.30 233.22 314.63 227.21 317.14 C 229.20 324.25 230.75 331.45 232.45 338.64 C 234.41 341.32 235.58 344.64 234.05 347.80 C 238.48 347.20 236.99 352.69 238.80 355.21 C 241.00 357.49 238.43 361.94 241.54 363.47 C 242.79 367.76 247.14 371.41 245.57 376.23 C 246.83 379.55 248.19 383.21 249.21 386.77 C 249.65 386.61 250.52 386.30 250.95 386.15 C 250.31 397.65 259.57 407.00 259.68 418.26 C 242.97 373.45 225.68 328.85 208.89 284.08 Z" />
<path fill="#8af6f0" opacity="1.00" d=" M 480.21 345.16 C 487.92 327.66 492.57 308.68 503.77 292.90 C 505.00 300.16 507.97 307.08 508.08 314.56 C 503.20 317.92 500.76 324.23 496.45 328.38 C 493.66 335.29 490.85 342.87 491.95 350.39 C 491.10 352.23 490.03 354.04 490.09 356.16 C 489.78 359.53 488.85 362.78 488.20 366.10 C 488.85 366.05 490.16 365.93 490.81 365.87 C 493.09 362.26 493.92 357.92 494.96 353.85 C 495.36 351.99 494.58 350.55 492.86 349.84 C 496.53 344.60 496.94 337.63 500.17 332.05 C 503.76 332.24 509.14 330.55 511.14 334.78 C 512.38 338.35 514.35 341.62 515.81 345.12 C 512.56 342.62 511.59 346.51 511.59 349.23 C 509.61 345.22 508.50 340.71 505.82 337.10 C 505.40 337.08 504.57 337.04 504.15 337.02 C 500.37 346.57 495.26 355.74 493.27 365.91 C 500.72 368.00 509.20 367.56 516.37 364.45 C 518.40 363.64 520.57 363.19 522.76 363.19 C 524.43 364.15 523.79 366.22 524.02 367.82 C 521.15 368.09 517.51 366.84 515.89 369.72 C 518.66 369.65 521.96 370.60 520.99 374.10 C 520.63 373.65 519.90 372.75 519.54 372.30 C 509.50 371.57 499.44 372.11 489.40 372.32 C 488.47 374.48 487.09 376.52 486.86 378.92 C 498.27 378.99 509.71 379.25 521.13 378.80 C 521.36 379.12 521.83 379.74 522.06 380.06 C 509.10 379.55 495.98 381.04 483.12 379.04 C 483.04 377.30 482.98 375.56 482.88 373.83 C 482.28 374.92 481.81 376.08 481.18 377.16 C 480.11 380.16 475.07 376.32 473.77 378.93 C 476.57 379.02 479.39 379.09 482.21 379.14 C 479.80 379.43 477.41 379.78 475.04 380.18 C 474.47 382.32 475.57 384.13 476.94 385.67 C 473.11 391.63 471.29 398.51 468.98 405.12 C 470.11 404.16 471.12 403.07 472.13 401.99 C 471.41 405.25 469.67 408.15 468.44 411.23 C 468.30 410.66 468.01 409.54 467.87 408.98 C 465.00 411.75 465.07 416.52 462.79 419.79 C 461.67 420.76 462.51 422.00 462.84 423.12 C 458.13 422.76 460.55 416.82 458.84 413.98 C 457.45 414.92 455.57 416.02 455.96 418.00 C 456.00 421.47 460.59 422.75 461.06 426.03 C 459.99 425.77 458.93 425.48 457.89 425.16 C 457.89 426.43 458.55 427.15 459.88 427.32 C 460.35 428.63 459.42 429.43 458.33 429.92 C 457.58 428.59 457.21 426.28 455.16 427.07 C 453.83 429.23 453.70 432.60 450.27 432.27 C 449.12 438.46 445.83 444.03 444.15 450.09 C 438.86 459.81 436.07 470.69 431.86 480.92 C 426.58 493.92 422.48 507.19 417.09 520.07 C 416.22 523.19 412.77 520.33 411.16 522.91 C 410.10 521.01 410.30 516.02 407.08 517.74 C 390.74 480.07 378.39 440.60 361.99 403.00 C 360.46 393.41 354.79 385.22 351.93 376.02 C 350.12 370.33 348.12 364.54 343.75 360.27 C 340.08 360.35 337.06 358.32 333.67 357.38 C 306.47 356.65 279.30 354.56 252.05 354.90 C 248.11 354.66 248.58 351.07 249.23 347.77 C 249.93 348.72 249.53 351.03 251.13 350.92 C 283.39 351.18 315.67 350.85 347.94 351.03 C 350.39 355.32 351.77 360.09 353.46 364.71 C 366.17 398.26 379.11 431.72 391.71 465.30 C 398.46 483.42 406.56 501.12 411.19 519.94 C 411.61 519.94 412.43 519.93 412.85 519.93 C 416.06 513.89 417.59 507.13 419.59 500.65 C 426.08 484.11 432.97 467.72 439.07 451.03 C 447.05 430.88 455.14 410.77 462.31 390.32 C 464.43 382.47 470.72 376.67 472.56 368.67 C 473.54 360.39 477.34 352.89 480.21 345.16 M 482.35 368.53 C 481.02 369.17 478.01 368.15 477.98 370.07 C 480.55 368.78 486.49 370.49 488.02 367.93 C 486.60 368.08 483.76 368.38 482.35 368.53 M 484.03 371.02 C 484.34 373.39 481.81 379.33 485.73 377.86 C 485.84 375.29 488.48 373.67 488.04 371.04 C 486.69 370.95 485.36 370.95 484.03 371.02 Z" />
<path fill="#8af6f0" opacity="1.00" d=" M 174.98 313.99 C 178.72 312.87 179.48 317.08 180.44 319.67 C 190.19 345.46 198.83 371.63 207.25 397.87 C 211.13 407.62 214.06 417.72 216.74 427.86 C 216.15 428.79 215.32 429.14 214.22 428.91 C 207.41 410.91 201.17 392.70 194.36 374.70 C 188.97 356.86 181.67 339.71 176.13 321.92 C 175.10 319.41 175.05 316.65 174.98 313.99 Z" />
<path fill="#8af6f0" opacity="1.00" d=" M 237.98 323.03 C 269.31 323.00 300.64 322.94 331.97 323.05 L 332.01 324.00 C 300.69 324.02 269.37 323.98 238.06 324.00 L 237.98 323.03 Z" />
<path fill="#8af6f0" opacity="1.00" d=" M 345.00 323.02 C 348.75 323.02 356.24 323.02 359.99 323.02 L 360.00 323.99 C 355.00 324.06 349.99 324.01 345.00 324.00 L 345.00 323.02 Z" />
<path fill="#8af6f0" opacity="1.00" d=" M 323.99 343.06 C 330.62 342.40 337.53 344.10 344.03 342.24 C 346.60 343.00 348.81 344.59 351.75 344.07 C 350.67 345.85 352.57 346.28 353.67 347.26 C 355.08 352.92 359.07 357.56 359.41 363.55 C 362.43 364.71 362.80 368.15 362.16 370.94 C 367.04 384.31 372.32 397.53 377.00 411.00 C 380.13 417.01 382.07 423.46 384.00 430.00 C 387.96 439.63 391.76 449.47 395.60 459.22 C 396.28 462.22 398.76 465.04 397.64 468.26 C 381.96 428.30 367.10 387.99 352.20 347.75 C 350.73 345.85 348.03 346.87 346.02 346.89 C 313.67 347.16 281.32 346.92 248.98 346.99 L 249.01 346.02 C 263.99 345.83 278.97 346.25 293.95 345.86 C 303.71 342.73 314.03 344.91 323.99 343.06 Z" />
<path fill="#8af6f0" opacity="1.00" d=" M 369.20 346.13 C 372.33 345.46 374.83 348.14 376.72 350.26 C 376.35 358.06 381.45 364.61 383.02 372.00 C 383.42 373.59 381.97 375.62 380.24 374.81 C 378.16 372.81 375.08 370.12 376.79 366.97 C 374.13 361.36 370.71 356.01 368.96 350.01 C 368.80 348.66 367.55 347.00 369.20 346.13 Z" />
<path fill="#8af6f0" opacity="1.00" d=" M 175.23 361.12 C 180.89 357.70 183.23 365.95 179.30 368.31 C 175.53 371.41 171.11 363.39 175.23 361.12 Z" />
<path fill="#8af6f0" opacity="1.00" d=" M 397.14 364.09 C 402.04 365.66 401.74 372.05 404.27 375.84 C 416.16 376.28 428.07 375.78 439.97 376.04 C 442.41 376.02 442.77 379.87 440.77 380.86 C 429.16 381.25 417.54 380.81 405.93 381.05 C 407.87 392.39 415.83 402.30 416.01 414.01 C 414.63 413.95 412.81 414.42 412.33 412.69 C 408.25 402.59 404.84 392.24 400.82 382.11 C 398.70 378.75 398.24 374.71 397.00 371.01 C 396.47 369.05 394.93 365.71 397.14 364.09 Z" />
<path fill="#8af6f0" opacity="1.00" d=" M 306.03 370.95 C 305.90 368.87 309.57 370.42 311.00 370.03 C 311.00 371.44 310.92 372.84 310.76 374.25 C 310.54 371.44 308.66 370.56 306.03 370.95 Z" />
<path fill="#8af6f0" opacity="1.00" d=" M 317.20 370.10 C 320.78 367.36 322.59 370.53 323.20 372.90 C 329.93 393.45 338.04 413.51 345.08 433.94 C 346.87 440.45 350.33 446.45 350.65 453.31 C 348.92 451.25 348.75 448.48 347.93 446.02 C 339.08 421.36 330.81 396.45 320.75 372.25 C 319.93 369.76 317.23 372.12 318.14 373.90 C 321.13 383.03 325.29 391.76 328.07 400.98 C 329.75 406.76 333.05 412.12 333.97 418.07 C 330.45 414.17 330.12 408.13 327.47 403.64 C 325.07 394.20 320.56 385.47 317.52 376.24 C 315.00 374.24 316.49 372.12 317.20 370.10 Z" />
<path fill="#8af6f0" opacity="1.00" d=" M 303.02 375.96 C 305.70 375.93 308.39 375.93 311.09 375.96 C 310.95 379.30 304.56 375.04 303.83 378.93 C 306.53 378.77 309.31 378.22 312.03 378.00 C 312.07 382.32 306.11 381.26 303.06 381.72 C 302.92 380.10 302.89 378.48 302.94 376.87 L 303.02 375.96 Z" />
<path fill="#8af6f0" opacity="1.00" d=" M 382.02 375.96 C 385.27 376.25 386.08 381.20 386.00 384.02 C 380.94 385.16 381.72 379.44 382.02 375.96 Z" />
<path fill="#8af6f0" opacity="1.00" d=" M 271.32 380.26 C 273.53 381.14 269.80 384.54 268.61 382.33 C 267.20 380.66 270.50 380.91 271.32 380.26 Z" />
<path fill="#8af6f0" opacity="1.00" d=" M 266.89 394.11 C 263.47 391.74 260.97 380.10 268.99 384.03 C 268.96 384.51 268.91 385.45 268.88 385.92 C 267.63 385.37 266.32 384.98 264.97 384.91 C 264.80 388.12 266.37 391.02 266.89 394.11 Z" />
<path fill="#8af6f0" opacity="1.00" d=" M 492.23 384.09 C 497.87 383.90 503.58 383.67 509.17 384.75 C 509.82 385.70 509.67 389.16 511.22 387.16 C 512.99 385.23 515.50 387.96 517.25 388.81 C 509.81 388.18 502.26 391.55 494.98 389.27 C 491.38 390.38 487.78 391.48 484.09 392.21 C 482.96 395.23 488.32 393.12 488.00 396.05 C 487.48 400.50 484.84 404.52 483.86 408.92 C 481.89 415.06 475.75 418.00 470.08 419.95 C 474.01 408.54 478.70 397.34 482.99 386.05 C 486.11 385.58 490.21 387.17 492.23 384.09 Z" />
<path fill="#8af6f0" opacity="1.00" d=" M 518.12 385.00 C 519.37 384.98 520.63 385.01 521.89 385.08 C 522.48 386.59 524.00 389.61 521.21 389.62 C 518.72 390.63 515.99 386.63 518.12 385.00 Z" />
<path fill="#8af6f0" opacity="1.00" d=" M 269.09 386.84 C 271.81 388.93 273.09 392.97 272.64 396.30 C 271.27 393.23 269.80 390.15 269.09 386.84 Z" />
<path fill="#8af6f0" opacity="1.00" d=" M 303.11 389.83 L 303.97 390.03 L 304.72 390.22 C 307.44 398.43 310.82 406.41 313.45 414.66 C 313.89 415.84 313.96 417.05 313.66 418.31 C 309.69 409.00 306.78 399.26 303.11 389.83 Z" />
<path fill="#8af6f0" opacity="1.00" d=" M 301.16 397.79 C 302.67 399.96 303.57 402.49 303.89 405.11 C 301.43 403.69 301.15 400.35 301.16 397.79 Z" />
<path fill="#8af6f0" opacity="1.00" d=" M 277.02 408.00 C 281.60 408.07 286.23 407.63 290.80 408.16 C 292.50 409.10 292.50 411.92 290.77 412.84 C 288.08 412.90 282.69 413.01 279.99 413.07 C 280.53 415.11 281.35 417.18 280.65 419.31 C 279.23 415.61 278.27 411.76 277.02 408.00 Z" />
<path fill="#8af6f0" opacity="1.00" d=" M 308.25 417.74 C 310.26 421.64 311.84 425.78 313.08 430.00 C 311.31 429.75 311.07 427.68 310.52 426.34 C 309.57 423.54 307.65 420.81 308.25 417.74 Z" />
<path fill="#8af6f0" opacity="1.00" d=" M 259.93 419.00 C 262.22 419.51 262.04 422.34 262.92 424.06 C 263.83 427.46 266.89 430.59 265.65 434.31 C 263.40 429.34 261.39 424.25 259.93 419.00 Z" />
<path fill="#8af6f0" opacity="1.00" d=" M 337.24 427.73 C 338.79 429.22 339.04 431.38 339.68 433.33 C 341.22 438.65 344.85 443.41 345.02 449.07 C 342.74 447.47 342.74 443.68 341.60 441.21 C 339.37 437.03 337.60 432.49 337.24 427.73 Z" />
<path fill="#8af6f0" opacity="1.00" d=" M 313.32 430.73 C 315.15 435.05 316.94 439.42 318.07 443.99 C 316.63 443.77 316.02 442.30 315.90 441.03 C 315.29 437.51 312.14 434.46 313.32 430.73 Z" />
<path fill="#8af6f0" opacity="1.00" d=" M 462.02 441.09 C 462.68 437.79 463.80 434.51 465.90 431.83 C 465.67 435.03 464.65 439.08 462.02 441.09 Z" />
<path fill="#8af6f0" opacity="1.00" d=" M 457.38 440.31 C 457.00 437.86 457.36 433.84 460.15 433.03 C 459.35 435.50 458.48 437.95 457.38 440.31 Z" />
<path fill="#8af6f0" opacity="1.00" d=" M 512.99 433.92 C 517.14 434.79 519.32 438.91 520.48 442.65 C 521.67 445.41 523.58 449.70 520.79 451.87 C 516.37 452.59 517.64 445.31 515.89 443.02 C 515.22 439.88 512.86 437.20 512.99 433.92 Z" />
<path fill="#8af6f0" opacity="1.00" d=" M 319.88 435.00 C 322.96 436.82 323.73 441.90 323.64 445.31 C 322.05 442.00 320.94 438.50 319.88 435.00 Z" />
<path fill="#8af6f0" opacity="1.00" d=" M 261.18 435.78 C 262.61 437.98 263.62 440.48 263.88 443.10 C 261.43 441.67 261.13 438.34 261.18 435.78 Z" />
<path fill="#8af6f0" opacity="1.00" d=" M 266.87 438.00 C 269.63 438.87 269.95 442.81 269.67 445.27 C 268.50 442.94 267.59 440.50 266.87 438.00 Z" />
<path fill="#8af6f0" opacity="1.00" d=" M 315.14 444.88 C 316.70 445.64 316.80 448.05 318.78 448.16 C 318.48 447.02 318.32 445.86 318.32 444.70 C 320.16 446.72 320.37 449.55 320.91 452.11 C 319.74 451.54 319.17 450.29 318.70 449.17 C 317.81 449.72 317.01 450.39 316.12 450.94 C 314.53 449.32 315.77 446.87 315.14 444.88 Z" />
<path fill="#8af6f0" opacity="1.00" d=" M 269.92 446.00 C 272.95 447.88 273.73 452.87 273.64 456.28 C 272.03 453.00 270.94 449.50 269.92 446.00 Z" />
<path fill="#8af6f0" opacity="1.00" d=" M 539.03 445.88 C 543.69 448.76 542.70 455.58 544.87 460.04 C 539.18 461.60 543.59 452.72 539.21 451.58 C 539.16 450.16 539.08 447.31 539.03 445.88 Z" />
<path fill="#8af6f0" opacity="1.00" d=" M 433.32 451.20 L 434.19 451.04 C 432.81 457.35 429.76 463.27 427.31 469.26 C 427.32 462.90 431.40 457.18 433.32 451.20 Z" />
<path fill="#8af6f0" opacity="1.00" d=" M 346.18 452.77 C 349.66 457.01 350.51 462.87 351.87 468.11 C 351.46 467.77 350.65 467.10 350.24 466.77 C 349.23 462.00 346.78 457.60 346.18 452.77 Z" />
<path fill="#8af6f0" opacity="1.00" d=" M 350.92 454.01 C 353.86 455.21 354.15 459.55 353.65 462.31 C 352.65 459.57 351.76 456.80 350.92 454.01 Z" />
<path fill="#8af6f0" opacity="1.00" d=" M 464.07 456.21 C 465.54 455.95 467.95 453.38 467.97 457.01 C 473.08 467.04 476.70 479.19 487.05 484.95 C 503.77 485.41 520.55 484.38 537.26 485.29 C 520.57 486.69 503.74 485.95 487.00 485.76 C 475.02 484.58 462.99 486.82 450.98 485.97 C 448.91 485.56 446.76 486.55 446.84 488.92 C 478.89 489.15 510.94 488.89 542.99 489.02 C 544.93 488.57 545.37 490.55 546.14 491.84 L 545.25 491.85 C 544.84 491.43 544.03 490.58 543.63 490.16 C 511.09 489.73 478.54 490.20 446.00 489.94 C 446.06 488.28 445.48 486.13 447.22 485.13 C 456.81 484.70 466.43 485.25 476.03 484.93 C 476.48 482.41 474.29 480.78 473.22 478.78 C 469.23 471.71 464.73 464.52 464.07 456.21 Z" />
<path fill="#8af6f0" opacity="1.00" d=" M 273.89 457.03 C 275.72 457.16 275.97 459.29 276.42 460.68 C 278.00 466.75 281.54 472.13 282.65 478.31 C 283.25 481.38 285.92 483.99 284.69 487.30 C 280.91 477.27 277.00 467.29 273.89 457.03 Z" />
<path fill="#8af6f0" opacity="1.00" d=" M 328.91 460.02 C 330.35 460.92 333.88 461.33 332.58 463.68 C 330.86 467.66 334.32 471.19 335.00 475.00 C 337.66 481.99 340.41 489.10 342.58 496.34 C 344.55 498.84 342.17 503.26 339.21 502.93 C 336.99 496.30 334.36 489.81 331.98 483.25 C 333.90 483.45 337.11 482.78 335.80 480.16 C 332.80 473.71 330.97 466.81 328.91 460.02 Z" />
<path fill="#8af6f0" opacity="1.00" d=" M 452.09 467.11 C 452.49 464.56 453.58 462.12 455.04 460.00 C 455.24 462.63 454.56 465.71 452.09 467.11 Z" />
<path fill="#8af6f0" opacity="1.00" d=" M 545.21 463.13 C 547.67 462.27 548.04 465.50 548.89 467.07 C 550.63 470.56 552.19 474.15 552.99 478.00 C 553.54 481.59 557.89 483.66 556.03 487.99 C 549.98 491.34 551.52 486.81 550.57 484.31 C 548.47 478.44 547.03 472.33 544.37 466.69 C 543.65 465.45 543.93 463.85 545.21 463.13 Z" />
<path fill="#8af6f0" opacity="1.00" d=" M 325.24 463.73 C 327.69 466.59 327.79 470.64 328.97 474.10 C 325.76 471.94 326.01 467.20 325.24 463.73 Z" />
<path fill="#8af6f0" opacity="1.00" d=" M 423.97 476.00 C 424.42 473.86 424.49 470.70 427.05 469.98 C 425.45 474.96 424.66 480.28 421.77 484.73 C 418.55 492.24 415.84 500.03 413.70 507.90 C 411.45 508.44 411.91 505.58 411.20 504.23 C 414.54 499.89 417.21 493.49 415.08 488.09 C 415.96 488.26 416.84 488.44 417.73 488.62 C 419.94 484.46 423.53 480.91 423.97 476.00 Z" />
<path fill="#8af6f0" opacity="1.00" d=" M 447.44 480.17 C 447.72 477.65 447.25 474.21 450.01 473.01 C 449.19 475.40 449.45 478.36 447.44 480.17 Z" />
<path fill="#8af6f0" opacity="1.00" d=" M 357.20 482.76 C 358.40 484.15 359.22 485.79 360.11 487.40 C 360.07 488.06 360.00 489.40 359.97 490.07 C 357.95 488.52 357.53 485.23 357.20 482.76 Z" />
<path fill="#8af6f0" opacity="1.00" d=" M 584.35 486.71 C 585.31 488.53 585.97 490.49 586.21 492.55 C 585.88 493.10 585.22 494.20 584.89 494.75 C 583.07 495.85 584.32 492.05 583.97 491.09 C 584.07 489.62 584.20 488.16 584.35 486.71 Z" />
<path fill="#8af6f0" opacity="1.00" d=" M 285.89 490.99 C 287.34 491.23 288.05 492.62 288.06 493.99 C 289.42 499.02 292.93 503.90 292.69 509.26 C 290.01 503.34 287.44 497.32 285.89 490.99 Z" />
<path fill="#8af6f0" opacity="1.00" d=" M 217.00 493.03 C 234.32 492.99 251.64 492.92 268.96 493.05 C 270.96 492.99 271.26 495.30 270.92 496.82 C 267.25 498.65 262.91 497.63 259.01 498.02 C 245.40 497.88 231.78 498.20 218.18 497.87 C 216.50 496.82 217.06 494.69 217.00 493.03 Z" />
<path fill="#8af6f0" opacity="1.00" d=" M 434.99 512.00 C 435.28 509.15 435.89 506.09 438.02 504.01 C 437.00 506.53 439.19 512.95 434.99 512.00 Z" />
<path fill="#8af6f0" opacity="1.00" d=" M 457.26 506.10 C 459.87 505.49 460.57 510.25 458.19 510.77 C 457.96 509.19 457.69 507.62 457.26 506.10 Z" />
<path fill="#8af6f0" opacity="1.00" d=" M 502.30 506.10 C 505.03 505.70 504.27 510.24 503.71 511.85 L 503.15 511.84 C 502.98 509.91 502.84 507.97 502.30 506.10 Z" />
<path fill="#8af6f0" opacity="1.00" d=" M 463.20 510.85 C 462.26 510.65 461.13 507.02 462.58 508.35 C 463.62 509.03 464.59 510.16 465.98 510.00 C 476.33 510.16 486.67 509.84 497.02 510.01 L 496.99 510.98 C 485.73 510.84 474.44 511.34 463.20 510.85 Z" />
<path fill="#8af6f0" opacity="1.00" d=" M 292.94 509.99 C 296.25 511.86 296.08 516.89 296.65 520.31 C 294.48 517.28 294.20 513.41 292.94 509.99 Z" />
<path fill="#8af6f0" opacity="1.00" d=" M 505.99 510.96 C 506.45 511.00 507.38 511.08 507.84 511.12 C 510.45 514.61 510.71 519.25 512.97 522.96 C 513.85 525.07 514.67 527.22 515.62 529.32 C 517.91 536.75 521.01 543.76 523.79 551.03 C 524.45 554.34 525.37 557.74 527.71 560.30 C 527.89 561.48 528.05 562.68 528.19 563.88 C 528.71 565.39 528.74 567.50 530.48 568.17 C 535.89 582.99 542.50 597.77 546.79 613.03 C 549.08 621.08 552.27 628.85 555.00 636.76 C 554.55 636.87 553.65 637.09 553.20 637.20 L 552.26 636.92 C 539.85 603.61 527.47 570.30 514.88 537.08 C 512.21 528.30 506.51 520.23 505.99 510.96 Z" />
<path fill="#8af6f0" opacity="1.00" d=" M 296.94 521.00 C 300.50 522.74 300.64 527.76 300.56 531.33 C 298.80 528.10 298.30 524.39 296.94 521.00 Z" />
<path fill="#8af6f0" opacity="1.00" d=" M 420.27 538.28 C 419.77 534.87 421.51 531.03 424.17 528.97 C 423.47 532.29 421.67 535.22 420.27 538.28 Z" />
<path fill="#8af6f0" opacity="1.00" d=" M 453.17 532.12 C 455.81 530.89 455.14 534.20 454.62 535.70 C 452.66 539.30 452.23 543.58 449.87 546.97 C 445.29 545.94 452.94 541.96 450.54 539.36 C 451.80 537.07 451.53 534.16 453.17 532.12 Z" />
<path fill="#8af6f0" opacity="1.00" d=" M 468.35 533.58 C 471.23 533.97 481.56 530.89 480.00 536.96 C 473.39 537.11 466.80 537.07 460.21 536.85 C 456.65 532.78 465.58 534.39 468.35 533.58 Z" />
<path fill="#8af6f0" opacity="1.00" d=" M 525.22 533.14 C 530.36 533.37 536.03 531.79 540.88 534.19 C 540.91 534.88 540.99 536.28 541.02 536.98 C 535.44 536.59 529.37 538.05 524.07 535.82 C 523.84 534.66 524.23 533.76 525.22 533.14 Z" />
<path fill="#8af6f0" opacity="1.00" d=" M 424.03 542.06 C 424.02 539.07 425.34 536.30 426.74 533.73 C 426.99 536.55 426.09 540.21 424.03 542.06 Z" />
<path fill="#8af6f0" opacity="1.00" d=" M 305.79 545.21 C 308.89 545.41 308.04 549.82 308.93 552.03 L 308.05 551.93 C 307.15 549.73 306.59 547.43 305.79 545.21 Z" />
<path fill="#8af6f0" opacity="1.00" d=" M 445.38 554.34 C 445.80 554.24 446.62 554.04 447.04 553.94 C 445.10 564.27 439.36 573.54 436.56 583.67 C 435.19 585.84 431.68 591.72 434.04 582.08 C 434.86 579.22 439.47 578.29 437.15 574.05 C 441.01 568.02 439.77 559.54 445.38 554.34 Z" />
<path fill="#8af6f0" opacity="1.00" d=" M 390.57 564.47 C 388.67 562.13 387.38 558.79 387.57 555.75 C 389.70 558.17 390.29 561.36 390.57 564.47 Z" />
<path fill="#8af6f0" opacity="1.00" d=" M 416.09 563.11 C 416.46 560.50 417.32 557.96 418.83 555.79 C 418.84 558.35 418.57 561.70 416.09 563.11 Z" />
<path fill="#8af6f0" opacity="1.00" d=" M 356.22 563.46 C 360.11 564.78 370.00 561.01 369.03 567.96 C 365.28 567.96 357.76 567.97 354.00 567.97 C 353.90 565.98 353.49 563.40 356.22 563.46 Z" />
<path fill="#8af6f0" opacity="1.00" d=" M 456.08 565.17 C 462.25 563.37 468.71 564.30 474.97 565.14 C 475.00 565.79 475.07 567.09 475.11 567.74 C 468.75 568.14 462.36 568.14 456.00 567.94 C 456.02 567.25 456.06 565.86 456.08 565.17 Z" />
<path fill="#8af6f0" opacity="1.00" d=" M 391.92 567.94 C 394.09 570.73 395.04 575.49 395.80 579.25 C 393.14 576.18 392.28 571.89 391.92 567.94 Z" />
<path fill="#8af6f0" opacity="1.00" d=" M 433.25 588.19 C 435.11 588.77 433.55 592.43 432.23 592.70 C 431.51 591.24 431.65 589.00 433.25 588.19 Z" />
<path fill="#8af6f0" opacity="1.00" d=" M 451.00 594.04 C 456.77 594.07 462.61 593.61 468.39 594.26 C 467.75 596.24 467.09 598.22 466.39 600.19 C 466.24 599.69 465.92 598.69 465.76 598.19 C 460.81 598.00 455.90 597.93 451.07 596.80 C 451.05 596.11 451.01 594.73 451.00 594.04 Z" />
<path fill="#8af6f0" opacity="1.00" d=" M 551.68 595.32 C 556.08 594.95 560.54 594.84 564.98 595.03 C 566.60 600.41 559.41 597.64 556.21 597.84 C 554.64 597.10 553.10 596.30 551.68 595.32 Z" />
<path fill="#8af6f0" opacity="1.00" d=" M 412.95 612.90 C 412.72 611.26 414.02 609.49 415.80 610.11 C 416.29 611.14 417.55 611.97 417.29 613.25 C 415.84 613.17 414.39 613.05 412.95 612.90 Z" />
<path fill="#8af6f0" opacity="1.00" d=" M 559.77 655.87 C 559.36 651.75 565.18 654.12 567.74 654.30 C 576.35 656.98 574.45 672.96 564.84 671.92 C 567.42 670.20 570.80 668.94 571.72 665.65 C 574.13 658.89 566.14 652.07 559.77 655.87 Z" />
<path fill="#8af6f0" opacity="1.00" d=" M 556.31 659.94 C 554.74 658.05 556.38 654.45 558.93 656.21 C 558.09 657.47 557.20 658.70 556.31 659.94 Z" />
<path fill="#8af6f0" opacity="1.00" d=" M 563.28 658.29 C 565.39 657.73 567.34 659.88 568.86 661.21 C 568.70 664.90 565.75 669.68 561.20 667.90 C 559.55 664.74 559.23 659.44 563.28 658.29 M 564.24 660.19 C 562.52 662.04 559.76 663.41 562.02 667.04 C 566.28 668.38 569.61 659.68 564.24 660.19 Z" />
</g>
<g id="#8af6f0ff">
<path fill="#8af6f0" opacity="1.00" d=" M 201.16 279.03 C 204.50 277.62 208.51 280.27 212.00 279.03 C 265.60 278.58 319.25 279.80 372.83 278.40 C 378.63 294.08 384.85 309.62 390.64 325.31 C 390.96 326.49 391.09 327.69 391.03 328.92 C 377.70 329.25 364.36 328.83 351.04 329.02 C 349.26 329.05 345.71 329.11 343.94 329.13 C 325.60 328.16 307.28 330.24 289.00 328.97 C 271.98 328.52 254.83 330.03 237.89 328.18 C 237.89 326.78 237.94 325.39 238.06 324.00 C 269.37 323.98 300.69 324.02 332.01 324.00 C 336.33 323.97 340.67 323.97 345.00 324.00 C 349.99 324.01 355.00 324.06 360.00 323.99 C 361.65 323.97 363.30 323.97 364.96 323.99 C 371.31 323.93 377.68 324.24 384.04 323.92 C 384.12 322.21 383.82 320.51 383.06 318.98 C 378.13 307.42 373.65 295.63 368.83 284.07 C 315.52 283.95 262.20 283.95 208.89 284.08 C 225.68 328.85 242.97 373.45 259.68 418.26 L 259.93 419.00 C 261.39 424.25 263.40 429.34 265.65 434.31 C 266.08 435.52 266.47 436.76 266.87 438.00 C 267.59 440.50 268.50 442.94 269.67 445.27 L 269.92 446.00 C 270.94 449.50 272.03 453.00 273.64 456.28 L 273.89 457.03 C 277.00 467.29 280.91 477.27 284.69 487.30 C 285.09 488.52 285.50 489.75 285.89 490.99 C 287.44 497.32 290.01 503.34 292.69 509.26 L 292.94 509.99 C 294.20 513.41 294.48 517.28 296.65 520.31 L 296.94 521.00 C 298.30 524.39 298.80 528.10 300.56 531.33 L 300.82 532.07 C 302.21 536.53 304.03 540.87 305.79 545.21 C 306.59 547.43 307.15 549.73 308.05 551.93 C 309.38 555.00 309.69 558.51 311.59 561.33 L 311.86 562.06 C 314.67 568.71 316.25 575.99 319.65 582.34 C 319.99 583.30 320.30 584.28 320.59 585.28 C 321.56 590.22 325.67 594.59 324.25 599.88 C 326.03 602.63 328.81 604.87 328.53 608.61 C 329.44 611.04 333.01 614.63 329.07 616.18 C 326.11 612.14 326.50 606.48 323.19 602.76 C 322.03 601.87 322.09 600.40 321.87 599.11 C 321.10 594.79 320.05 590.20 317.20 586.75 C 314.59 582.62 312.56 578.01 311.91 573.11 C 311.38 568.65 309.25 564.67 307.23 560.74 C 295.65 532.09 285.61 502.98 274.93 474.02 C 273.39 467.90 270.02 462.47 268.63 456.31 C 267.61 451.66 264.11 447.87 263.88 443.10 C 263.62 440.48 262.61 437.98 261.18 435.78 C 257.82 431.57 258.40 425.50 254.46 421.79 C 255.21 416.89 250.77 413.10 250.91 408.11 C 242.43 383.99 232.21 360.45 223.55 336.36 C 215.75 317.38 208.05 298.36 201.16 279.03 Z" />
<path fill="#8af6f0" opacity="1.00" d=" M 499.97 280.05 C 501.78 279.46 505.41 278.28 507.22 277.68 C 510.15 279.37 509.87 283.62 511.54 286.37 C 525.59 323.76 540.91 360.63 555.00 398.00 C 569.38 433.38 582.29 469.32 596.13 504.91 C 596.31 505.77 597.52 508.13 598.09 506.11 C 608.03 480.95 616.81 455.37 625.86 429.90 C 635.26 408.53 642.43 386.28 650.51 364.42 C 653.56 358.99 655.94 353.25 657.18 347.13 C 691.71 347.30 726.34 346.09 760.82 347.80 C 764.10 341.86 766.55 335.48 768.81 329.10 C 767.62 327.46 765.59 328.91 763.99 328.81 C 759.24 331.60 757.30 327.37 758.00 324.05 C 763.08 325.79 767.85 323.69 772.78 323.08 C 775.82 326.13 772.59 330.99 771.42 334.36 C 743.54 408.54 715.49 482.66 687.95 556.97 C 680.10 578.20 671.53 599.17 664.57 620.72 C 649.03 660.75 634.69 701.23 619.31 741.32 C 618.92 743.97 615.93 745.00 614.13 742.92 C 620.18 728.93 625.43 714.53 630.19 700.06 L 630.41 699.31 C 632.22 696.78 632.36 693.50 633.63 690.74 C 636.23 682.75 639.74 675.07 642.06 666.99 L 642.30 666.25 C 646.39 657.12 649.48 647.61 653.00 638.26 C 654.35 635.36 655.42 632.36 656.37 629.31 C 660.04 619.91 663.94 610.55 666.85 600.88 C 667.63 599.22 666.19 598.23 665.18 597.20 C 670.70 596.88 670.25 589.84 672.12 586.00 C 672.88 583.75 673.61 581.50 674.42 579.27 C 675.72 576.31 676.92 573.30 678.02 570.26 C 679.05 567.99 679.98 565.69 680.42 563.23 C 681.95 557.21 685.26 551.88 687.14 546.01 C 687.54 544.77 687.91 543.52 688.32 542.29 C 695.78 522.95 702.80 503.44 710.03 484.01 L 710.33 483.29 C 720.22 457.14 730.15 430.98 739.58 404.64 C 744.13 395.37 745.71 384.94 751.19 376.10 C 732.13 375.76 713.06 376.22 694.01 375.94 L 694.00 371.06 C 713.26 371.39 732.64 369.96 751.84 371.93 C 755.39 365.37 757.54 358.07 760.09 351.07 C 727.42 350.97 694.75 350.91 662.09 351.08 C 640.06 406.28 619.93 462.43 598.85 517.98 C 598.20 517.95 596.90 517.89 596.26 517.86 C 592.86 509.44 589.65 500.95 586.21 492.55 C 585.97 490.49 585.31 488.53 584.35 486.71 C 575.14 461.74 564.76 437.19 555.83 412.11 C 540.04 373.67 525.50 334.74 509.56 296.36 C 508.23 293.52 507.72 290.15 505.39 287.89 C 504.97 289.59 504.67 291.36 503.77 292.90 C 492.57 308.68 487.92 327.66 480.21 345.16 C 477.34 352.89 473.54 360.39 472.56 368.67 C 470.72 376.67 464.43 382.47 462.31 390.32 C 455.14 410.77 447.05 430.88 439.07 451.03 C 432.97 467.72 426.08 484.11 419.59 500.65 C 417.59 507.13 416.06 513.89 412.85 519.93 C 412.43 519.93 411.61 519.94 411.19 519.94 C 406.56 501.12 398.46 483.42 391.71 465.30 C 379.11 431.72 366.17 398.26 353.46 364.71 C 351.77 360.09 350.39 355.32 347.94 351.03 C 315.67 350.85 283.39 351.18 251.13 350.92 C 249.53 351.03 249.93 348.72 249.23 347.77 L 248.98 346.99 C 281.32 346.92 313.67 347.16 346.02 346.89 C 348.03 346.87 350.73 345.85 352.20 347.75 C 367.10 387.99 381.96 428.30 397.64 468.26 L 397.83 469.03 C 398.16 471.66 399.46 473.98 400.69 476.28 L 400.94 477.05 C 403.82 486.29 407.59 495.24 411.20 504.23 C 411.91 505.58 411.45 508.44 413.70 507.90 C 415.84 500.03 418.55 492.24 421.77 484.73 C 424.66 480.28 425.45 474.96 427.05 469.98 L 427.31 469.26 C 429.76 463.27 432.81 457.35 434.19 451.04 L 434.33 450.25 C 435.96 445.98 438.58 442.14 439.66 437.67 C 442.93 426.99 448.48 417.14 451.36 406.32 C 455.69 395.27 459.65 384.08 464.18 373.11 C 476.55 342.26 487.66 310.91 499.97 280.05 Z" />
<path fill="#8af6f0" opacity="1.00" d=" M 632.41 285.26 C 633.77 283.57 633.52 278.31 636.99 278.99 C 694.23 279.14 751.48 278.73 808.72 279.19 C 809.03 279.44 809.65 279.94 809.95 280.19 C 804.44 297.42 797.05 314.06 791.42 331.27 C 769.78 389.93 747.77 448.44 726.16 507.11 C 694.83 591.59 663.05 675.92 632.61 760.74 C 632.55 765.78 627.51 765.87 624.00 765.25 C 608.40 764.93 592.73 764.42 577.17 765.78 C 575.78 764.27 575.27 762.22 574.59 760.35 C 561.23 724.22 548.47 687.89 535.28 651.70 C 531.62 642.84 529.45 633.31 525.34 624.70 L 525.07 624.00 C 522.10 613.60 517.64 603.71 514.60 593.32 C 510.61 583.51 507.69 572.99 502.34 563.88 C 499.47 576.84 493.48 588.78 489.32 601.32 C 486.27 609.73 483.58 618.30 479.21 626.15 C 476.75 636.32 470.49 645.20 468.53 655.62 C 467.78 659.33 464.91 662.03 462.95 665.14 C 463.64 660.27 466.36 655.92 467.11 651.04 L 467.35 650.31 C 473.08 640.17 475.33 628.56 479.87 617.90 C 482.74 607.74 487.66 598.28 490.10 587.99 C 491.05 585.05 492.32 582.23 493.43 579.36 C 494.99 577.17 495.35 574.46 496.05 571.94 C 497.88 566.07 500.33 560.45 502.84 554.85 C 503.41 553.81 504.03 553.94 504.73 555.22 C 508.15 569.08 515.06 581.77 518.58 595.59 C 537.94 645.71 555.49 696.51 574.16 746.89 C 576.12 751.54 576.96 756.91 580.22 760.87 C 596.06 761.01 611.94 761.25 627.77 760.83 C 628.73 758.61 629.40 756.29 630.13 753.99 C 633.31 746.60 635.25 738.76 638.43 731.36 C 639.99 729.17 640.35 726.46 641.05 723.94 C 651.01 697.27 660.39 670.29 670.67 643.69 C 672.87 638.33 674.64 632.83 676.35 627.30 C 677.74 624.25 679.04 621.14 680.07 617.95 C 683.76 607.37 687.94 596.96 691.36 586.30 C 692.37 584.24 693.43 582.20 694.16 580.02 C 700.31 560.73 708.91 542.30 714.99 523.00 C 717.99 515.51 721.07 508.04 723.35 500.29 C 724.92 497.33 726.24 494.24 727.15 491.01 C 728.24 487.78 729.29 484.54 730.34 481.30 C 733.44 474.74 736.04 467.95 738.12 461.00 C 739.62 455.18 743.20 450.13 744.42 444.25 C 746.23 439.18 748.11 434.15 750.12 429.16 C 751.66 424.90 753.52 420.73 754.35 416.27 C 758.14 410.17 759.69 402.96 761.96 396.23 L 762.19 395.32 C 764.38 392.63 765.50 389.21 766.11 385.84 L 766.39 385.04 C 772.30 367.58 779.14 350.47 785.10 333.04 C 786.56 326.74 790.11 321.21 792.05 315.08 C 794.09 305.59 799.26 297.22 801.96 287.97 C 803.53 282.93 795.29 284.74 793.02 284.02 C 743.68 284.39 694.27 283.00 644.99 285.05 C 641.44 283.10 639.57 285.74 637.80 287.78 C 633.25 297.23 630.28 307.41 626.04 317.02 C 625.16 319.25 624.02 321.48 623.92 323.94 C 649.61 324.10 675.31 323.95 701.00 324.00 C 705.98 324.00 711.02 323.94 716.02 323.97 C 720.31 322.61 724.27 324.49 723.00 328.95 C 687.64 329.03 652.28 329.06 616.92 328.93 C 619.27 320.84 623.14 313.26 625.11 305.04 C 626.81 298.19 630.54 292.07 632.41 285.26 Z" />
<path fill="#8af6f0" opacity="1.00" d=" M 226.20 301.21 C 231.14 302.33 236.25 302.18 241.22 301.20 C 245.80 300.93 250.39 301.06 254.99 301.00 C 285.34 300.76 315.67 301.06 346.00 302.07 C 347.31 305.90 346.32 307.57 343.00 307.09 C 330.36 306.68 317.74 305.37 305.10 306.61 C 286.43 305.34 267.70 306.30 249.00 305.98 C 242.25 306.29 235.21 304.96 228.74 307.42 C 225.24 307.59 223.40 303.34 226.20 301.21 Z" />
<path fill="#8af6f0" opacity="1.00" d=" M 666.03 302.03 C 704.34 301.98 742.66 301.98 780.97 302.03 C 781.04 303.34 781.04 304.65 780.97 305.97 C 742.66 306.02 704.34 306.02 666.03 305.97 C 665.95 304.65 665.95 303.34 666.03 302.03 Z" />
<path fill="#8af6f0" opacity="1.00" d=" M 197.00 319.03 C 198.32 318.95 199.64 318.95 200.96 319.03 C 201.06 320.69 201.06 322.35 200.96 324.02 C 197.62 324.97 196.30 321.79 197.00 319.03 Z" />
<path fill="#8af6f0" opacity="1.00" d=" M 513.98 350.95 C 518.73 350.44 519.06 356.93 521.16 359.93 L 520.56 360.53 C 519.45 360.67 518.34 360.76 517.23 360.81 C 515.90 357.61 514.79 354.31 513.98 350.95 Z" />
<path fill="#8af6f0" opacity="1.00" d=" M 490.09 356.16 C 491.50 354.77 492.75 351.99 494.96 353.85 C 493.92 357.92 493.09 362.26 490.81 365.87 C 490.16 365.93 488.85 366.05 488.20 366.10 C 488.85 362.78 489.78 359.53 490.09 356.16 Z" />
<path fill="#8af6f0" opacity="1.00" d=" M 482.35 368.53 C 483.76 368.38 486.60 368.08 488.02 367.93 C 486.49 370.49 480.55 368.78 477.98 370.07 C 478.01 368.15 481.02 369.17 482.35 368.53 Z" />
<path fill="#8af6f0" opacity="1.00" d=" M 515.89 369.72 C 517.51 366.84 521.15 368.09 524.02 367.82 C 524.34 371.84 526.55 375.35 527.82 379.11 C 548.90 436.72 571.88 493.60 592.62 551.34 C 594.42 556.56 597.63 561.39 598.06 567.01 C 595.83 567.55 594.15 566.43 593.72 564.22 C 586.69 545.35 579.69 526.46 572.35 507.72 L 572.09 506.99 C 571.11 503.47 569.62 500.13 568.31 496.74 L 568.08 496.00 C 567.28 492.74 565.61 489.82 564.30 486.76 L 564.10 486.01 C 562.09 480.17 560.65 473.99 557.38 468.68 L 557.12 467.95 C 554.56 460.09 551.81 452.14 548.33 444.70 L 548.05 444.00 C 547.22 441.54 547.28 438.59 545.21 436.75 C 540.09 428.00 538.37 417.56 533.48 408.64 C 531.81 401.16 527.64 394.53 526.05 387.03 C 525.87 381.16 518.11 384.98 514.74 384.74 C 512.89 385.04 511.00 385.08 509.17 384.75 C 503.58 383.67 497.87 383.90 492.23 384.09 C 489.39 384.63 484.99 383.56 482.99 386.05 C 478.70 397.34 474.01 408.54 470.08 419.95 C 469.54 424.07 468.48 428.52 465.90 431.83 C 463.80 434.51 462.68 437.79 462.02 441.09 C 460.61 447.64 458.12 454.05 455.04 460.00 C 453.58 462.12 452.49 464.56 452.09 467.11 C 451.60 469.06 451.60 471.63 450.01 473.01 C 447.25 474.21 447.72 477.65 447.44 480.17 C 445.00 488.32 441.66 496.35 438.02 504.01 C 435.89 506.09 435.28 509.15 434.99 512.00 C 433.01 519.42 429.54 526.57 426.74 533.73 C 425.34 536.30 424.02 539.07 424.03 542.06 C 423.75 546.96 420.56 551.23 418.83 555.79 C 417.32 557.96 416.46 560.50 416.09 563.11 C 415.89 564.74 415.46 566.34 414.87 567.88 C 410.21 567.46 411.25 561.31 413.50 558.60 C 414.99 551.60 417.87 544.99 420.27 538.28 C 421.67 535.22 423.47 532.29 424.17 528.97 C 425.88 524.08 427.25 519.06 429.29 514.29 C 431.65 510.24 433.00 505.73 434.37 501.27 C 441.42 480.72 450.18 460.81 457.38 440.31 C 458.48 437.95 459.35 435.50 460.15 433.03 C 463.12 425.93 466.25 418.67 468.44 411.23 C 469.67 408.15 471.41 405.25 472.13 401.99 C 473.97 396.96 475.90 391.96 477.84 386.97 C 477.61 386.64 477.16 386.00 476.94 385.67 C 475.57 384.13 474.47 382.32 475.04 380.18 C 477.41 379.78 479.80 379.43 482.21 379.14 L 483.12 379.04 C 495.98 381.04 509.10 379.55 522.06 380.06 C 521.83 379.74 521.36 379.12 521.13 378.80 C 521.06 377.23 521.05 375.67 520.99 374.10 C 521.96 370.60 518.66 369.65 515.89 369.72 Z" />
<path fill="#8af6f0" opacity="1.00" d=" M 258.00 375.95 C 254.33 369.34 259.17 371.16 261.75 371.27 C 265.24 371.98 268.75 371.99 272.26 371.30 C 283.50 370.67 294.77 371.13 306.03 370.95 C 308.66 370.56 310.54 371.44 310.76 374.25 C 310.84 374.68 311.00 375.53 311.09 375.96 C 308.39 375.93 305.70 375.93 303.02 375.96 C 300.29 375.57 297.78 375.99 299.53 379.13 C 299.92 380.43 300.39 381.73 300.77 383.05 C 301.29 385.39 302.24 387.60 303.11 389.83 C 306.78 399.26 309.69 409.00 313.66 418.31 C 315.80 423.84 317.92 429.39 319.88 435.00 C 320.94 438.50 322.05 442.00 323.64 445.31 C 325.09 450.32 327.10 455.14 328.91 460.02 C 330.97 466.81 332.80 473.71 335.80 480.16 C 337.11 482.78 333.90 483.45 331.98 483.25 C 330.79 480.26 329.83 477.19 328.97 474.10 C 327.79 470.64 327.69 466.59 325.24 463.73 C 322.90 460.27 321.46 456.27 320.91 452.11 C 320.37 449.55 320.16 446.72 318.32 444.70 L 318.07 443.99 C 316.94 439.42 315.15 435.05 313.32 430.73 L 313.08 430.00 C 311.84 425.78 310.26 421.64 308.25 417.74 C 306.28 413.75 304.40 409.56 303.89 405.11 C 303.57 402.49 302.67 399.96 301.16 397.79 C 298.10 391.17 295.26 384.23 293.93 377.01 L 293.77 376.08 C 282.84 375.87 271.92 376.00 260.99 376.02 C 260.25 376.00 258.75 375.97 258.00 375.95 Z" />
<path fill="#8af6f0" opacity="1.00" d=" M 318.14 373.90 C 317.23 372.12 319.93 369.76 320.75 372.25 C 330.81 396.45 339.08 421.36 347.93 446.02 C 348.75 448.48 348.92 451.25 350.65 453.31 L 350.92 454.01 C 351.76 456.80 352.65 459.57 353.65 462.31 C 354.23 464.27 355.16 466.10 355.77 468.05 C 356.88 472.97 359.01 477.57 360.85 482.24 L 361.14 482.97 C 362.06 484.59 360.96 486.02 360.11 487.40 C 359.22 485.79 358.40 484.15 357.20 482.76 C 354.40 478.40 352.84 473.16 351.87 468.11 C 350.51 462.87 349.66 457.01 346.18 452.77 C 344.96 451.90 345.11 450.38 345.02 449.07 C 344.85 443.41 341.22 438.65 339.68 433.33 C 339.04 431.38 338.79 429.22 337.24 427.73 C 335.45 424.78 333.45 421.69 333.97 418.07 C 333.05 412.12 329.75 406.76 328.07 400.98 C 325.29 391.76 321.13 383.03 318.14 373.90 Z" />
<path fill="#8af6f0" opacity="1.00" d=" M 484.03 371.02 C 485.36 370.95 486.69 370.95 488.04 371.04 C 488.48 373.67 485.84 375.29 485.73 377.86 C 481.81 379.33 484.34 373.39 484.03 371.02 Z" />
<path fill="#8af6f0" opacity="1.00" d=" M 264.97 384.91 C 266.32 384.98 267.63 385.37 268.88 385.92 L 269.09 386.84 C 269.80 390.15 271.27 393.23 272.64 396.30 C 273.79 400.32 275.48 404.13 277.02 408.00 C 278.27 411.76 279.23 415.61 280.65 419.31 C 281.22 421.27 282.12 423.11 282.86 425.01 C 283.97 428.49 285.05 432.00 286.62 435.31 C 287.31 437.29 287.93 439.29 288.73 441.23 C 291.90 449.51 294.29 458.07 297.79 466.23 L 298.05 466.91 C 299.94 473.15 302.21 479.27 304.77 485.27 C 305.16 486.18 305.52 487.10 305.84 488.04 C 313.82 511.53 321.71 535.01 330.83 558.09 C 330.79 559.83 330.08 561.47 329.69 563.16 C 322.77 546.47 316.75 529.34 310.57 512.36 C 308.90 508.93 309.20 504.40 306.20 501.75 C 305.00 500.89 305.12 499.39 304.90 498.11 C 304.58 495.49 303.52 493.05 302.32 490.73 L 302.07 490.01 C 301.29 486.41 300.03 482.97 298.11 479.82 C 291.14 463.92 286.57 447.06 279.94 431.03 C 275.88 424.08 275.64 415.86 271.45 408.68 C 270.63 403.53 267.28 399.37 266.89 394.11 C 266.37 391.02 264.80 388.12 264.97 384.91 Z" />
<path fill="#8af6f0" opacity="1.00" d=" M 499.26 416.25 C 505.41 415.40 512.05 416.47 517.58 419.36 C 524.59 425.13 532.11 432.14 532.29 441.93 C 533.60 449.37 530.43 456.20 525.73 461.73 C 525.32 461.85 524.50 462.08 524.09 462.20 C 525.23 460.16 526.43 458.15 527.10 455.90 C 527.58 454.71 528.01 453.49 528.27 452.24 C 528.85 446.66 530.68 440.01 526.86 435.17 C 524.61 430.71 521.80 425.78 516.83 424.03 C 510.35 421.32 503.04 420.03 496.24 422.24 C 489.34 424.07 482.38 429.13 480.28 436.29 C 475.60 445.45 478.69 457.49 485.92 464.22 C 490.64 468.41 496.32 472.47 503.01 472.02 C 510.79 472.92 517.86 468.29 523.48 463.49 C 524.28 464.28 526.81 464.15 525.67 465.73 C 523.12 469.27 519.16 471.15 515.80 473.76 L 515.00 473.92 C 512.53 474.32 510.11 474.96 507.72 475.69 C 501.22 476.36 493.64 476.08 488.25 471.83 C 484.62 467.73 480.93 463.69 477.31 459.62 C 472.26 452.07 473.19 441.21 477.19 433.24 C 480.31 428.44 483.12 423.11 488.45 420.42 C 488.90 420.15 489.79 419.61 490.24 419.33 C 493.25 418.32 496.20 417.14 499.26 416.25 Z" />
<path fill="#8af6f0" opacity="1.00" d=" M 679.17 427.05 C 684.19 427.00 681.56 433.15 678.91 434.89 C 682.84 435.44 687.18 434.47 690.94 436.17 C 691.97 443.00 681.90 438.92 678.31 440.23 C 672.33 453.75 667.93 467.94 662.57 481.72 C 648.34 518.53 634.58 555.51 620.37 592.33 C 619.65 593.97 619.65 596.92 622.06 596.94 C 636.11 597.26 650.19 596.72 664.26 597.12 C 661.46 601.35 655.05 597.80 651.00 599.21 C 632.38 601.10 613.67 599.00 595.01 600.06 C 589.85 597.11 590.33 602.14 588.11 604.06 C 586.04 600.27 584.55 596.18 583.19 592.10 C 585.88 588.96 587.24 593.76 588.37 595.73 C 596.83 596.21 605.34 596.50 613.83 596.98 C 617.42 588.08 620.47 578.91 624.12 570.00 C 624.92 567.81 625.58 565.58 626.33 563.38 C 628.60 558.38 630.58 553.26 632.11 547.99 C 632.50 546.77 632.86 545.54 633.25 544.34 C 640.09 529.02 645.62 513.10 651.31 497.32 C 658.26 480.17 664.20 462.62 671.56 445.64 C 674.27 439.52 675.57 432.74 679.17 427.05 Z" />
<path fill="#8af6f0" opacity="1.00" d=" M 450.98 485.97 C 462.99 486.82 475.02 484.58 487.00 485.76 C 503.74 485.95 520.57 486.69 537.26 485.29 C 540.91 484.40 544.53 485.30 548.09 486.03 C 556.03 510.23 566.41 533.65 574.05 557.98 C 576.95 566.82 582.29 575.04 582.70 584.57 C 583.16 586.42 583.82 588.23 584.05 590.14 C 579.16 587.40 580.52 580.71 577.38 576.68 L 577.09 575.99 C 575.37 571.96 574.51 567.53 572.13 563.82 C 571.22 562.77 571.04 561.40 570.99 560.09 C 570.54 554.81 567.47 550.18 565.80 545.26 C 563.55 538.27 560.32 531.63 558.50 524.50 C 558.21 524.28 557.63 523.84 557.33 523.61 C 555.84 523.03 556.10 521.39 555.86 520.11 C 554.08 510.25 549.15 501.32 546.14 491.84 C 545.37 490.55 544.93 488.57 542.99 489.02 C 510.94 488.89 478.89 489.15 446.84 488.92 C 446.76 486.55 448.91 485.56 450.98 485.97 Z" />
<path fill="#8af6f0" opacity="1.00" d=" M 360.99 489.88 C 363.67 490.74 365.88 495.65 362.13 496.31 C 361.75 494.16 361.22 492.04 360.99 489.88 Z" />
<path fill="#8af6f0" opacity="1.00" d=" M 455.19 506.05 C 455.71 506.06 456.74 506.08 457.26 506.10 C 457.69 507.62 457.96 509.19 458.19 510.77 C 458.71 513.75 456.63 515.88 455.35 518.29 C 453.27 524.96 451.49 531.75 447.86 537.80 C 445.80 540.88 444.88 544.54 444.04 548.10 C 441.59 558.48 436.90 568.15 433.04 578.01 C 429.54 582.40 428.46 588.21 426.55 593.40 C 427.50 601.67 417.52 598.40 412.99 599.03 C 404.32 598.08 395.66 598.25 387.00 598.84 C 376.08 599.64 365.19 598.31 354.30 597.78 C 353.93 597.36 353.19 596.52 352.82 596.10 C 367.87 596.11 383.00 595.28 397.99 596.84 C 398.14 594.88 396.22 592.21 397.68 590.73 C 399.31 588.86 399.81 592.24 400.74 593.21 C 401.38 594.49 402.10 595.78 403.20 596.76 C 409.37 596.18 415.58 596.09 421.79 595.83 C 422.30 594.56 422.72 593.27 423.10 591.97 C 430.27 572.78 436.79 553.34 444.45 534.34 C 448.57 525.11 450.78 515.11 455.19 506.05 Z" />
<path fill="#8af6f0" opacity="1.00" d=" M 462.58 508.35 C 463.69 505.71 465.83 504.92 469.00 506.00 C 480.09 506.10 491.20 505.76 502.30 506.10 C 502.84 507.97 502.98 509.91 503.15 511.84 C 501.20 516.81 498.50 521.69 498.05 527.09 C 498.22 529.31 497.60 531.33 495.91 532.83 C 490.07 546.65 484.55 560.70 479.92 575.00 L 479.67 575.73 C 473.80 586.52 471.86 598.80 467.01 610.00 C 461.46 621.00 459.23 633.39 453.15 644.08 C 451.26 647.60 452.89 654.02 447.93 655.04 C 449.38 642.80 457.45 632.28 459.05 620.00 C 449.17 622.13 438.99 620.80 429.03 620.15 C 424.83 619.31 417.76 623.73 414.85 619.17 C 429.77 617.37 444.81 618.26 459.81 617.90 C 463.15 612.84 464.02 606.59 466.13 600.97 L 466.39 600.19 C 467.09 598.22 467.75 596.24 468.39 594.26 C 472.17 586.52 474.03 578.07 477.36 570.16 C 478.01 568.55 478.56 566.90 479.10 565.25 C 480.87 560.62 482.36 555.88 484.37 551.35 C 486.05 549.22 486.33 546.46 487.05 543.94 C 488.59 538.97 490.79 534.26 492.33 529.30 C 493.21 526.85 494.24 524.45 495.15 522.01 C 497.20 518.32 496.69 513.99 497.99 510.06 L 497.02 510.01 C 486.67 509.84 476.33 510.16 465.98 510.00 C 464.59 510.16 463.62 509.03 462.58 508.35 Z" />
<path fill="#8af6f0" opacity="1.00" d=" M 331.93 569.92 C 333.50 571.06 337.66 574.93 334.25 575.94 C 333.44 573.94 332.31 572.06 331.93 569.92 Z" />
<path fill="#8af6f0" opacity="1.00" d=" M 338.93 587.98 C 342.99 587.70 343.38 593.18 345.26 595.73 C 347.91 595.68 351.01 596.68 350.01 600.00 C 347.42 598.44 346.47 600.15 345.08 602.03 C 341.87 597.78 340.89 592.69 338.93 587.98 Z" />
<path fill="#8af6f0" opacity="1.00" d=" M 589.98 611.98 C 591.68 612.11 594.41 611.28 594.23 613.90 C 598.42 624.49 603.05 634.97 606.05 646.00 C 605.33 645.97 603.91 645.91 603.20 645.87 C 599.12 634.46 595.52 622.70 589.98 611.98 Z" />
<path fill="#8af6f0" opacity="1.00" d=" M 348.00 612.94 C 351.43 612.24 351.85 616.33 354.25 617.82 C 367.80 618.21 381.41 617.64 394.92 618.79 C 398.60 619.03 404.92 615.45 407.06 619.83 C 396.21 622.15 384.99 620.50 374.00 621.03 C 367.13 621.99 359.24 617.94 353.26 622.82 C 351.48 619.53 349.57 616.32 348.00 612.94 Z" />
<path fill="#8af6f0" opacity="1.00" d=" M 332.15 625.95 C 332.27 623.35 328.03 618.18 332.66 618.04 C 333.39 622.50 336.23 626.48 334.97 631.26 C 334.08 629.74 333.29 628.18 332.35 626.71 L 332.15 625.95 Z" />
<path fill="#8af6f0" opacity="1.00" d=" M 335.15 632.87 C 340.11 632.31 339.91 638.70 339.62 642.13 C 338.43 641.84 337.83 640.79 337.16 639.88 L 337.02 639.05 C 336.87 636.86 335.92 634.88 335.15 632.87 Z" />
<path fill="#8af6f0" opacity="1.00" d=" M 408.24 638.20 C 410.19 637.48 412.14 638.42 413.90 639.23 C 415.73 642.34 413.17 648.11 409.21 646.86 C 406.64 644.72 404.30 640.26 408.24 638.20 Z" />
<path fill="#8af6f0" opacity="1.00" d=" M 559.77 655.87 C 566.14 652.07 574.13 658.89 571.72 665.65 C 570.80 668.94 567.42 670.20 564.84 671.92 C 563.20 673.65 561.10 672.19 559.27 671.68 C 555.48 669.12 555.44 663.98 556.31 659.94 C 557.20 658.70 558.09 657.47 558.93 656.21 L 559.77 655.87 M 563.28 658.29 C 559.23 659.44 559.55 664.74 561.20 667.90 C 565.75 669.68 568.70 664.90 568.86 661.21 C 567.34 659.88 565.39 657.73 563.28 658.29 Z" />
<path fill="#8af6f0" opacity="1.00" d=" M 349.20 665.34 C 350.65 665.12 350.63 669.42 351.05 671.02 C 348.36 671.73 346.77 666.44 349.20 665.34 Z" />
<path fill="#8af6f0" opacity="1.00" d=" M 460.05 668.98 C 463.89 665.56 463.29 675.87 459.12 675.10 C 459.36 673.35 459.73 671.62 459.92 669.88 L 460.05 668.98 Z" />
<path fill="#8af6f0" opacity="1.00" d=" M 350.95 672.98 C 354.48 672.21 354.17 677.48 355.62 679.20 C 364.08 702.80 372.60 726.31 381.43 749.77 C 383.53 753.69 383.70 758.80 387.23 761.86 C 399.16 761.97 411.02 760.32 422.99 761.00 C 430.47 765.61 426.24 755.23 430.95 755.98 C 430.24 758.93 431.16 762.68 428.79 764.88 C 413.60 765.08 398.39 765.10 383.21 764.88 C 376.85 748.00 370.70 731.07 365.13 713.92 C 360.03 700.41 354.60 686.95 350.95 672.98 Z" />
<path fill="#8af6f0" opacity="1.00" d=" M 444.30 714.19 C 444.66 714.12 445.37 713.99 445.73 713.92 C 446.20 718.58 445.54 724.57 440.98 727.11 C 441.20 722.61 442.89 718.40 444.30 714.19 Z" />
<path fill="#8af6f0" opacity="1.00" d=" M 394.34 740.53 C 399.28 741.35 407.80 736.82 411.14 741.89 C 403.49 743.76 395.74 741.19 388.00 741.98 L 388.05 741.08 C 389.62 740.94 392.77 740.67 394.34 740.53 Z" />
<path fill="#8af6f0" opacity="1.00" d=" M 436.13 740.06 C 439.95 741.27 436.06 746.78 433.96 748.09 C 434.44 745.39 434.54 742.37 436.13 740.06 Z" />
</g>
</svg>
