<?xml version="1.0" encoding="UTF-8" ?>
<!DOCTYPE svg PUBLIC "-//W3C//DTD SVG 1.1//EN" "http://www.w3.org/Graphics/SVG/1.1/DTD/svg11.dtd">
<svg width="1024pt" height="1024pt" viewBox="0 0 1024 1024" version="1.1" xmlns="http://www.w3.org/2000/svg">
<g id="#021c36ff">
</g>
<g id="#f80372ff">
<path fill="#f80372" opacity="1.00" d=" M 165.32 188.43 C 172.21 188.32 179.11 188.46 186.00 188.80 C 193.69 190.02 201.52 188.99 209.21 190.12 C 215.45 190.62 221.76 190.15 227.95 191.27 C 241.32 191.52 254.63 192.73 268.02 192.58 C 279.96 193.94 292.03 193.22 304.02 193.85 C 309.79 194.77 315.65 193.99 321.43 194.60 C 323.61 197.61 323.47 201.66 324.81 205.06 C 325.68 211.89 329.18 218.28 328.67 225.27 C 320.82 231.37 312.72 237.69 307.38 246.25 C 301.72 254.17 297.25 262.91 293.34 271.81 C 292.47 271.70 291.61 271.60 290.75 271.49 C 288.07 263.72 286.15 255.70 284.29 247.70 C 283.86 246.48 283.81 245.03 282.93 244.03 C 280.38 243.07 277.63 242.77 275.07 241.82 C 273.32 241.31 271.58 240.77 269.82 240.28 C 267.18 239.00 264.42 237.97 261.54 237.36 L 261.38 236.71 C 258.47 235.83 255.61 234.64 252.55 234.38 L 252.42 233.35 C 251.70 233.44 250.27 233.60 249.55 233.68 L 249.46 232.28 C 249.05 232.37 248.23 232.57 247.81 232.66 C 246.92 231.96 246.02 231.26 245.13 230.56 C 244.61 230.51 243.57 230.40 243.05 230.35 C 241.45 229.66 239.78 229.17 238.12 228.70 C 236.60 228.22 235.09 227.74 233.57 227.29 L 233.42 226.31 C 232.76 226.38 231.44 226.52 230.78 226.59 C 229.90 225.85 229.02 225.11 228.14 224.38 C 226.88 224.45 225.63 224.53 224.37 224.62 C 224.07 224.09 223.45 223.03 223.14 222.50 C 221.94 222.50 220.75 222.50 219.56 222.51 L 219.42 221.35 C 218.94 221.41 217.99 221.54 217.51 221.60 L 217.44 220.55 C 215.82 220.09 214.20 219.65 212.56 219.32 L 212.41 218.34 C 211.09 218.42 209.77 218.50 208.46 218.58 C 208.47 218.10 208.51 217.13 208.52 216.65 C 205.48 216.50 202.73 215.20 200.11 213.76 C 198.40 213.21 196.73 212.53 195.14 211.70 C 193.39 211.13 191.63 210.63 189.84 210.23 C 184.66 207.42 178.02 206.92 174.33 201.90 C 173.01 201.75 171.68 201.67 170.36 201.67 C 170.18 200.06 170.01 198.46 169.70 196.87 C 169.55 198.78 169.75 200.70 170.21 202.56 C 171.61 202.39 173.02 202.22 174.43 202.07 C 175.04 202.98 175.65 203.90 176.25 204.83 C 174.09 204.31 171.94 203.73 169.76 203.25 C 168.66 200.26 168.13 197.09 166.79 194.19 C 166.30 192.27 165.81 190.35 165.32 188.43 M 208.27 202.38 C 209.40 202.81 210.56 203.19 211.72 203.59 C 215.25 203.00 218.58 204.61 221.84 205.72 C 226.67 207.64 231.84 208.46 236.73 210.21 C 239.43 211.06 242.06 212.41 244.96 212.34 C 266.90 212.45 288.85 212.62 310.79 212.70 C 310.51 209.95 309.87 207.28 309.09 204.64 C 295.39 204.70 281.69 204.23 267.98 204.26 C 251.99 203.58 235.97 203.02 219.96 203.43 C 216.02 203.53 212.23 201.70 208.27 202.38 Z" />
<path fill="#f80372" opacity="1.00" d=" M 819.98 189.69 C 833.94 189.76 847.81 187.95 861.78 188.39 C 861.18 192.85 860.39 198.11 856.01 200.46 C 850.47 201.74 845.54 204.92 840.16 206.77 C 837.58 207.58 835.39 209.20 833.07 210.51 C 832.44 210.59 831.16 210.73 830.53 210.81 C 826.78 214.51 821.22 215.04 817.07 218.14 C 810.70 220.94 804.60 224.35 798.13 226.88 C 797.88 227.25 797.40 227.97 797.16 228.34 C 796.48 228.46 795.13 228.69 794.45 228.81 C 793.21 229.81 791.88 230.71 790.54 231.56 C 790.07 231.63 789.14 231.76 788.67 231.83 C 786.69 234.13 783.62 234.69 781.15 236.26 C 770.66 242.54 758.94 246.47 748.66 253.13 C 745.36 254.71 741.79 255.78 738.89 258.09 C 736.77 259.89 733.52 259.96 732.00 262.47 C 730.22 262.61 728.45 262.72 726.67 262.81 C 726.60 263.65 726.55 264.50 726.50 265.35 C 725.29 265.79 724.10 266.27 722.88 266.67 C 721.35 267.30 719.83 268.02 718.43 268.89 C 720.91 268.89 720.30 271.26 720.72 272.70 C 719.53 272.45 718.34 272.20 717.16 271.94 C 720.18 264.15 721.31 255.84 723.89 247.94 C 724.06 248.70 724.41 250.22 724.59 250.98 C 736.98 244.09 748.56 235.86 761.03 229.12 C 757.15 230.97 753.44 233.20 749.46 234.85 C 740.54 238.38 732.12 243.04 723.89 247.94 C 724.86 243.64 726.02 239.38 727.43 235.21 C 729.52 228.07 730.99 220.78 732.81 213.57 C 748.51 212.47 764.26 212.24 780.01 212.34 C 789.48 212.94 796.78 205.86 805.44 203.30 C 806.89 204.92 809.03 204.40 810.65 203.36 C 811.27 201.95 808.88 202.21 808.16 202.31 C 801.86 203.95 795.34 203.02 788.93 203.30 C 781.97 203.55 775.00 203.50 768.05 203.75 C 754.07 205.01 739.94 203.70 726.01 205.40 C 725.30 212.04 720.64 217.42 719.83 224.03 C 718.82 230.55 718.49 237.35 715.38 243.31 C 711.48 250.98 711.96 259.82 709.75 267.96 C 708.58 273.83 705.02 278.93 704.20 284.89 C 703.09 291.98 702.07 299.22 698.83 305.72 C 697.57 309.72 696.58 313.81 696.13 317.99 C 695.10 326.04 692.15 333.68 691.03 341.71 C 693.13 341.27 695.24 340.81 697.35 340.37 C 699.02 337.16 700.27 333.75 701.16 330.25 C 702.55 324.66 704.62 319.26 705.77 313.61 C 707.59 304.92 711.05 296.69 713.20 288.09 C 714.53 283.48 715.35 278.73 716.80 274.15 L 720.02 274.88 C 715.85 273.23 718.05 278.64 717.28 280.64 C 718.46 280.63 719.65 280.62 720.84 280.62 C 720.70 280.09 720.41 279.03 720.27 278.50 C 722.16 278.50 724.08 278.68 725.96 278.33 C 728.22 277.19 729.86 275.20 731.60 273.43 C 732.34 273.51 733.82 273.67 734.57 273.76 C 734.87 273.18 735.48 272.02 735.79 271.44 C 736.19 271.50 737.00 271.61 737.40 271.67 L 737.60 270.79 C 739.63 270.27 741.25 268.94 742.67 267.44 C 743.36 267.51 744.75 267.63 745.44 267.69 L 745.55 266.42 C 745.93 266.44 746.70 266.49 747.09 266.51 C 749.09 265.25 751.09 263.99 752.96 262.54 C 753.34 262.57 754.11 262.64 754.49 262.67 L 754.56 261.33 C 755.30 261.43 756.78 261.62 757.52 261.72 L 757.52 260.35 C 758.17 260.41 759.46 260.54 760.10 260.60 C 761.17 259.40 762.54 258.60 764.11 258.24 C 766.98 256.92 770.04 256.15 773.08 255.30 C 774.97 253.94 776.97 252.73 778.96 251.52 C 779.51 251.51 780.62 251.47 781.17 251.45 C 795.01 245.38 808.63 238.76 822.44 232.60 C 826.67 230.80 830.63 227.78 835.49 228.29 C 836.71 230.83 836.52 233.59 835.24 236.07 C 833.63 237.13 832.08 238.28 830.39 239.21 C 807.63 249.96 785.18 261.36 762.82 272.88 C 759.61 279.23 759.08 286.45 757.28 293.25 C 756.59 294.59 755.90 295.94 755.23 297.30 C 754.69 297.52 753.61 297.96 753.07 298.18 C 748.15 301.07 743.12 303.72 738.03 306.28 C 736.53 306.65 734.69 306.65 734.17 308.44 C 733.48 308.53 732.11 308.71 731.42 308.79 C 730.07 310.02 728.68 311.21 727.25 312.34 C 725.00 312.81 722.32 313.14 721.11 315.38 C 720.40 315.54 718.98 315.86 718.26 316.02 C 716.16 316.95 714.03 317.82 711.95 318.80 C 713.26 318.41 714.55 317.96 715.86 317.52 C 715.77 317.97 715.59 318.87 715.50 319.33 C 713.94 319.71 712.41 320.16 710.90 320.64 C 710.28 320.92 709.03 321.48 708.40 321.76 C 708.45 322.48 708.54 323.92 708.59 324.63 C 707.20 324.51 705.83 324.38 704.46 324.26 C 703.49 326.65 703.38 329.23 703.22 331.77 C 705.59 331.70 707.95 331.35 710.12 330.35 C 714.05 327.69 718.51 325.99 722.57 323.54 C 728.31 320.71 734.64 318.84 739.71 314.80 C 743.89 313.62 747.30 310.78 751.38 309.37 C 751.64 309.04 752.16 308.37 752.42 308.04 C 752.39 310.80 752.35 313.57 752.36 316.33 C 750.66 320.09 747.49 322.78 743.80 324.46 C 740.14 326.21 736.74 328.60 732.81 329.70 C 731.98 330.23 731.15 330.76 730.34 331.31 C 728.29 332.27 726.28 333.33 724.33 334.47 C 723.73 334.48 722.53 334.50 721.93 334.51 C 721.01 335.09 720.09 335.66 719.17 336.22 C 714.82 338.30 711.60 342.38 706.79 343.71 C 705.54 344.60 704.31 345.51 703.11 346.46 C 702.47 346.50 701.19 346.57 700.55 346.61 C 698.42 350.02 694.32 350.60 690.77 351.65 C 686.93 353.94 683.17 356.39 679.16 358.37 C 677.63 358.56 676.16 359.02 675.03 360.11 C 672.87 361.30 670.69 362.47 668.62 363.81 C 668.22 360.73 668.58 357.66 669.60 354.74 C 673.07 338.38 677.47 322.26 681.38 306.00 C 683.07 296.21 686.10 286.72 688.45 277.08 C 691.26 264.28 694.90 251.70 697.65 238.89 C 699.35 230.52 702.01 222.39 703.72 214.03 C 705.12 207.51 706.20 200.86 708.82 194.68 C 713.90 194.50 718.97 194.42 724.05 194.27 C 735.66 193.01 747.37 193.95 759.00 193.15 C 767.28 192.00 775.68 192.77 783.98 191.85 C 789.66 191.34 795.38 191.65 801.06 191.19 C 807.33 190.20 813.70 190.57 819.98 189.69 M 736.22 223.62 C 734.09 224.52 732.32 226.03 730.49 227.40 C 730.44 228.53 730.40 229.66 730.36 230.79 C 730.85 230.65 731.82 230.35 732.31 230.20 C 732.38 229.60 732.52 228.42 732.59 227.82 C 733.15 227.54 734.26 226.98 734.82 226.69 C 740.74 224.09 746.40 220.86 751.93 217.50 C 746.60 219.30 741.52 221.73 736.22 223.62 Z" />
<path fill="#f80372" opacity="1.00" d=" M 677.51 204.37 C 679.46 204.37 681.41 204.37 683.38 204.37 C 684.54 206.07 686.21 207.75 686.17 209.96 C 685.93 214.03 684.67 217.94 683.68 221.88 C 675.96 253.29 668.30 284.72 659.86 315.94 C 658.55 322.15 656.59 328.20 655.33 334.41 C 653.82 336.27 652.12 337.96 650.33 339.56 C 649.17 339.52 648.03 339.50 646.89 339.48 C 645.86 338.65 644.83 337.84 643.81 337.03 C 643.41 336.05 643.02 335.06 642.64 334.09 C 647.31 313.97 652.90 294.07 657.88 274.03 C 662.53 256.60 666.90 239.10 671.24 221.59 C 672.81 215.76 672.70 208.68 677.51 204.37 Z" />
<path fill="#f80372" opacity="1.00" d=" M 344.79 204.35 C 346.93 204.34 349.08 204.35 351.23 204.41 C 351.82 206.15 352.86 207.67 354.08 209.03 C 354.91 213.08 355.81 217.12 357.11 221.04 C 357.77 226.19 359.57 231.08 361.19 235.98 C 362.32 239.70 362.79 243.57 362.50 247.46 C 361.66 248.44 360.85 249.43 360.04 250.44 C 357.89 250.54 355.72 250.82 353.60 250.40 C 351.91 249.13 351.26 246.96 350.64 245.03 C 348.89 237.30 346.97 229.61 344.85 221.98 C 344.19 217.28 342.12 212.83 342.28 208.01 C 343.13 206.80 343.96 205.58 344.79 204.35 Z" />
<path fill="#f80372" opacity="1.00" d=" M 512.89 223.67 C 514.94 223.67 517.01 223.70 519.07 223.77 C 519.26 224.85 519.46 225.94 519.67 227.03 C 521.25 230.19 522.06 233.64 523.18 236.98 C 527.65 252.03 532.15 267.09 537.19 281.97 C 540.22 294.19 544.93 305.89 548.37 318.00 C 549.85 323.34 551.52 328.63 553.22 333.91 C 553.70 335.95 554.25 337.97 554.82 340.00 C 555.64 342.64 556.32 345.33 557.20 347.97 C 558.56 353.07 559.87 358.19 561.78 363.13 C 562.55 366.07 563.24 369.03 564.15 371.94 C 565.67 378.00 567.70 383.93 569.26 389.98 C 570.01 391.69 568.24 393.08 567.11 394.06 C 562.02 397.52 557.11 401.34 553.05 405.99 C 547.68 412.29 541.76 418.11 536.08 424.12 C 532.13 429.14 527.41 433.43 523.01 438.03 C 520.76 440.14 518.87 442.76 515.97 444.03 C 512.95 449.39 507.61 452.95 503.39 457.33 C 501.18 458.41 499.56 460.29 498.04 462.16 C 492.28 469.46 486.70 476.97 480.78 484.09 C 477.77 490.42 472.96 495.61 469.30 501.54 C 460.68 514.78 452.04 528.01 442.98 540.96 C 435.24 553.05 427.94 565.42 420.63 577.77 C 417.02 583.30 414.58 589.49 410.80 594.92 C 406.58 601.33 404.17 608.98 398.71 614.53 C 398.46 617.88 396.51 620.69 395.39 623.77 C 394.52 623.65 393.66 623.53 392.81 623.43 C 392.49 621.28 390.96 619.78 389.47 618.37 C 389.43 616.75 389.41 615.15 389.38 613.55 C 388.75 612.82 388.12 612.09 387.50 611.37 C 387.34 609.91 387.43 608.39 386.68 607.09 C 386.41 605.72 386.24 604.36 385.78 603.05 C 385.38 602.08 384.99 601.12 384.62 600.15 C 384.39 598.74 384.04 597.37 383.56 596.04 C 383.51 594.89 383.49 593.74 383.48 592.60 L 382.54 592.52 C 382.33 591.02 382.03 589.57 381.55 588.15 C 381.44 587.39 381.22 585.87 381.10 585.11 C 379.46 583.23 379.27 580.75 379.01 578.38 C 377.22 576.77 377.35 574.32 377.08 572.14 C 376.05 570.37 375.46 568.42 374.91 566.48 C 374.39 564.59 374.22 562.64 374.15 560.69 C 373.76 560.67 372.98 560.63 372.58 560.61 C 372.46 559.06 372.21 557.54 371.61 556.11 C 371.52 555.07 371.44 554.03 371.36 553.00 C 368.06 551.22 370.34 546.89 368.83 544.03 C 367.57 540.83 367.68 537.31 366.53 534.09 C 364.68 528.62 363.33 522.98 361.65 517.46 C 361.29 516.52 360.94 515.59 360.59 514.66 C 360.40 513.55 360.18 512.44 359.96 511.34 C 359.56 509.68 359.29 507.99 358.99 506.33 C 357.18 503.95 357.26 500.95 357.22 498.11 C 356.64 497.25 356.06 496.40 355.49 495.55 C 355.84 491.59 353.75 488.13 353.05 484.36 C 352.53 482.50 351.93 480.67 351.19 478.90 C 350.78 477.61 350.46 476.31 350.17 475.00 C 349.78 473.37 349.49 471.73 349.19 470.09 C 348.67 468.77 348.44 467.37 348.28 465.98 C 347.64 464.72 347.38 463.32 346.72 462.09 C 346.56 460.38 346.27 458.70 345.90 457.04 C 345.36 455.55 344.85 454.05 344.37 452.54 L 343.44 452.40 C 343.50 451.12 343.56 449.85 343.63 448.59 L 342.61 448.42 C 342.13 444.91 341.50 441.36 339.68 438.27 C 339.21 435.50 338.63 432.75 337.87 430.05 C 337.21 428.43 336.53 426.83 335.80 425.25 C 335.48 424.74 334.83 423.72 334.50 423.21 C 334.50 421.45 334.48 419.70 334.38 417.96 C 333.46 414.45 332.65 410.95 331.31 407.57 L 330.46 407.46 C 330.60 404.74 330.55 401.98 329.55 399.41 L 328.36 399.46 C 328.46 397.83 328.54 396.19 328.65 394.57 L 327.58 394.44 C 327.17 389.92 325.84 385.49 326.49 380.91 C 330.02 378.51 332.43 374.95 335.01 371.65 C 335.49 371.53 336.46 371.30 336.94 371.18 C 337.98 368.91 339.70 367.09 341.51 365.40 C 342.48 365.38 343.46 365.35 344.44 365.33 C 344.90 366.92 345.37 368.51 345.81 370.11 C 347.35 373.53 347.91 377.26 348.77 380.88 C 351.15 390.47 354.15 399.87 356.82 409.35 C 357.51 409.47 358.88 409.71 359.57 409.83 C 359.26 406.23 360.22 402.38 358.68 398.99 C 358.54 396.65 358.55 394.26 357.83 392.00 C 356.60 386.95 355.10 381.97 353.98 376.89 C 352.80 370.42 349.90 364.26 350.16 357.57 C 352.27 355.30 355.04 353.70 358.23 354.38 C 359.96 362.31 362.42 370.07 363.84 378.07 C 364.67 382.92 366.83 387.54 366.66 392.55 C 364.30 392.26 361.95 391.95 359.60 391.62 C 359.54 392.32 359.42 393.70 359.36 394.39 C 363.30 395.28 367.02 397.05 369.43 400.41 C 371.54 410.67 374.34 420.75 376.85 430.91 C 377.64 433.56 378.26 436.27 378.82 438.98 C 380.38 444.60 381.28 450.40 383.20 455.92 C 383.75 458.25 384.29 460.59 384.83 462.93 C 386.26 467.18 386.80 471.67 388.12 475.96 C 390.85 487.83 396.21 500.06 392.51 512.35 C 391.21 512.96 389.85 513.47 388.45 513.78 C 388.44 514.34 388.44 515.44 388.44 515.99 C 386.43 520.45 385.23 525.29 382.58 529.45 C 382.52 530.65 382.46 531.85 382.41 533.06 C 384.61 530.04 387.42 527.53 389.67 524.55 C 391.50 522.37 393.30 519.80 396.23 519.12 C 397.12 524.51 398.18 529.97 400.35 535.01 C 400.60 537.62 400.65 540.24 400.47 542.86 C 398.74 544.12 397.59 545.89 397.25 548.00 C 396.83 547.83 396.00 547.48 395.58 547.31 C 395.52 548.03 395.39 549.47 395.33 550.20 C 394.58 550.28 393.09 550.44 392.34 550.52 C 392.42 552.97 392.47 555.44 392.68 557.91 C 394.18 561.81 394.39 566.07 395.82 570.01 C 396.40 572.39 396.94 574.77 397.71 577.11 C 398.03 578.02 398.35 578.94 398.66 579.87 C 399.33 579.77 400.67 579.58 401.34 579.49 C 401.78 577.94 402.25 576.41 402.76 574.89 C 403.52 573.29 404.22 571.67 404.82 570.02 C 408.70 559.05 412.48 548.02 415.82 536.87 C 419.76 522.53 424.41 508.41 428.15 494.02 C 434.62 473.56 439.85 452.73 446.50 432.32 C 450.94 416.46 455.89 400.77 460.80 385.05 C 463.53 376.66 465.83 368.13 468.29 359.66 C 471.87 349.91 474.34 339.82 477.47 329.94 C 480.65 321.79 482.28 313.16 485.12 304.90 C 489.17 293.06 492.37 280.96 496.35 269.10 C 498.71 260.32 501.29 251.60 504.12 242.96 C 505.03 238.85 506.40 234.87 507.69 230.87 C 508.59 227.96 511.04 225.97 512.89 223.67 M 513.85 240.67 C 511.72 247.02 510.58 253.65 508.14 259.90 C 506.81 262.54 505.75 265.32 504.73 268.10 C 504.43 269.39 504.13 270.70 503.78 271.99 C 503.56 274.02 503.37 276.07 502.89 278.07 C 502.38 284.77 498.92 290.53 496.62 296.66 C 495.99 299.47 495.47 302.29 495.22 305.16 C 494.72 307.09 494.34 309.05 493.88 310.99 C 493.54 313.18 493.04 315.33 492.40 317.45 L 491.34 317.54 C 491.38 317.92 491.48 318.66 491.53 319.03 C 490.88 319.94 490.41 320.93 490.14 322.02 C 489.68 323.32 489.21 324.62 488.72 325.92 C 488.44 327.58 488.16 329.26 487.78 330.91 C 487.29 335.70 486.30 340.43 484.92 345.04 C 484.57 346.06 484.12 347.04 483.57 347.97 C 483.52 348.24 483.41 348.79 483.36 349.06 C 482.39 351.32 481.54 353.64 480.76 355.97 C 480.25 359.31 479.63 362.64 478.84 365.94 C 478.56 367.62 478.31 369.33 477.95 371.00 C 477.57 372.00 477.21 373.01 476.85 374.02 C 475.99 376.71 474.89 379.32 473.73 381.90 C 473.40 382.90 473.06 383.91 472.72 384.93 C 471.53 391.71 470.77 398.65 468.31 405.12 C 465.04 412.73 463.88 420.96 462.15 428.99 C 461.78 430.30 461.44 431.62 461.10 432.95 C 460.75 434.24 460.44 435.55 460.14 436.86 C 459.80 437.92 459.48 438.99 459.15 440.06 C 458.19 443.15 457.66 446.36 457.32 449.58 C 457.90 449.53 459.06 449.44 459.64 449.39 L 459.35 450.69 C 459.94 450.68 461.13 450.66 461.72 450.64 C 462.09 449.71 462.47 448.78 462.85 447.85 C 466.37 438.73 469.22 429.36 472.39 420.11 C 476.41 405.29 480.97 390.63 484.85 375.77 C 488.45 365.26 490.82 354.40 493.93 343.75 C 496.30 337.99 497.33 331.83 498.76 325.80 C 502.38 314.11 505.91 302.38 508.65 290.45 C 510.19 283.31 513.43 276.67 514.78 269.49 C 515.11 269.50 515.78 269.53 516.12 269.54 C 518.96 279.97 522.65 290.18 527.06 300.06 C 528.77 297.87 530.20 295.49 531.58 293.08 C 528.42 284.66 526.31 275.89 523.22 267.45 C 520.31 258.46 518.24 249.10 513.85 240.67 M 529.01 318.62 C 527.08 323.27 523.87 327.20 521.66 331.70 C 519.50 336.08 516.80 340.15 514.48 344.43 C 511.33 350.93 508.13 357.40 505.07 363.94 C 498.78 378.23 493.05 392.89 488.90 407.95 C 488.04 410.45 488.50 413.15 488.38 415.74 C 507.32 391.10 518.15 361.54 534.30 335.19 C 535.00 333.18 534.36 330.99 534.33 328.93 L 533.84 328.16 C 532.97 324.91 531.83 321.73 531.21 318.43 C 530.47 318.49 529.73 318.55 529.01 318.62 M 461.68 480.40 C 457.78 483.93 453.21 486.66 449.50 490.42 C 445.96 493.94 441.73 497.09 439.80 501.86 C 439.22 503.29 438.51 504.67 437.62 505.95 C 437.54 507.03 437.47 508.11 437.40 509.20 C 441.64 503.50 447.57 499.32 451.73 493.55 C 455.76 489.03 460.29 484.97 464.25 480.38 C 463.61 480.38 462.33 480.39 461.68 480.40 Z" />
<path fill="#f80372" opacity="1.00" d=" M 178.29 224.20 C 180.24 224.28 182.20 224.39 184.15 224.58 C 187.26 226.28 190.80 226.86 194.03 228.27 C 202.43 232.05 211.48 234.18 219.77 238.21 C 225.13 239.93 230.49 241.66 236.01 242.79 C 237.32 243.24 238.69 243.46 240.06 243.66 C 241.57 245.01 243.68 244.32 245.49 244.48 L 245.49 245.36 C 248.21 245.74 250.65 247.03 252.90 248.52 C 253.55 248.47 254.83 248.37 255.48 248.32 L 255.58 249.32 C 259.70 250.17 263.07 253.01 267.25 253.72 C 268.67 254.74 270.21 255.59 271.81 256.29 C 274.42 257.18 277.12 258.05 279.35 259.74 C 281.77 263.70 282.29 268.48 283.61 272.87 C 289.28 292.09 293.49 311.68 298.82 330.98 C 299.78 334.66 300.53 338.39 301.30 342.11 C 300.66 344.31 299.47 346.35 297.87 347.99 C 296.94 349.55 295.52 347.38 294.60 347.10 C 292.92 352.07 288.78 356.84 283.52 357.93 C 283.01 356.18 282.59 354.40 282.32 352.59 L 281.50 352.49 C 281.25 351.01 281.87 349.11 280.49 348.06 C 280.45 346.88 280.42 345.70 280.39 344.52 C 279.07 343.05 277.18 341.74 277.38 339.50 L 276.24 339.50 C 276.37 338.77 276.63 337.30 276.76 336.56 L 275.51 336.41 C 275.43 334.40 276.01 332.10 274.60 330.40 C 271.60 326.69 273.17 321.69 271.40 317.52 L 270.63 317.44 C 270.42 315.43 269.94 313.47 269.43 311.52 L 268.28 311.49 C 268.39 310.75 268.63 309.27 268.75 308.53 L 267.42 308.46 C 267.48 306.61 267.52 304.77 267.55 302.93 C 266.39 301.16 265.36 299.25 263.57 298.04 C 263.54 295.79 263.95 293.16 261.35 292.18 C 261.45 291.77 261.64 290.94 261.74 290.53 L 260.24 290.50 C 260.37 289.99 260.64 288.98 260.77 288.47 L 259.34 288.54 C 259.45 285.82 259.51 283.10 259.67 280.39 C 258.58 280.44 257.49 280.50 256.40 280.57 C 256.43 278.27 256.27 275.84 257.61 273.84 C 255.26 271.67 253.87 268.77 254.58 265.54 C 253.03 263.95 251.65 262.01 249.48 261.23 C 240.65 257.79 231.87 254.21 223.01 250.82 C 217.49 248.48 211.51 247.07 206.39 243.90 C 205.94 243.79 205.05 243.57 204.61 243.45 C 203.08 242.88 201.54 242.33 200.01 241.76 C 197.62 240.81 195.21 239.92 192.75 239.20 C 188.10 236.95 182.31 236.21 178.90 232.00 C 177.96 229.53 178.40 226.79 178.29 224.20 Z" />
<path fill="#f80372" opacity="1.00" d=" M 323.75 249.62 C 325.97 246.28 329.09 243.63 332.29 241.26 C 332.91 242.45 333.45 243.69 333.79 245.01 C 336.24 254.92 338.89 264.78 341.10 274.75 C 341.58 276.84 341.66 278.99 341.73 281.13 C 337.36 285.39 334.67 290.89 331.61 296.08 C 331.52 297.06 331.34 299.01 331.24 299.99 C 334.86 299.87 337.27 297.04 339.96 295.04 C 341.66 294.51 343.45 294.35 345.23 294.32 C 347.09 303.71 349.37 313.03 352.15 322.19 C 352.78 326.59 352.29 331.07 352.49 335.51 C 351.83 335.50 350.51 335.49 349.85 335.48 C 339.82 347.44 327.95 357.72 316.03 367.74 C 306.54 374.31 297.49 381.56 287.56 387.48 C 275.46 396.30 262.50 403.85 249.64 411.49 C 247.61 412.59 245.53 414.25 243.07 413.67 C 241.22 413.55 240.64 411.39 240.18 409.93 C 238.37 402.99 237.19 395.90 234.82 389.12 C 234.00 386.04 232.95 383.03 232.14 379.95 L 231.79 379.17 C 227.73 363.43 223.13 347.84 219.05 332.11 C 217.84 327.47 215.63 322.86 216.40 317.95 C 216.45 315.43 218.88 314.02 220.55 312.52 C 221.80 311.25 224.25 310.89 225.36 312.53 C 228.00 316.11 227.74 320.86 229.17 324.95 C 232.87 335.75 234.89 347.02 238.29 357.90 C 238.39 358.45 238.59 359.54 238.69 360.08 C 241.21 365.94 242.16 372.30 244.19 378.32 C 245.88 383.05 245.75 388.40 248.65 392.68 C 255.63 389.20 261.70 384.21 268.48 380.38 C 285.22 369.65 302.70 359.62 317.52 346.30 C 317.34 341.30 314.99 336.65 314.34 331.70 C 311.54 320.86 308.80 309.99 305.77 299.20 C 304.84 294.98 305.15 290.49 306.59 286.42 C 311.19 273.68 316.71 261.22 323.75 249.62 M 314.12 355.24 C 307.19 357.31 302.80 363.62 296.52 366.73 L 296.41 367.29 C 294.16 367.45 292.66 369.12 291.17 370.60 C 290.76 370.52 289.93 370.37 289.52 370.29 L 289.54 371.41 C 288.50 371.81 287.46 372.22 286.43 372.63 C 283.78 374.67 280.98 376.51 278.12 378.23 C 276.92 378.59 275.92 379.32 274.98 380.11 C 272.12 381.80 269.74 384.12 267.27 386.31 C 266.38 386.65 265.50 387.01 264.63 387.39 C 265.30 387.41 266.64 387.44 267.31 387.45 C 270.21 385.17 273.72 383.90 276.71 381.76 C 285.84 375.83 295.19 370.24 303.95 363.76 C 309.01 360.00 314.96 357.27 319.15 352.46 C 317.57 353.54 315.91 354.53 314.12 355.24 Z" />
<path fill="#f80372" opacity="1.00" d=" M 185.24 254.11 C 191.40 255.47 197.17 258.21 203.10 260.32 C 207.20 262.21 212.40 262.94 214.95 267.09 C 215.96 269.08 215.54 271.46 215.71 273.63 C 215.11 273.55 213.92 273.40 213.33 273.32 C 213.42 274.22 213.61 276.00 213.71 276.90 C 212.19 276.56 210.69 276.20 209.19 275.83 C 207.06 275.45 205.02 274.77 203.10 273.80 C 200.24 273.24 197.49 272.22 195.09 270.57 C 194.50 270.56 193.32 270.55 192.72 270.55 C 190.29 267.74 188.00 264.60 188.26 260.67 C 186.90 258.66 185.99 256.40 185.24 254.11 Z" />
<path fill="#f80372" opacity="1.00" d=" M 824.35 261.34 C 830.15 258.84 835.60 255.24 841.88 254.04 C 840.34 260.48 838.31 266.82 836.16 273.08 C 829.76 275.82 823.68 279.21 817.45 282.28 C 812.06 284.94 806.94 288.21 801.16 289.99 C 801.34 287.97 801.59 285.96 801.96 283.96 C 804.11 278.22 805.66 271.42 811.25 267.97 C 815.53 265.61 820.00 263.58 824.35 261.34 Z" />
<path fill="#f80372" opacity="1.00" d=" M 360.10 272.45 C 362.50 272.06 364.99 271.47 367.33 272.51 C 370.12 277.24 370.74 282.75 372.14 287.97 C 373.24 295.14 376.54 301.81 377.46 309.01 C 377.51 313.64 372.39 315.19 368.57 314.70 C 366.25 311.89 365.01 308.39 364.20 304.88 C 362.19 295.84 359.73 286.91 357.60 277.89 C 358.24 275.99 359.06 274.16 360.10 272.45 Z" />
<path fill="#f80372" opacity="1.00" d=" M 227.25 275.33 C 231.51 275.23 236.92 275.44 239.33 279.59 C 240.98 283.42 241.56 287.65 241.80 291.79 C 239.85 291.68 237.91 291.55 235.97 291.41 C 234.13 290.46 232.18 289.69 230.50 288.47 C 229.20 285.47 228.67 282.21 228.16 279.01 C 227.94 278.09 227.48 276.25 227.25 275.33 Z" />
<path fill="#f80372" opacity="1.00" d=" M 774.69 293.88 C 780.44 291.70 785.58 288.11 791.57 286.53 C 789.65 289.61 790.28 293.64 788.72 296.95 C 788.60 298.03 788.50 299.12 788.42 300.21 C 783.11 303.32 777.89 308.04 771.38 307.70 C 771.51 304.74 772.14 301.83 773.20 299.06 C 773.62 297.31 774.13 295.58 774.69 293.88 Z" />
<path fill="#f80372" opacity="1.00" d=" M 817.38 304.53 C 820.31 303.14 823.27 301.53 826.59 301.37 C 826.18 305.54 825.89 310.02 823.47 313.59 C 821.67 316.03 818.14 315.89 816.07 318.00 C 814.47 319.62 813.89 321.90 813.28 324.02 C 809.32 339.76 805.16 355.45 800.68 371.04 C 800.56 371.54 800.32 372.52 800.20 373.01 C 787.57 378.63 775.44 385.31 763.07 391.47 C 741.59 402.07 720.72 413.85 699.26 424.51 C 688.07 430.69 676.65 436.44 665.24 442.18 C 659.20 444.85 653.78 448.83 647.40 450.69 C 646.94 442.76 650.56 435.44 651.80 427.74 C 654.40 418.19 655.94 408.34 659.15 398.96 C 659.43 393.60 664.52 391.22 668.41 388.60 C 665.66 388.22 663.07 389.41 660.36 389.54 C 660.64 389.27 661.22 388.72 661.50 388.45 C 661.05 384.21 665.00 381.80 668.32 380.30 C 683.79 373.20 699.01 365.58 714.33 358.15 C 724.84 352.53 735.53 347.27 746.17 341.91 C 758.79 336.12 770.25 328.11 783.02 322.61 C 784.66 322.45 786.31 322.31 787.97 322.18 C 787.66 323.98 787.24 325.77 786.51 327.45 C 785.51 327.77 784.58 328.12 783.62 328.46 L 784.84 328.37 C 784.69 332.69 784.55 337.05 783.43 341.25 C 772.69 348.33 760.92 353.67 749.60 359.70 C 731.21 369.18 712.83 378.70 694.82 388.89 C 691.85 393.97 692.03 400.03 691.38 405.71 C 695.27 405.96 698.48 403.54 701.97 402.26 C 713.10 397.11 723.96 391.37 735.11 386.25 C 739.55 384.02 743.84 381.50 748.36 379.43 C 757.15 375.44 765.25 370.13 774.01 366.07 C 777.97 364.10 782.31 362.66 785.74 359.77 C 788.22 356.89 788.60 352.93 789.67 349.42 C 790.92 345.31 792.10 341.18 793.22 337.04 C 793.73 335.01 794.26 332.99 794.77 330.96 C 797.13 325.21 797.32 318.66 800.16 313.16 C 805.73 309.99 811.64 307.41 817.38 304.53 M 774.61 330.93 C 772.80 332.96 768.99 331.62 768.14 334.49 C 766.95 334.52 765.78 334.54 764.61 334.57 L 764.79 335.52 C 761.67 336.67 758.90 338.97 755.42 338.75 C 755.54 339.49 755.77 340.98 755.88 341.73 L 754.45 341.32 L 754.45 342.69 C 753.87 342.63 752.73 342.49 752.16 342.43 C 752.19 342.80 752.24 343.55 752.26 343.92 C 754.50 343.08 756.52 341.77 758.59 340.58 C 763.36 338.27 768.24 336.09 772.59 333.03 C 775.31 331.27 778.27 329.89 781.03 328.18 C 778.89 329.10 776.76 330.04 774.61 330.93 Z" />
<path fill="#f80372" opacity="1.00" d=" M 203.34 309.42 C 204.75 306.86 207.76 307.35 210.19 307.40 C 210.95 308.52 211.70 309.64 212.47 310.75 C 212.44 312.19 212.41 313.63 212.38 315.08 C 212.09 315.69 211.51 316.93 211.22 317.55 C 209.08 317.60 206.95 317.62 204.82 317.61 C 203.58 315.17 201.16 312.06 203.34 309.42 Z" />
<path fill="#f80372" opacity="1.00" d=" M 239.13 309.34 C 240.28 309.37 241.44 309.39 242.59 309.42 C 244.21 310.78 246.02 312.19 246.63 314.32 C 250.13 324.01 251.71 334.28 255.26 343.95 C 255.37 344.47 255.61 345.52 255.72 346.05 C 257.12 352.38 260.22 358.60 259.52 365.21 C 258.91 367.19 256.34 366.33 254.80 366.68 C 251.42 355.52 248.06 344.35 245.14 333.07 C 243.14 326.78 241.89 320.30 239.84 314.03 C 239.41 312.50 239.31 310.91 239.13 309.34 Z" />
<path fill="#f80372" opacity="1.00" d=" M 371.54 336.79 C 372.97 333.14 376.72 331.76 380.39 332.29 C 381.37 333.37 382.37 334.44 383.36 335.52 C 384.82 342.06 386.92 348.45 387.79 355.11 L 388.17 355.84 C 389.55 361.21 391.94 366.46 391.55 372.12 C 389.31 374.14 386.81 376.02 383.61 375.75 C 381.20 373.34 379.88 370.19 379.10 366.93 C 376.93 356.79 373.78 346.90 371.54 336.79 Z" />
<path fill="#f80372" opacity="1.00" d=" M 309.95 392.99 C 311.34 391.39 313.34 391.21 315.35 391.23 C 315.59 392.98 316.16 394.67 317.42 395.97 C 317.48 397.30 317.54 398.65 317.62 399.99 C 318.89 402.46 318.17 405.40 319.39 407.90 C 319.47 408.44 319.62 409.51 319.70 410.05 C 321.22 412.46 319.85 415.56 321.38 417.96 C 321.58 419.61 321.31 421.46 322.30 422.93 C 323.12 425.87 323.45 428.93 324.36 431.86 C 324.39 435.97 325.52 439.95 325.83 444.04 C 325.85 445.50 326.75 446.69 327.48 447.88 C 327.50 448.49 327.54 449.70 327.57 450.30 C 328.16 451.46 328.74 452.62 329.35 453.79 C 330.50 456.88 330.69 460.18 330.40 463.45 L 331.43 463.57 C 331.60 468.94 334.37 473.98 333.44 479.45 L 334.45 479.50 C 335.19 482.07 335.65 484.73 335.50 487.42 L 336.42 487.55 C 336.83 489.85 337.31 492.14 337.58 494.48 L 338.51 494.61 C 338.45 496.57 338.40 498.53 338.34 500.51 L 339.59 500.54 C 339.56 500.92 339.49 501.67 339.46 502.04 C 340.88 503.36 340.37 505.40 340.63 507.11 C 341.36 509.12 341.19 511.78 343.32 512.94 C 343.53 515.35 343.96 517.74 344.76 520.04 C 345.34 521.33 345.50 522.74 345.75 524.14 C 347.32 530.40 346.12 537.00 346.45 543.40 C 347.80 543.91 349.20 544.35 350.64 544.59 C 350.53 546.21 350.42 547.83 350.32 549.47 L 351.68 549.52 C 351.57 550.27 351.34 551.78 351.23 552.53 L 352.58 552.51 C 352.48 554.91 352.41 557.30 352.31 559.70 C 353.38 559.59 354.45 559.50 355.53 559.40 C 355.53 560.41 355.54 562.42 355.54 563.43 L 354.32 563.45 L 354.60 564.69 C 353.79 564.58 352.16 564.37 351.35 564.27 C 351.39 565.20 351.48 567.07 351.53 568.00 C 351.83 568.63 352.43 569.87 352.74 570.50 C 353.66 570.57 354.59 570.65 355.53 570.75 C 355.56 568.83 355.54 566.87 356.43 565.12 C 356.53 567.56 356.52 570.02 356.52 572.47 L 355.25 572.43 C 355.55 574.51 355.02 576.94 356.57 578.66 C 357.52 577.24 358.95 576.47 360.54 576.03 C 360.52 578.52 360.50 581.02 360.54 583.53 L 359.36 583.40 C 359.46 586.13 359.47 588.88 359.43 591.62 C 359.96 591.58 361.01 591.51 361.54 591.47 C 361.56 591.97 361.60 592.98 361.62 593.48 L 360.37 593.45 C 360.41 595.52 360.43 597.60 360.43 599.68 C 361.22 599.59 362.80 599.41 363.59 599.32 C 363.52 602.09 363.48 604.86 363.26 607.63 C 364.54 608.38 366.01 608.51 367.47 608.56 C 368.33 610.76 368.57 613.11 368.64 615.47 L 367.32 615.46 C 367.41 617.45 367.50 619.46 367.60 621.47 L 366.41 621.52 C 366.43 623.50 366.42 625.49 366.39 627.49 L 367.29 627.57 C 367.26 629.74 368.58 631.12 370.54 631.88 C 370.49 634.23 370.41 636.59 370.35 638.96 C 371.56 638.53 372.78 638.11 373.93 637.53 C 373.76 637.00 373.42 635.95 373.25 635.43 C 373.81 635.40 374.94 635.33 375.51 635.30 C 375.98 636.75 376.48 638.22 376.92 639.70 C 376.37 639.61 375.27 639.43 374.71 639.34 C 374.38 639.98 373.72 641.26 373.39 641.91 C 374.63 643.84 374.57 646.13 374.58 648.35 C 374.06 648.70 373.02 649.41 372.50 649.77 C 372.01 655.32 373.36 660.78 374.60 666.15 C 376.25 668.32 376.65 671.02 376.84 673.68 L 375.39 673.38 C 375.47 675.36 375.52 677.33 375.59 679.33 C 374.70 680.36 373.81 681.39 372.93 682.45 C 369.89 678.52 366.71 674.63 364.64 670.08 C 363.99 673.48 364.71 676.83 365.79 680.05 C 367.38 684.57 368.60 689.21 369.39 693.94 C 369.21 696.67 368.00 699.18 366.83 701.60 C 365.74 703.65 365.23 706.33 362.72 707.06 C 361.97 703.67 361.03 700.33 360.11 697.00 C 359.79 695.65 359.50 694.32 359.19 692.99 C 358.35 690.40 357.73 687.76 357.18 685.10 C 356.82 684.05 356.48 683.00 356.14 681.95 L 355.79 681.18 C 353.63 672.43 351.06 663.78 348.82 655.04 C 340.32 622.66 331.86 590.27 322.83 558.04 C 321.97 554.66 321.01 551.32 320.16 547.95 C 319.16 543.94 317.90 540.00 317.20 535.93 L 316.78 535.17 C 312.46 519.50 308.35 503.77 304.15 488.07 C 302.42 482.80 301.89 477.21 299.82 472.05 C 298.42 467.41 297.25 462.71 296.15 457.99 C 293.83 448.94 290.85 440.06 288.84 430.92 C 287.92 427.46 291.41 425.15 292.93 422.45 C 293.69 422.44 294.46 422.44 295.23 422.44 C 295.50 423.63 295.78 424.82 296.08 426.02 C 297.00 429.01 297.95 432.00 298.80 435.01 C 299.56 437.32 300.24 439.65 300.72 442.04 C 301.23 443.29 301.73 444.56 302.26 445.81 C 302.81 447.54 303.35 449.27 303.80 451.04 C 304.30 455.21 306.56 458.97 306.60 463.22 C 307.25 464.08 307.91 464.94 308.58 465.81 C 308.57 466.38 308.55 467.53 308.54 468.10 C 310.76 469.54 310.57 472.15 310.63 474.47 C 311.21 474.50 312.37 474.56 312.95 474.59 C 312.47 473.82 311.99 473.06 311.51 472.30 C 311.49 470.51 311.47 468.69 310.75 467.02 C 310.50 465.65 310.49 464.20 309.61 463.04 C 309.69 459.27 309.25 455.54 307.77 452.05 C 307.50 449.63 306.85 447.29 306.15 444.98 C 305.78 443.66 305.48 442.32 305.15 441.01 C 302.73 428.50 299.37 416.18 296.58 403.75 C 300.05 399.10 305.72 396.85 309.95 392.99 M 320.69 503.70 C 320.19 507.20 320.74 510.72 321.87 514.04 C 322.96 518.99 323.77 524.01 325.26 528.88 C 325.94 532.10 326.83 535.27 327.67 538.46 L 328.53 538.57 C 328.66 540.35 328.22 542.36 329.29 543.96 C 330.21 546.89 330.23 550.01 331.21 552.93 C 332.89 558.04 334.40 563.22 335.70 568.45 L 336.57 568.57 C 336.65 570.97 336.12 573.58 337.29 575.81 C 337.56 576.62 338.10 578.26 338.37 579.07 C 338.39 577.53 338.40 575.99 338.39 574.45 L 339.53 574.47 C 339.49 572.49 339.47 570.52 339.47 568.56 C 338.96 568.55 337.94 568.54 337.43 568.53 C 337.55 564.91 337.84 561.14 336.19 557.79 C 335.30 553.46 333.22 549.37 333.35 544.86 C 332.78 543.94 332.23 543.02 331.68 542.11 C 331.34 540.30 330.82 538.55 330.26 536.82 C 329.69 535.18 329.26 533.51 328.82 531.84 C 328.47 530.87 328.11 529.90 327.75 528.93 C 327.52 527.61 327.27 526.30 326.82 525.04 C 326.47 524.03 326.13 523.02 325.81 522.02 C 325.47 521.02 325.11 520.04 324.73 519.07 C 322.48 514.17 321.53 508.94 320.69 503.70 Z" />
<path fill="#f80372" opacity="1.00" d=" M 288.63 409.45 C 289.09 409.49 289.99 409.55 290.45 409.58 C 290.45 411.05 290.45 412.53 290.43 414.01 C 289.06 415.01 287.73 416.05 286.40 417.11 C 286.08 414.30 286.86 411.64 288.63 409.45 Z" />
<path fill="#f80372" opacity="1.00" d=" M 760.59 415.70 C 765.19 413.37 769.42 409.83 774.69 409.17 C 774.74 412.65 774.25 416.10 773.41 419.48 C 770.35 423.97 765.21 425.97 760.56 428.33 C 758.99 429.18 757.21 429.30 755.48 429.43 C 756.47 428.50 757.37 427.42 757.53 426.03 C 758.33 422.52 759.50 419.12 760.59 415.70 Z" />
<path fill="#f80372" opacity="1.00" d=" M 570.89 413.48 C 572.35 413.45 573.82 413.43 575.30 413.41 C 576.96 419.33 579.12 425.10 580.79 431.02 C 582.43 436.74 584.69 442.27 586.17 448.04 C 587.82 453.66 588.95 459.47 591.31 464.86 C 591.40 465.39 591.59 466.46 591.69 466.99 C 592.19 468.30 592.70 469.61 593.20 470.93 C 594.28 475.00 595.82 478.94 596.79 483.05 C 599.94 491.57 602.16 500.41 605.26 508.94 C 605.41 509.94 605.57 510.94 605.72 511.95 C 610.38 526.61 614.02 541.56 619.14 556.07 C 621.43 560.83 621.53 566.39 624.70 570.75 C 625.40 570.64 626.79 570.42 627.48 570.31 C 627.46 574.27 628.14 578.27 629.42 582.02 C 629.40 583.21 629.37 584.40 629.34 585.61 C 630.29 585.56 631.25 585.51 632.22 585.48 C 632.51 584.35 632.84 583.23 633.21 582.13 C 633.98 580.10 634.65 578.04 635.26 575.97 C 637.16 568.67 638.59 561.20 641.21 554.11 C 643.49 545.04 645.72 535.95 648.09 526.91 C 648.47 525.95 648.86 525.01 649.27 524.07 C 649.73 522.00 650.26 519.94 650.73 517.88 C 652.38 513.72 653.31 509.34 654.16 504.96 C 654.66 501.37 655.53 497.83 655.67 494.20 C 654.38 494.32 653.09 494.42 651.83 494.67 C 651.44 496.10 651.33 497.63 650.65 498.97 C 650.39 500.61 650.47 502.36 649.71 503.88 C 649.00 505.56 648.37 507.26 647.68 508.94 C 647.64 511.43 647.13 513.88 645.53 515.86 C 645.45 517.00 645.38 518.14 645.32 519.29 C 643.15 521.69 642.63 524.94 641.76 527.93 C 641.32 530.34 640.53 532.66 639.67 534.95 C 639.51 536.59 639.37 538.28 638.72 539.83 C 637.95 541.12 637.27 542.46 636.60 543.81 C 637.12 546.40 635.34 548.07 632.81 547.56 C 631.45 546.17 630.02 544.86 628.57 543.58 C 628.50 542.35 628.45 541.13 628.40 539.91 C 627.75 538.97 627.11 538.05 626.46 537.13 C 625.95 532.96 627.65 529.05 628.35 525.02 C 629.03 521.32 630.19 517.73 630.84 514.03 C 633.72 503.67 635.99 493.16 639.03 482.85 C 639.65 480.51 640.13 478.14 640.55 475.76 C 647.94 470.11 656.87 466.97 664.96 462.49 C 666.09 462.54 667.23 462.60 668.38 462.68 C 667.47 463.49 666.58 464.31 665.71 465.16 C 664.78 471.06 663.97 477.00 662.58 482.82 C 661.80 486.22 660.27 489.53 660.50 493.09 C 661.85 494.22 663.67 494.32 665.32 494.76 C 670.43 483.44 672.97 471.20 676.12 459.25 L 674.19 459.53 C 676.13 455.68 680.76 454.89 684.02 452.52 C 685.16 452.41 687.46 452.20 688.60 452.09 C 687.24 454.28 686.47 456.73 686.17 459.28 C 686.47 458.81 687.07 457.86 687.38 457.39 C 687.50 456.07 687.56 454.66 688.55 453.67 C 688.86 456.29 687.65 458.60 686.63 460.92 C 686.21 464.54 686.52 468.20 686.62 471.84 C 686.08 471.64 684.99 471.25 684.45 471.05 C 684.44 473.40 684.46 475.75 684.57 478.11 C 685.59 479.97 685.64 482.09 685.58 484.17 C 684.27 483.54 683.29 482.47 682.71 481.16 C 682.64 481.75 682.51 482.92 682.45 483.51 L 681.31 483.50 C 681.42 485.17 681.54 486.85 681.67 488.53 L 680.29 488.51 C 680.40 489.74 680.52 490.97 680.65 492.21 C 677.45 492.37 678.82 495.93 678.51 498.04 C 678.92 500.22 677.36 501.81 676.20 503.43 L 675.50 503.49 C 674.09 506.54 675.53 509.62 675.76 512.75 C 675.12 512.62 673.85 512.36 673.22 512.24 C 673.30 512.68 673.48 513.57 673.56 514.02 C 672.06 515.25 672.66 517.33 672.36 519.01 C 671.32 520.26 671.46 521.94 671.26 523.45 C 672.12 524.26 672.99 525.07 673.87 525.89 C 673.02 528.01 672.09 530.11 671.14 532.20 C 670.32 531.14 669.46 530.02 668.66 528.98 C 668.63 531.86 668.18 534.72 667.39 537.49 L 666.23 537.49 C 666.34 538.23 666.57 539.71 666.68 540.45 L 665.35 540.55 C 665.41 541.77 665.48 542.99 665.56 544.21 C 664.84 545.07 664.14 545.93 663.44 546.80 C 663.49 549.28 663.50 551.76 663.50 554.25 C 663.20 554.81 662.59 555.92 662.29 556.48 L 661.32 556.56 C 661.37 557.18 661.47 558.44 661.52 559.06 C 659.88 560.59 660.68 563.03 660.38 565.02 C 659.10 566.50 659.58 568.53 659.44 570.32 C 657.63 572.03 656.32 574.19 656.41 576.77 C 655.99 576.68 655.13 576.49 654.70 576.40 C 654.62 578.65 654.70 580.93 654.34 583.17 C 651.95 588.45 651.20 594.40 651.53 600.16 C 650.88 601.03 650.24 601.91 649.61 602.79 C 649.13 605.21 648.62 607.63 648.36 610.10 C 646.81 612.80 644.64 615.31 644.37 618.55 C 643.89 618.56 642.92 618.59 642.44 618.60 C 642.41 617.95 642.35 616.66 642.33 616.02 C 641.04 612.67 641.80 608.54 639.44 605.65 C 632.07 601.01 623.57 598.61 615.78 594.81 C 612.66 593.18 609.03 592.31 606.61 589.58 C 606.08 589.51 605.01 589.37 604.48 589.30 C 603.72 588.36 603.73 586.22 602.18 586.46 C 600.16 585.86 596.50 587.50 596.30 584.36 C 595.69 584.34 594.48 584.29 593.87 584.27 C 593.67 580.97 591.38 578.29 591.38 574.96 C 588.84 571.21 589.42 566.28 586.89 562.63 C 586.70 561.44 586.53 560.26 586.39 559.08 C 585.55 554.44 582.68 550.52 582.01 545.86 C 581.64 544.59 581.23 543.33 580.79 542.10 C 580.75 541.52 580.68 540.35 580.64 539.77 C 580.01 538.83 579.39 537.90 578.78 536.97 C 578.20 531.22 575.22 526.08 574.40 520.37 C 572.46 514.96 570.72 509.46 569.30 503.89 C 565.69 494.08 562.72 484.02 560.21 473.87 L 559.84 473.17 C 557.29 466.03 555.91 458.58 553.63 451.37 C 552.11 445.93 549.86 440.48 550.58 434.72 C 551.78 434.64 552.98 434.56 554.19 434.47 C 554.51 433.14 555.22 431.99 556.07 430.94 C 556.85 429.66 557.62 428.37 558.41 427.08 C 559.08 424.84 559.40 422.49 560.34 420.34 C 563.89 418.11 567.37 415.76 570.89 413.48 M 569.32 444.38 C 569.38 446.22 569.54 448.09 570.25 449.82 C 570.34 454.03 572.00 457.93 573.26 461.88 C 573.84 463.92 574.46 465.95 575.13 467.97 C 575.45 468.97 575.78 469.96 576.12 470.96 C 576.61 473.03 577.31 475.04 578.11 477.02 C 578.43 478.01 578.76 479.00 579.09 480.00 C 579.53 480.99 579.99 481.98 580.46 482.98 C 580.42 483.35 580.33 484.11 580.29 484.48 L 581.34 484.51 C 581.37 485.77 581.72 486.92 582.40 487.97 C 582.48 488.70 582.66 490.15 582.74 490.88 C 583.91 490.53 584.69 489.77 585.07 488.58 L 583.38 488.58 C 583.48 486.45 583.56 484.32 583.68 482.19 L 582.41 482.73 C 582.42 481.47 582.42 480.21 582.41 478.96 C 581.48 477.30 581.52 475.39 581.41 473.57 L 580.18 473.55 C 580.32 473.04 580.59 472.03 580.72 471.53 L 579.31 471.52 C 579.41 470.77 579.60 469.27 579.70 468.53 L 578.63 468.43 C 578.50 465.76 577.89 463.16 577.34 460.56 L 576.65 460.44 C 576.06 455.55 573.68 451.17 572.25 446.53 L 571.13 446.53 C 571.29 446.01 571.62 444.97 571.78 444.44 C 571.17 444.43 569.93 444.39 569.32 444.38 M 658.89 505.52 C 657.79 507.13 656.55 508.68 655.82 510.52 C 652.37 519.45 650.01 528.76 647.91 538.09 C 647.37 540.59 647.37 543.16 647.24 545.71 L 649.85 545.52 C 649.77 545.02 649.61 544.03 649.53 543.54 C 650.01 543.57 650.98 543.63 651.46 543.66 C 652.69 538.03 655.18 532.76 656.12 527.06 C 657.43 519.90 661.03 513.08 660.41 505.66 C 660.03 505.63 659.27 505.55 658.89 505.52 Z" />
<path fill="#f80372" opacity="1.00" d=" M 258.46 429.68 C 261.20 426.20 264.72 423.02 269.20 422.14 C 269.47 422.85 270.00 424.26 270.27 424.97 C 270.38 425.49 270.62 426.52 270.73 427.04 C 272.51 431.60 273.64 436.38 274.79 441.13 C 275.42 442.66 276.11 444.21 276.33 445.88 C 277.21 451.70 279.23 457.25 280.89 462.87 C 281.74 465.48 281.72 468.30 280.89 470.92 C 278.73 476.34 276.54 481.76 274.21 487.12 C 273.02 483.14 272.07 479.10 270.82 475.15 C 269.05 468.05 267.05 461.02 265.19 453.95 C 262.76 445.92 260.93 437.70 258.46 429.68 Z" />
<path fill="#f80372" opacity="1.00" d=" M 738.82 424.70 C 739.26 424.62 740.15 424.46 740.59 424.38 C 740.40 432.59 736.71 440.17 734.94 448.09 C 732.72 458.14 729.54 467.94 727.15 477.92 C 724.68 486.58 722.84 495.43 720.10 504.02 C 718.92 507.47 718.24 511.06 717.51 514.63 C 716.13 520.10 714.30 525.45 713.18 530.98 C 709.29 544.95 706.04 559.10 701.83 572.98 C 700.71 576.97 700.07 581.09 698.67 585.00 C 698.77 590.05 695.65 594.20 694.79 599.05 C 692.99 608.54 689.19 617.49 687.19 626.93 C 685.60 632.57 684.35 638.30 682.79 643.94 C 682.25 645.97 681.72 648.00 681.20 650.03 C 679.58 654.39 679.02 659.09 677.18 663.37 C 676.12 665.57 673.93 666.81 671.98 668.12 C 669.71 668.42 667.58 669.30 665.58 670.38 C 665.62 668.37 665.70 666.33 666.48 664.46 C 668.56 658.77 668.94 652.60 671.24 646.99 C 671.50 644.24 671.81 641.45 673.23 639.02 C 673.44 633.33 677.19 628.81 680.93 624.89 C 683.21 623.61 685.25 621.95 687.01 620.02 C 686.52 619.54 685.54 618.58 685.05 618.10 C 683.57 619.70 682.06 621.45 679.86 622.03 C 679.53 621.28 678.86 619.78 678.53 619.03 C 678.51 617.62 678.48 616.23 678.49 614.83 C 678.16 614.50 677.52 613.82 677.19 613.48 C 676.02 613.48 674.86 613.49 673.70 613.50 C 672.66 616.57 672.29 619.78 672.38 623.01 C 671.00 624.03 669.80 625.29 669.12 626.89 C 666.45 633.77 665.22 641.11 662.76 648.05 C 661.78 651.76 661.16 655.55 660.01 659.21 C 658.30 664.15 658.23 669.60 655.41 674.13 C 650.90 675.77 646.71 678.13 642.44 680.29 C 639.35 681.43 636.60 679.15 634.03 677.79 C 626.81 674.93 619.73 671.63 613.02 667.69 C 612.27 667.57 610.77 667.34 610.02 667.22 C 603.54 663.77 596.72 661.02 590.12 657.80 C 588.02 657.01 585.95 656.17 583.89 655.31 C 582.32 654.42 580.72 653.59 579.12 652.79 C 575.99 651.71 573.01 650.27 570.03 648.87 C 567.29 647.79 564.67 646.46 562.00 645.26 C 560.41 644.48 558.83 643.68 557.28 642.85 C 554.83 641.99 552.44 640.98 550.11 639.87 C 541.86 635.23 531.99 633.59 524.51 627.61 C 524.49 624.70 524.14 621.71 525.17 618.94 C 525.31 618.34 525.59 617.16 525.72 616.57 C 526.46 615.52 527.19 614.46 527.94 613.43 C 529.62 613.45 531.31 613.48 533.00 613.55 C 541.72 617.46 550.08 622.12 558.91 625.78 C 571.89 631.52 584.88 637.22 597.77 643.15 C 601.91 644.36 605.62 646.63 609.64 648.17 C 614.73 650.46 619.96 652.48 624.82 655.24 C 625.34 655.37 626.37 655.63 626.89 655.76 C 630.45 657.42 634.25 658.70 637.35 661.20 C 638.01 661.30 639.33 661.50 639.99 661.61 C 643.31 663.41 646.82 664.80 650.22 666.45 C 650.49 666.21 651.02 665.74 651.29 665.50 C 654.24 655.49 655.99 645.14 659.30 635.23 C 661.56 627.94 662.78 620.36 665.24 613.14 C 665.79 610.71 666.33 608.28 666.77 605.83 C 670.47 595.24 672.43 584.16 675.50 573.38 C 679.89 555.79 685.17 538.43 689.61 520.85 C 696.34 494.52 703.69 468.34 710.00 441.91 C 710.77 438.94 713.92 437.72 716.33 436.32 C 723.85 432.51 731.69 429.22 738.82 424.70 M 533.47 621.47 C 533.56 621.86 533.72 622.64 533.80 623.03 C 536.95 624.91 540.13 626.79 543.46 628.36 C 557.03 634.31 570.68 640.12 584.08 646.46 C 584.68 646.47 585.88 646.49 586.48 646.50 L 586.36 647.44 C 588.38 648.23 590.41 649.01 592.47 649.71 L 592.51 650.74 C 593.02 650.60 594.05 650.34 594.56 650.20 L 594.48 651.41 C 596.31 651.75 598.13 652.18 599.95 652.60 C 599.90 652.29 599.81 651.67 599.76 651.36 L 598.34 651.78 C 598.42 650.63 598.51 649.48 598.60 648.35 C 598.06 648.46 596.97 648.68 596.43 648.80 L 596.43 647.74 C 594.22 647.06 592.07 646.21 589.95 645.31 C 585.42 642.68 580.88 639.98 575.93 638.23 C 571.18 636.08 566.89 633.02 561.94 631.28 C 556.58 628.92 551.49 626.01 546.07 623.77 C 543.67 622.75 541.27 621.71 538.91 620.60 C 538.02 620.48 536.23 620.23 535.34 620.11 C 535.34 620.41 535.35 621.02 535.36 621.32 C 534.89 621.36 533.95 621.44 533.47 621.47 Z" />
<path fill="#f80372" opacity="1.00" d=" M 756.53 439.71 C 760.44 437.49 764.37 435.17 768.76 434.02 C 768.80 441.63 765.60 448.69 764.00 456.02 C 754.14 491.62 744.50 527.29 734.81 562.95 C 733.23 568.96 731.02 574.80 729.74 580.90 C 729.63 581.43 729.40 582.48 729.28 583.01 C 727.38 590.06 725.18 597.03 722.76 603.93 C 721.61 612.90 717.70 621.17 716.01 630.01 C 715.24 633.73 713.78 637.26 713.17 641.02 C 712.85 642.14 712.56 643.27 712.29 644.42 C 709.61 648.89 704.65 651.11 699.62 651.65 C 699.33 648.75 699.30 645.83 699.69 642.95 C 700.59 641.01 701.33 639.00 701.88 636.94 C 703.01 633.32 704.02 629.66 704.80 625.95 C 705.57 623.63 706.21 621.26 706.77 618.89 C 708.08 616.09 708.44 612.26 711.77 611.08 C 712.05 608.85 709.73 607.12 710.70 604.91 C 711.97 599.89 713.19 594.84 714.80 589.91 C 715.71 586.47 720.07 585.80 721.10 582.41 C 720.10 582.47 718.10 582.58 717.10 582.63 C 719.60 567.52 724.76 552.98 728.24 538.07 C 734.46 514.73 740.45 491.33 746.79 468.02 C 748.70 460.66 751.13 453.42 752.47 445.91 C 752.73 443.32 754.27 440.99 756.53 439.71 Z" />
<path fill="#f80372" opacity="1.00" d=" M 537.80 464.58 C 540.24 460.83 542.90 456.80 547.17 454.96 C 549.09 459.11 549.76 463.64 550.78 468.07 C 554.21 476.48 556.51 485.30 558.81 494.08 C 559.68 496.29 560.35 498.57 560.79 500.91 C 561.12 501.92 561.45 502.93 561.79 503.94 C 563.91 509.71 565.08 515.78 566.97 521.63 C 567.95 525.70 569.97 529.67 569.44 533.97 C 565.19 535.12 561.55 537.72 557.61 539.60 C 553.34 542.08 548.74 543.99 544.66 546.81 C 541.74 543.93 541.34 539.67 540.07 535.98 C 536.13 524.63 533.59 512.85 529.54 501.54 C 528.11 496.08 526.38 490.68 525.47 485.11 C 526.58 483.04 527.64 480.95 528.67 478.84 C 531.64 474.04 534.33 469.05 537.80 464.58 Z" />
<path fill="#f80372" opacity="1.00" d=" M 283.79 482.43 C 284.16 482.41 284.91 482.39 285.28 482.38 C 286.23 485.25 287.26 488.09 288.22 490.96 C 290.72 502.21 293.93 513.27 297.12 524.34 C 300.79 539.93 305.30 555.29 308.97 570.88 C 309.55 573.32 309.33 575.85 309.34 578.34 C 308.73 578.34 307.50 578.35 306.89 578.35 C 306.67 578.84 306.23 579.81 306.01 580.30 C 302.89 579.47 301.35 576.55 298.80 574.89 C 298.69 574.44 298.46 573.56 298.34 573.12 C 297.76 572.07 297.10 571.06 296.72 569.93 C 292.68 554.59 288.12 539.39 284.11 524.04 C 282.41 518.01 280.89 511.93 278.81 506.02 C 278.46 504.64 278.08 503.27 277.68 501.93 C 277.67 499.18 278.18 496.48 278.78 493.82 C 280.42 490.01 282.73 486.46 283.79 482.43 Z" />
<path fill="#f80372" opacity="1.00" d=" M 477.55 496.59 C 478.96 496.51 480.38 496.43 481.80 496.35 C 481.66 496.81 481.38 497.75 481.24 498.22 C 481.64 498.58 482.42 499.32 482.82 499.69 C 483.26 499.59 484.15 499.40 484.59 499.31 C 484.58 500.39 484.57 501.48 484.58 502.58 C 484.01 502.86 482.88 503.43 482.31 503.71 C 482.40 504.14 482.57 505.00 482.65 505.42 L 481.74 505.59 C 479.77 510.93 475.52 514.78 471.79 518.87 C 469.45 523.32 465.38 526.48 461.76 529.84 C 461.36 530.66 460.95 531.50 460.54 532.33 C 460.42 530.53 460.49 528.72 461.45 527.14 C 461.51 526.12 461.57 525.11 461.65 524.11 C 463.37 522.83 464.51 521.01 465.37 519.08 C 466.10 513.61 470.74 509.80 473.45 505.25 C 473.54 504.01 473.58 502.78 473.58 501.54 C 474.13 501.47 475.22 501.32 475.76 501.25 C 475.62 501.83 475.33 503.00 475.19 503.59 C 476.31 503.59 477.44 503.59 478.57 503.60 C 478.59 502.57 478.63 500.49 478.64 499.45 L 477.38 499.48 C 477.43 498.51 477.49 497.55 477.55 496.59 Z" />
<path fill="#f80372" opacity="1.00" d=" M 495.99 563.91 C 502.12 542.43 507.83 520.82 513.04 499.12 C 513.40 502.89 514.79 506.44 516.21 509.93 C 518.78 520.44 522.24 530.69 525.01 541.14 C 526.08 545.70 528.27 550.20 527.49 555.01 C 516.77 560.59 506.14 566.33 495.46 572.00 C 495.27 569.29 495.34 566.56 495.99 563.91 Z" />
<path fill="#f80372" opacity="1.00" d=" M 491.61 508.34 C 492.99 508.37 494.37 508.36 495.76 508.36 C 495.64 509.27 495.38 511.09 495.25 512.00 C 492.73 519.21 491.27 526.75 488.76 533.97 C 485.05 549.29 479.97 564.24 476.57 579.63 C 475.44 585.74 468.82 588.58 463.44 589.95 L 463.51 588.43 C 462.97 588.43 461.91 588.42 461.38 588.41 C 461.43 588.85 461.53 589.71 461.58 590.15 C 460.42 590.93 459.27 591.74 458.13 592.56 C 456.89 592.53 455.65 592.50 454.42 592.46 C 450.91 595.42 450.39 600.14 448.85 604.19 C 447.68 608.36 445.12 612.25 445.63 616.76 L 444.31 616.82 C 444.77 616.96 445.24 617.11 445.71 617.27 C 460.77 609.42 476.26 602.38 490.95 593.81 C 507.04 585.64 522.83 576.92 538.95 568.82 C 550.18 562.58 561.88 557.22 572.91 550.63 C 573.72 550.52 574.54 550.43 575.37 550.34 C 577.03 554.06 577.89 558.05 578.79 562.01 C 581.21 568.91 582.25 576.23 585.22 582.96 C 585.97 585.61 586.50 588.33 586.86 591.08 C 588.20 593.79 589.21 596.66 590.70 599.30 C 597.81 601.80 604.14 606.00 611.09 608.86 C 612.79 609.57 614.53 610.21 616.33 610.68 C 617.88 611.81 619.26 613.16 620.32 614.79 C 620.71 621.54 624.51 627.78 623.66 634.67 C 617.50 635.31 612.38 631.42 607.19 628.75 C 605.06 627.95 602.97 627.08 600.88 626.20 C 593.35 622.87 585.81 619.55 578.30 616.18 C 572.89 612.98 566.67 611.53 561.37 608.13 C 561.39 608.53 561.44 609.32 561.46 609.72 C 560.58 608.82 559.68 607.96 558.76 607.14 C 554.66 599.70 554.69 590.71 550.59 583.27 C 549.31 583.35 548.04 583.44 546.78 583.55 C 543.18 586.26 538.89 587.79 534.96 589.94 C 506.69 603.92 478.68 618.40 450.37 632.30 C 447.17 633.67 443.66 635.16 441.88 638.36 C 440.31 642.03 439.99 646.07 438.80 649.87 C 437.18 653.06 437.51 656.67 437.39 660.14 C 436.47 661.79 436.44 663.67 436.51 665.52 L 435.59 665.51 C 435.12 667.49 434.63 669.48 434.43 671.52 L 433.43 671.56 C 433.44 672.72 433.45 673.89 433.45 675.07 C 433.05 676.19 432.68 677.33 432.34 678.49 L 431.27 678.51 C 431.36 678.91 431.54 679.71 431.63 680.10 C 429.59 681.92 428.64 684.51 428.24 687.15 C 427.79 689.10 427.41 691.09 426.63 692.96 C 426.63 693.57 426.62 694.80 426.62 695.42 L 425.70 695.57 C 424.73 699.38 423.46 703.14 423.22 707.10 C 422.66 708.49 422.47 709.98 422.41 711.48 L 421.66 711.53 C 421.57 713.17 420.60 714.48 419.61 715.72 C 419.57 716.30 419.48 717.44 419.44 718.02 C 417.68 721.10 417.26 724.67 416.19 728.01 C 415.69 729.33 415.55 730.72 415.35 732.12 C 414.47 733.68 413.76 735.33 413.18 737.03 C 412.74 738.33 412.50 739.68 412.26 741.05 C 410.90 744.63 410.04 748.37 409.36 752.14 C 408.97 753.44 408.60 754.74 408.23 756.07 C 407.53 758.38 406.99 760.74 406.28 763.06 C 405.36 764.37 405.55 765.97 405.52 767.49 C 405.11 767.86 404.28 768.62 403.86 768.99 C 402.96 771.71 402.36 774.52 402.48 777.42 C 402.03 777.80 401.13 778.56 400.69 778.94 C 400.59 781.20 400.56 783.58 398.92 785.35 C 398.34 788.23 398.54 791.36 396.69 793.85 C 394.92 798.55 394.48 803.56 393.40 808.43 L 392.29 808.54 C 392.37 809.25 392.53 810.67 392.60 811.38 L 391.60 811.57 C 390.86 814.44 390.08 817.29 389.35 820.16 C 388.76 821.01 388.19 821.86 387.62 822.73 C 387.34 823.24 386.76 824.27 386.48 824.79 C 386.45 825.35 386.39 826.48 386.36 827.04 C 385.31 830.59 384.24 834.14 383.32 837.74 C 382.93 837.66 382.14 837.49 381.75 837.41 C 380.52 832.87 378.43 828.59 377.18 824.03 C 376.85 823.02 376.51 822.01 376.18 821.02 C 375.70 819.92 375.49 818.78 375.55 817.59 C 374.69 816.60 373.73 815.71 372.72 814.90 C 372.67 813.84 372.62 812.79 372.59 811.76 C 368.76 809.50 371.10 804.54 372.31 801.36 C 373.73 796.01 376.67 791.06 376.80 785.43 C 376.93 785.06 377.20 784.32 377.34 783.95 C 377.46 782.29 377.55 780.65 377.68 779.01 C 378.41 777.53 378.42 775.85 378.54 774.27 C 379.02 774.34 379.99 774.47 380.47 774.53 C 380.49 772.04 380.09 769.39 381.30 767.10 C 381.33 765.88 381.35 764.68 381.37 763.49 L 382.47 763.42 C 382.49 762.80 382.52 761.55 382.54 760.92 C 385.06 756.52 387.11 751.60 387.84 746.56 C 387.23 748.14 387.69 750.65 385.49 751.02 C 385.48 750.16 385.47 748.42 385.46 747.55 L 386.35 747.46 C 386.74 745.91 387.18 744.39 387.65 742.89 C 387.91 742.28 388.42 741.08 388.67 740.48 L 389.50 740.41 C 389.48 738.92 389.48 737.44 389.50 735.97 C 392.76 734.84 391.08 730.98 391.36 728.44 L 392.35 728.48 C 392.37 726.73 392.76 724.97 394.43 724.07 C 394.46 723.00 394.50 721.94 394.54 720.90 C 395.42 719.08 395.47 717.06 395.79 715.12 C 396.65 712.99 398.05 711.13 398.85 708.97 C 399.20 707.60 399.44 706.20 399.71 704.83 C 400.88 701.64 401.01 698.14 402.38 695.04 C 402.34 694.65 402.27 693.88 402.23 693.50 L 403.38 693.42 C 403.43 691.37 403.48 689.16 405.41 687.91 C 405.42 686.45 405.40 684.98 405.39 683.53 L 406.34 683.47 C 406.77 681.49 407.26 679.54 407.59 677.55 L 408.58 677.48 C 408.55 677.10 408.50 676.35 408.47 675.97 C 409.59 674.91 409.43 673.32 409.69 671.96 C 411.01 665.67 415.81 660.37 415.51 653.75 C 413.91 655.23 412.38 656.77 410.91 658.38 C 410.53 662.05 408.53 665.21 406.77 668.35 C 406.71 669.03 406.59 670.38 406.52 671.05 C 404.17 673.42 402.98 676.65 400.65 679.04 C 400.58 680.42 400.54 681.80 400.50 683.20 C 399.48 683.87 398.48 684.55 397.47 685.25 C 397.53 686.10 397.65 687.79 397.71 688.64 C 396.32 688.61 394.94 688.58 393.57 688.57 C 393.65 689.32 393.81 690.84 393.89 691.59 C 392.98 691.69 391.17 691.88 390.26 691.97 C 390.28 689.66 390.35 687.37 390.55 685.08 C 392.15 681.86 392.93 678.34 394.12 674.97 C 398.74 660.74 403.90 646.64 410.20 633.05 C 415.98 620.37 421.59 607.57 428.48 595.44 C 434.32 584.60 440.23 573.81 446.13 563.02 C 451.63 551.85 460.49 542.92 468.97 534.01 C 473.79 528.79 479.38 524.22 483.16 518.13 C 486.21 515.06 488.90 511.71 491.61 508.34 M 522.18 582.30 C 520.40 583.05 518.72 584.02 517.27 585.29 C 516.42 585.79 515.57 586.29 514.73 586.80 C 509.15 589.64 503.22 591.88 498.11 595.55 C 497.78 595.53 497.14 595.50 496.82 595.48 C 493.73 597.69 490.42 599.57 487.10 601.40 C 484.99 601.65 482.89 601.98 480.83 602.51 C 481.79 602.41 483.72 602.23 484.68 602.13 C 484.63 602.66 484.53 603.71 484.47 604.23 C 485.96 603.42 487.47 602.62 488.98 601.83 C 493.40 600.15 497.21 597.28 501.46 595.26 C 509.47 591.45 517.21 587.10 524.87 582.64 C 526.13 582.17 527.38 581.69 528.65 581.23 C 528.56 580.59 528.38 579.31 528.28 578.67 C 527.32 579.61 526.36 580.57 525.41 581.53 C 524.73 581.54 523.39 581.55 522.71 581.55 C 522.96 581.34 523.47 580.92 523.72 580.71 L 524.08 580.18 C 524.24 579.86 524.57 579.21 524.74 578.88 C 523.42 579.64 522.07 580.56 522.18 582.30 Z" />
<path fill="#f80372" opacity="1.00" d=" M 312.72 608.39 C 314.83 608.44 316.94 608.52 319.05 608.63 C 320.73 612.27 322.20 616.02 322.84 620.01 C 323.20 621.33 323.54 622.67 323.88 624.01 C 324.19 625.30 324.50 626.59 324.82 627.89 C 328.18 637.74 330.47 647.90 332.80 658.03 C 336.99 670.30 339.45 683.06 343.49 695.38 C 345.49 701.12 346.66 707.09 348.20 712.96 C 349.60 718.78 351.30 724.52 352.84 730.31 C 354.35 733.73 354.81 737.46 354.51 741.18 C 353.89 742.01 353.28 742.87 352.68 743.74 C 351.84 746.78 349.91 749.35 348.97 752.36 C 348.23 750.94 347.47 749.55 346.68 748.18 C 346.16 746.45 345.65 744.72 345.18 742.99 C 344.46 740.68 343.81 738.36 343.22 736.03 C 340.28 727.09 338.10 717.92 335.21 708.97 C 330.34 692.93 326.64 676.56 321.62 660.57 C 320.47 654.94 318.57 649.53 317.21 643.96 C 316.39 641.36 315.81 638.69 315.21 636.04 C 314.37 633.73 313.77 631.35 313.19 628.97 C 312.16 626.05 311.72 622.97 310.78 620.03 C 310.13 617.68 309.69 615.27 309.46 612.85 C 310.58 611.39 311.66 609.90 312.72 608.39 Z" />
<path fill="#f80372" opacity="1.00" d=" M 490.84 633.51 C 492.44 633.49 494.04 633.47 495.65 633.46 C 496.07 639.54 493.41 645.18 491.79 650.91 C 490.58 658.00 488.31 664.86 486.80 671.89 C 485.76 674.81 484.87 677.78 483.80 680.70 C 478.96 699.82 474.10 718.97 469.31 738.10 C 467.58 745.07 465.41 751.92 463.93 758.96 C 461.62 764.81 460.82 771.06 458.86 777.04 C 457.46 779.48 454.93 782.10 451.82 781.43 C 450.19 780.47 448.14 779.14 448.34 776.98 C 447.77 772.90 448.90 768.93 449.84 765.01 C 450.45 761.95 451.10 758.89 452.29 756.00 C 452.41 754.93 452.54 753.87 452.67 752.82 C 453.74 750.29 454.43 747.63 455.17 745.00 C 455.47 743.65 455.80 742.33 456.12 740.99 C 456.39 739.31 456.68 737.64 457.16 736.02 C 459.11 728.65 461.12 721.30 463.15 713.96 C 465.18 706.30 466.84 698.54 469.17 690.96 C 470.48 685.96 471.66 680.92 473.21 675.99 C 474.23 670.91 475.44 665.86 477.19 660.98 C 477.75 658.61 478.40 656.26 479.17 653.96 C 479.93 649.12 481.41 644.43 482.84 639.77 C 484.49 636.67 488.01 635.29 490.84 633.51 Z" />
<path fill="#f80372" opacity="1.00" d=" M 459.77 644.59 C 461.10 644.47 462.43 644.36 463.78 644.26 C 463.53 645.87 463.27 647.50 462.88 649.10 C 461.69 656.08 459.29 662.79 457.58 669.66 C 448.45 703.35 439.41 737.08 430.84 770.92 C 430.47 771.94 430.11 772.96 429.74 773.99 C 429.59 775.00 429.44 776.01 429.29 777.03 C 427.41 782.19 426.39 787.62 425.20 792.98 C 421.75 804.57 418.83 816.36 415.17 827.90 C 413.80 833.28 412.31 838.62 410.81 843.97 C 408.69 849.84 407.88 856.08 405.85 861.99 C 404.31 867.11 403.24 872.46 400.57 877.15 C 400.54 877.79 400.49 879.08 400.46 879.72 C 400.05 879.56 399.23 879.24 398.82 879.08 C 398.68 877.73 398.53 876.37 398.39 875.05 C 396.26 871.96 395.36 868.26 393.59 864.99 C 393.58 863.66 393.59 862.33 393.61 861.02 C 394.75 857.66 395.63 854.23 396.80 850.88 C 399.63 839.74 403.00 828.74 406.19 817.70 C 406.85 815.80 406.14 813.17 408.22 812.04 C 408.34 811.48 408.58 810.37 408.70 809.81 C 409.70 807.27 410.35 804.63 411.18 802.04 C 412.27 798.71 413.14 795.32 414.13 791.97 C 414.47 790.96 414.82 789.95 415.18 788.96 C 418.67 774.83 423.06 760.95 427.22 747.02 C 428.68 742.04 429.92 737.01 431.17 731.99 C 431.70 729.98 432.26 727.99 432.82 726.01 C 433.61 723.01 434.25 719.98 435.16 717.03 C 436.79 712.43 438.15 707.76 439.21 703.01 C 439.64 700.30 440.26 697.64 441.20 695.08 C 441.49 693.71 441.78 692.34 442.12 691.00 C 443.90 686.82 443.29 682.29 443.66 677.90 C 444.15 677.71 445.12 677.34 445.61 677.15 C 445.49 675.91 445.37 674.67 445.26 673.45 L 446.58 673.49 C 446.44 670.56 446.30 667.62 446.56 664.70 C 447.08 664.59 448.11 664.37 448.62 664.26 C 448.53 663.83 448.33 662.96 448.23 662.53 L 449.48 662.45 C 449.65 660.65 448.93 658.45 450.44 657.05 C 450.39 656.66 450.30 655.87 450.25 655.48 L 451.65 655.43 C 451.55 654.71 451.35 653.26 451.25 652.54 L 452.20 652.36 C 452.68 648.30 456.89 646.72 459.77 644.59 Z" />
<path fill="#f80372" opacity="1.00" d=" M 536.36 652.41 C 538.28 652.47 540.20 652.53 542.13 652.62 C 544.78 654.57 548.53 655.83 549.50 659.34 C 550.70 663.18 551.69 667.09 552.83 670.95 C 554.34 675.91 555.56 680.96 557.16 685.90 C 559.11 693.90 563.51 701.61 562.46 710.09 C 560.22 711.01 557.99 711.94 555.74 712.81 C 553.22 710.55 551.55 707.54 550.78 704.27 C 547.86 693.06 544.04 682.13 540.86 671.00 C 539.46 666.66 538.42 662.19 536.66 657.98 C 536.52 656.12 536.43 654.26 536.36 652.41 Z" />
<path fill="#f80372" opacity="1.00" d=" M 569.25 665.26 C 573.78 664.89 577.32 667.90 580.52 670.67 C 580.60 672.08 580.69 673.49 580.80 674.92 C 581.21 676.09 581.60 677.27 582.01 678.47 C 582.91 680.20 583.68 681.99 584.33 683.83 C 584.67 687.04 586.34 689.87 587.27 692.93 C 587.65 694.99 588.28 697.01 589.24 698.90 C 590.38 701.87 591.18 704.97 592.32 707.95 C 592.41 710.03 592.47 712.12 592.53 714.21 C 590.62 715.47 588.83 716.90 587.20 718.51 C 586.28 718.53 585.37 718.55 584.48 718.58 C 584.45 717.94 584.39 716.65 584.36 716.00 C 583.02 713.43 582.13 710.66 581.23 707.91 C 578.41 700.42 576.84 692.53 574.11 685.01 C 572.28 678.49 569.58 672.10 569.25 665.26 Z" />
<path fill="#f80372" opacity="1.00" d=" M 696.97 673.59 C 698.59 673.32 700.23 673.14 701.88 673.05 C 701.88 677.18 700.83 681.24 698.76 684.82 C 698.60 685.84 698.44 686.86 698.29 687.90 C 697.85 689.01 697.54 690.16 697.36 691.35 C 692.71 694.83 687.19 696.84 682.04 699.44 C 676.09 702.50 669.99 705.24 664.03 708.25 C 655.95 712.22 647.96 716.34 639.98 720.49 C 639.42 720.57 638.31 720.73 637.76 720.81 C 635.59 722.77 632.98 724.09 630.33 725.27 C 620.10 730.71 609.60 735.65 599.25 740.85 C 595.12 742.66 591.26 745.00 587.29 747.12 C 584.08 748.60 581.06 750.44 577.81 751.84 C 572.68 754.24 568.42 758.51 562.80 759.79 C 559.70 755.07 560.25 749.34 560.57 744.00 C 564.97 739.85 570.64 737.63 575.89 734.81 C 580.46 732.91 584.52 730.05 588.92 727.81 C 607.87 718.92 626.22 708.76 645.28 700.08 C 662.11 690.48 680.20 683.23 696.97 673.59 Z" />
<path fill="#f80372" opacity="1.00" d=" M 591.56 676.41 C 593.06 676.47 594.57 676.52 596.09 676.60 C 597.35 677.16 598.64 677.73 599.93 678.27 C 601.96 679.12 603.93 680.11 605.84 681.22 C 606.33 681.34 607.32 681.60 607.82 681.73 C 610.53 683.70 613.64 685.01 616.80 686.11 C 618.17 686.66 619.49 687.37 620.76 688.17 C 622.06 688.33 623.37 688.48 624.69 688.64 C 624.66 689.33 624.58 690.71 624.55 691.40 C 621.25 693.66 617.51 695.15 613.89 696.80 C 612.37 698.35 610.86 699.92 609.39 701.51 C 607.85 701.46 606.31 701.40 604.79 701.34 C 603.48 702.30 602.22 703.30 601.01 704.38 C 599.54 704.43 598.07 704.48 596.60 704.54 C 596.96 701.16 594.93 698.45 592.56 696.31 C 592.52 695.18 592.47 694.06 592.43 692.95 C 591.07 690.68 591.60 687.98 591.63 685.48 L 590.35 685.45 C 590.43 683.59 590.65 681.73 591.39 680.01 C 591.45 678.80 591.51 677.60 591.56 676.41 Z" />
<path fill="#f80372" opacity="1.00" d=" M 562.84 716.65 C 564.04 716.54 565.25 716.46 566.47 716.39 C 566.49 717.03 566.54 718.32 566.56 718.96 C 567.06 719.92 567.57 720.89 568.08 721.87 C 568.40 723.82 568.60 725.78 568.78 727.77 C 566.28 729.28 564.03 731.72 560.89 731.62 C 559.78 727.73 557.42 724.17 557.52 720.00 C 559.51 719.26 561.26 718.04 562.84 716.65 Z" />
<path fill="#f80372" opacity="1.00" d=" M 681.93 725.93 C 684.36 725.17 686.95 725.44 689.47 725.46 C 689.48 727.46 689.50 729.46 689.50 731.48 C 688.83 732.17 688.17 732.87 687.52 733.58 C 685.54 733.56 683.57 733.53 681.60 733.48 C 681.51 730.96 681.10 728.36 681.93 725.93 Z" />
<path fill="#f80372" opacity="1.00" d=" M 658.95 728.71 C 659.27 728.64 659.92 728.50 660.25 728.43 C 661.10 729.98 661.97 731.52 662.84 733.08 C 664.69 737.21 665.82 741.60 667.18 745.91 C 667.53 746.93 667.90 747.96 668.29 748.99 C 668.38 749.50 668.57 750.51 668.67 751.01 C 669.49 752.97 670.15 755.00 670.75 757.05 C 671.98 760.17 673.66 763.40 673.33 766.85 C 672.50 769.68 671.22 772.36 670.18 775.13 C 669.53 776.62 668.89 778.13 668.26 779.65 C 667.90 779.56 667.19 779.39 666.83 779.31 C 666.53 777.89 666.23 776.47 665.90 775.08 C 665.50 774.11 665.10 773.15 664.72 772.20 C 664.47 770.02 663.92 767.87 662.68 766.05 C 662.61 765.53 662.47 764.49 662.40 763.98 C 661.95 763.00 661.50 762.03 661.07 761.07 C 660.79 760.01 660.52 758.97 660.26 757.93 C 658.14 752.79 657.09 747.29 655.10 742.11 C 653.73 738.89 653.18 735.43 653.50 731.96 C 655.41 731.04 657.22 729.94 658.95 728.71 Z" />
<path fill="#f80372" opacity="1.00" d=" M 641.81 740.53 C 642.24 740.47 643.10 740.35 643.53 740.29 C 643.52 742.02 643.53 743.76 643.56 745.50 C 642.03 745.69 640.03 744.91 639.02 746.52 C 638.05 746.45 637.07 746.36 636.12 746.30 C 636.53 748.05 635.97 750.78 638.55 750.80 C 638.48 752.25 638.42 753.70 638.39 755.16 C 639.47 756.01 640.23 757.18 640.73 758.47 L 641.60 758.59 C 641.56 758.97 641.47 759.72 641.43 760.10 C 641.76 760.72 642.44 761.96 642.78 762.58 C 643.25 762.54 644.20 762.47 644.67 762.43 C 644.52 763.80 644.37 765.17 644.23 766.54 L 645.62 766.52 C 645.51 767.83 645.41 769.15 645.31 770.49 L 646.68 770.52 C 646.57 771.27 646.35 772.76 646.23 773.50 L 647.70 773.53 C 647.58 774.25 647.33 775.69 647.20 776.40 C 647.80 776.74 649.01 777.42 649.61 777.76 C 649.51 778.96 649.42 780.18 649.34 781.41 L 650.64 781.55 C 650.52 783.19 650.42 784.82 650.31 786.47 L 651.60 786.57 C 651.52 787.07 651.35 788.06 651.26 788.55 L 652.33 788.52 C 652.38 789.79 652.75 790.96 653.44 792.02 C 653.42 793.14 653.40 794.28 653.37 795.43 L 654.42 795.55 C 654.47 797.38 654.38 799.31 655.40 800.96 C 655.74 805.88 656.01 810.97 654.29 815.70 C 653.96 815.59 653.28 815.36 652.95 815.25 C 648.72 810.63 644.49 805.84 641.85 800.11 C 640.77 797.93 639.25 796.02 637.77 794.13 C 637.47 793.60 636.88 792.55 636.58 792.02 C 636.55 791.49 636.51 790.44 636.48 789.92 C 636.16 789.42 635.50 788.41 635.18 787.91 C 634.38 785.93 633.52 783.97 632.61 782.06 C 632.54 781.50 632.42 780.38 632.35 779.82 C 630.88 777.34 630.02 774.59 629.24 771.84 C 628.71 770.53 628.22 769.22 627.72 767.92 C 627.65 765.02 626.41 762.37 624.54 760.19 C 625.35 762.77 626.61 765.23 626.78 767.99 C 626.39 766.74 626.03 765.49 625.69 764.25 C 625.18 764.05 624.18 763.65 623.68 763.45 C 626.52 757.93 620.83 753.43 621.51 747.95 C 625.52 746.75 629.06 744.47 632.79 742.63 C 635.59 742.51 638.39 742.60 641.19 742.41 C 641.35 741.94 641.65 741.00 641.81 740.53 Z" />
<path fill="#f80372" opacity="1.00" d=" M 593.32 763.77 C 596.06 761.77 599.06 759.99 602.60 760.08 C 603.13 761.95 603.46 763.88 603.97 765.78 C 605.13 767.55 606.71 769.15 606.69 771.45 L 607.69 771.55 C 607.60 772.02 607.43 772.97 607.34 773.44 L 608.68 773.56 C 608.60 774.04 608.43 775.00 608.35 775.49 L 609.68 775.61 C 609.60 776.32 609.44 777.73 609.36 778.44 L 610.60 778.56 C 610.55 779.82 610.51 781.08 610.48 782.35 C 611.49 783.81 612.47 785.31 613.44 786.82 C 613.34 789.32 613.88 791.78 615.35 793.85 C 615.80 795.38 616.25 796.92 616.64 798.49 L 617.67 798.52 C 617.59 799.01 617.44 799.99 617.36 800.47 L 618.53 800.62 C 618.65 802.72 617.89 805.20 619.45 806.98 C 619.47 807.26 619.51 807.81 619.53 808.09 C 620.59 809.57 621.33 811.26 621.83 813.02 C 622.29 814.65 622.63 816.32 623.13 817.95 C 623.66 819.08 624.22 820.21 624.75 821.36 C 625.12 822.25 625.48 823.14 625.84 824.06 C 626.73 825.97 626.51 828.14 626.55 830.21 C 627.20 831.05 627.84 831.91 628.50 832.78 C 628.58 834.15 628.53 835.62 629.17 836.90 C 629.48 837.39 630.09 838.35 630.40 838.84 C 630.57 839.90 630.83 840.95 631.21 841.98 C 631.47 843.04 631.90 844.04 632.50 844.98 C 632.50 845.53 632.52 846.63 632.53 847.17 C 633.21 848.04 633.90 848.93 634.59 849.82 C 634.58 851.01 634.58 852.22 634.59 853.43 C 635.26 854.21 635.94 855.00 636.62 855.79 C 636.61 859.34 636.72 862.98 635.34 866.34 C 633.73 869.28 631.59 872.11 631.29 875.57 C 630.29 875.63 629.29 875.69 628.31 875.77 C 627.79 874.43 627.29 873.10 626.77 871.79 C 626.46 870.48 626.18 869.18 625.89 867.89 C 625.54 866.54 625.21 865.20 624.61 863.96 C 624.45 862.59 624.34 861.24 624.22 859.90 C 621.12 854.77 620.15 848.65 618.18 843.03 C 617.83 842.00 617.51 840.99 617.19 839.97 C 616.64 838.36 616.18 836.71 615.68 835.09 C 615.59 834.57 615.42 833.54 615.33 833.02 C 614.74 831.74 614.18 830.46 613.62 829.19 C 613.55 828.65 613.39 827.57 613.31 827.03 C 612.76 825.74 612.22 824.45 611.72 823.17 C 610.83 820.12 609.84 817.11 608.66 814.16 C 608.59 813.62 608.43 812.53 608.35 811.99 C 607.80 810.69 607.27 809.39 606.76 808.10 C 605.27 801.94 602.82 796.07 601.23 789.95 C 599.63 786.68 599.16 783.04 597.93 779.65 C 595.85 774.53 594.41 769.18 593.32 763.77 Z" />
<path fill="#f80372" opacity="1.00" d=" M 570.72 773.90 C 571.25 773.55 572.32 772.85 572.85 772.49 C 573.64 772.52 575.22 772.57 576.01 772.59 C 576.64 772.91 577.90 773.55 578.52 773.87 C 578.56 775.91 578.56 777.95 578.50 780.00 C 577.34 780.89 576.20 781.80 575.08 782.75 C 573.08 781.97 570.75 781.21 569.95 779.00 C 568.97 777.29 570.11 775.50 570.72 773.90 Z" />
</g>
<g id="#8af6f0ff">
<path fill="#8af6f0" opacity="1.00" d=" M 208.27 202.38 C 212.23 201.70 216.02 203.53 219.96 203.43 C 235.97 203.02 251.99 203.58 267.98 204.26 C 281.69 204.23 295.39 204.70 309.09 204.64 C 309.87 207.28 310.51 209.95 310.79 212.70 C 288.85 212.62 266.90 212.45 244.96 212.34 C 242.06 212.41 239.43 211.06 236.73 210.21 C 231.84 208.46 226.67 207.64 221.84 205.72 C 218.58 204.61 215.25 203.00 211.72 203.59 C 210.56 203.19 209.40 202.81 208.27 202.38 Z" />
<path fill="#8af6f0" opacity="1.00" d=" M 788.93 203.30 C 795.34 203.02 801.86 203.95 808.16 202.31 C 808.88 202.21 811.27 201.95 810.65 203.36 C 809.03 204.40 806.89 204.92 805.44 203.30 C 796.78 205.86 789.48 212.94 780.01 212.34 C 764.26 212.24 748.51 212.47 732.81 213.57 C 730.99 220.78 729.52 228.07 727.43 235.21 C 726.02 239.38 724.86 243.64 723.89 247.94 C 721.31 255.84 720.18 264.15 717.16 271.94 L 716.94 272.56 L 713.93 270.29 L 720.02 274.88 L 716.80 274.15 C 715.35 278.73 714.53 283.48 713.20 288.09 C 711.05 296.69 707.59 304.92 705.77 313.61 C 704.62 319.26 702.55 324.66 701.16 330.25 C 700.27 333.75 699.02 337.16 697.35 340.37 C 695.24 340.81 693.13 341.27 691.03 341.71 C 692.15 333.68 695.10 326.04 696.13 317.99 C 696.58 313.81 697.57 309.72 698.83 305.72 C 702.07 299.22 703.09 291.98 704.20 284.89 C 705.02 278.93 708.58 273.83 709.75 267.96 C 711.96 259.82 711.48 250.98 715.38 243.31 C 718.49 237.35 718.82 230.55 719.83 224.03 C 720.64 217.42 725.30 212.04 726.01 205.40 C 739.94 203.70 754.07 205.01 768.05 203.75 C 775.00 203.50 781.97 203.55 788.93 203.30 Z" />
<path fill="#8af6f0" opacity="1.00" d=" M 513.85 240.67 C 518.24 249.10 520.31 258.46 523.22 267.45 C 526.31 275.89 528.42 284.66 531.58 293.08 C 530.20 295.49 528.77 297.87 527.06 300.06 C 522.65 290.18 518.96 279.97 516.12 269.54 C 515.78 269.53 515.11 269.50 514.78 269.49 C 513.43 276.67 510.19 283.31 508.65 290.45 C 505.91 302.38 502.38 314.11 498.76 325.80 C 497.33 331.83 496.30 337.99 493.93 343.75 C 490.82 354.40 488.45 365.26 484.85 375.77 C 480.97 390.63 476.41 405.29 472.39 420.11 C 469.22 429.36 466.37 438.73 462.85 447.85 C 462.47 448.78 462.09 449.71 461.72 450.64 C 461.13 450.66 459.94 450.68 459.35 450.69 L 459.64 449.39 C 459.06 449.44 457.90 449.53 457.32 449.58 C 457.66 446.36 458.19 443.15 459.15 440.06 C 459.48 438.99 459.80 437.92 460.14 436.86 C 460.44 435.55 460.75 434.24 461.10 432.95 C 461.44 431.62 461.78 430.30 462.15 428.99 C 463.88 420.96 465.04 412.73 468.31 405.12 C 470.77 398.65 471.53 391.71 472.72 384.93 C 473.06 383.91 473.40 382.90 473.73 381.90 C 474.89 379.32 475.99 376.71 476.85 374.02 C 477.21 373.01 477.57 372.00 477.95 371.00 C 478.31 369.33 478.56 367.62 478.84 365.94 C 479.63 362.64 480.25 359.31 480.76 355.97 C 481.54 353.64 482.39 351.32 483.36 349.06 C 483.41 348.79 483.52 348.24 483.57 347.97 C 484.12 347.04 484.57 346.06 484.92 345.04 C 486.30 340.43 487.29 335.70 487.78 330.91 C 488.16 329.26 488.44 327.58 488.72 325.92 C 489.21 324.62 489.68 323.32 490.14 322.02 C 490.41 320.93 490.88 319.94 491.53 319.03 C 491.48 318.66 491.38 317.92 491.34 317.54 L 492.40 317.45 C 493.04 315.33 493.54 313.18 493.88 310.99 C 494.34 309.05 494.72 307.09 495.22 305.16 C 495.47 302.29 495.99 299.47 496.62 296.66 C 498.92 290.53 502.38 284.77 502.89 278.07 C 503.37 276.07 503.56 274.02 503.78 271.99 C 504.13 270.70 504.43 269.39 504.73 268.10 C 505.75 265.32 506.81 262.54 508.14 259.90 C 510.58 253.65 511.72 247.02 513.85 240.67 Z" />
<path fill="#8af6f0" opacity="1.00" d=" M 774.61 330.93 C 776.76 330.04 778.89 329.10 781.03 328.18 C 778.27 329.89 775.31 331.27 772.59 333.03 C 768.24 336.09 763.36 338.27 758.59 340.58 C 756.52 341.77 754.50 343.08 752.26 343.92 C 752.24 343.55 752.19 342.80 752.16 342.43 C 752.73 342.49 753.87 342.63 754.45 342.69 L 754.45 341.32 L 755.88 341.73 C 755.77 340.98 755.54 339.49 755.42 338.75 C 758.90 338.97 761.67 336.67 764.79 335.52 L 764.61 334.57 C 765.78 334.54 766.95 334.52 768.14 334.49 C 768.99 331.62 772.80 332.96 774.61 330.93 Z" />
<path fill="#8af6f0" opacity="1.00" d=" M 314.12 355.24 C 315.91 354.53 317.57 353.54 319.15 352.46 C 314.96 357.27 309.01 360.00 303.95 363.76 C 295.19 370.24 285.84 375.83 276.71 381.76 C 273.72 383.90 270.21 385.17 267.31 387.45 C 266.64 387.44 265.30 387.41 264.63 387.39 C 265.50 387.01 266.38 386.65 267.27 386.31 C 269.74 384.12 272.12 381.80 274.98 380.11 C 275.92 379.32 276.92 378.59 278.12 378.23 C 280.98 376.51 283.78 374.67 286.43 372.63 C 287.46 372.22 288.50 371.81 289.54 371.41 L 289.52 370.29 C 289.93 370.37 290.76 370.52 291.17 370.60 C 292.66 369.12 294.16 367.45 296.41 367.29 L 296.52 366.73 C 302.80 363.62 307.19 357.31 314.12 355.24 Z" />
<path fill="#8af6f0" opacity="1.00" d=" M 569.32 444.38 C 569.93 444.39 571.17 444.43 571.78 444.44 C 571.62 444.97 571.29 446.01 571.13 446.53 L 572.25 446.53 C 573.68 451.17 576.06 455.55 576.65 460.44 L 577.34 460.56 C 577.89 463.16 578.50 465.76 578.63 468.43 L 579.70 468.53 C 579.60 469.27 579.41 470.77 579.31 471.52 L 580.72 471.53 C 580.59 472.03 580.32 473.04 580.18 473.55 L 581.41 473.57 C 581.52 475.39 581.48 477.30 582.41 478.96 C 582.42 480.21 582.42 481.47 582.41 482.73 L 583.68 482.19 C 583.56 484.32 583.48 486.45 583.38 488.58 L 585.07 488.58 C 584.69 489.77 583.91 490.53 582.74 490.88 C 582.66 490.15 582.48 488.70 582.40 487.97 C 581.72 486.92 581.37 485.77 581.34 484.51 L 580.29 484.48 C 580.33 484.11 580.42 483.35 580.46 482.98 C 579.99 481.98 579.53 480.99 579.09 480.00 C 578.76 479.00 578.43 478.01 578.11 477.02 C 577.31 475.04 576.61 473.03 576.12 470.96 C 575.78 469.96 575.45 468.97 575.13 467.97 C 574.46 465.95 573.84 463.92 573.26 461.88 C 572.00 457.93 570.34 454.03 570.25 449.82 C 569.54 448.09 569.38 446.22 569.32 444.38 Z" />
<path fill="#8af6f0" opacity="1.00" d=" M 668.38 462.68 C 670.11 461.34 672.04 460.06 674.19 459.53 L 676.12 459.25 C 672.97 471.20 670.43 483.44 665.32 494.76 C 663.67 494.32 661.85 494.22 660.50 493.09 C 660.27 489.53 661.80 486.22 662.58 482.82 C 663.97 477.00 664.78 471.06 665.71 465.16 C 666.58 464.31 667.47 463.49 668.38 462.68 Z" />
<path fill="#8af6f0" opacity="1.00" d=" M 658.89 505.52 C 659.27 505.55 660.03 505.63 660.41 505.66 C 661.03 513.08 657.43 519.90 656.12 527.06 C 655.18 532.76 652.69 538.03 651.46 543.66 C 650.98 543.63 650.01 543.57 649.53 543.54 C 649.61 544.03 649.77 545.02 649.85 545.52 L 647.24 545.71 C 647.37 543.16 647.37 540.59 647.91 538.09 C 650.01 528.76 652.37 519.45 655.82 510.52 C 656.55 508.68 657.79 507.13 658.89 505.52 Z" />
<path fill="#8af6f0" opacity="1.00" d=" M 522.18 582.30 C 522.07 580.56 523.42 579.64 524.74 578.88 C 524.57 579.21 524.24 579.86 524.08 580.18 L 523.72 580.71 C 523.47 580.92 522.96 581.34 522.71 581.55 C 523.39 581.55 524.73 581.54 525.41 581.53 C 526.36 580.57 527.32 579.61 528.28 578.67 C 528.38 579.31 528.56 580.59 528.65 581.23 C 527.38 581.69 526.13 582.17 524.87 582.64 C 517.21 587.10 509.47 591.45 501.46 595.26 C 497.21 597.28 493.40 600.15 488.98 601.83 C 487.47 602.62 485.96 603.42 484.47 604.23 C 484.53 603.71 484.63 602.66 484.68 602.13 C 483.72 602.23 481.79 602.41 480.83 602.51 C 482.89 601.98 484.99 601.65 487.10 601.40 C 490.42 599.57 493.73 597.69 496.82 595.48 C 497.14 595.50 497.78 595.53 498.11 595.55 C 503.22 591.88 509.15 589.64 514.73 586.80 C 515.57 586.29 516.42 585.79 517.27 585.29 C 518.72 584.02 520.40 583.05 522.18 582.30 Z" />
<path fill="#8af6f0" opacity="1.00" d=" M 533.47 621.47 C 533.95 621.44 534.89 621.36 535.36 621.32 C 535.35 621.02 535.34 620.41 535.34 620.11 C 536.23 620.23 538.02 620.48 538.91 620.60 C 541.27 621.71 543.67 622.75 546.07 623.77 C 551.49 626.01 556.58 628.92 561.94 631.28 C 566.89 633.02 571.18 636.08 575.93 638.23 C 580.88 639.98 585.42 642.68 589.95 645.31 C 592.07 646.21 594.22 647.06 596.43 647.74 L 596.43 648.80 C 596.97 648.68 598.06 648.46 598.60 648.35 C 598.51 649.48 598.42 650.63 598.34 651.78 L 599.76 651.36 C 599.81 651.67 599.90 652.29 599.95 652.60 C 598.13 652.18 596.31 651.75 594.48 651.41 L 594.56 650.20 C 594.05 650.34 593.02 650.60 592.51 650.74 L 592.47 649.71 C 590.41 649.01 588.38 648.23 586.36 647.44 L 586.48 646.50 C 585.88 646.49 584.68 646.47 584.08 646.46 C 570.68 640.12 557.03 634.31 543.46 628.36 C 540.13 626.79 536.95 624.91 533.80 623.03 C 533.72 622.64 533.56 621.86 533.47 621.47 Z" />
</g>
</svg>
